SplineFontDB: 3.0
FontName: HashSmash
FullName: Hash Smash
FamilyName: HashSmash
Weight: Regular
Copyright: Copyright (c) 1999 - 2016, Terrence Curran
UComments: "2016-1-30: Created with FontForge (http://fontforge.org)"
Version: 2016-02-01
ItalicAngle: 0
UnderlinePosition: -100
UnderlineWidth: 50
Ascent: 800
Descent: 200
InvalidEm: 0
LayerCount: 2
Layer: 0 0 "Back" 1
Layer: 1 0 "Fore" 0
XUID: [1021 270 -1463357204 6986682]
FSType: 0
OS2Version: 0
OS2_WeightWidthSlopeOnly: 0
OS2_UseTypoMetrics: 1
CreationTime: 1454212172
ModificationTime: 1454343650
OS2TypoAscent: 0
OS2TypoAOffset: 1
OS2TypoDescent: 0
OS2TypoDOffset: 1
OS2TypoLinegap: 90
OS2WinAscent: 0
OS2WinAOffset: 1
OS2WinDescent: 0
OS2WinDOffset: 1
HheadAscent: 0
HheadAOffset: 1
HheadDescent: 0
HheadDOffset: 1
OS2CapHeight: 0
OS2XHeight: 0
MarkAttachClasses: 1
DEI: 91125

StartChar: A
Encoding: 65 65 0
Width: 830
VWidth: 1050
Flags: W
HStem: -26 20 -21 16 -5 47 3 100 265 37 639 22<645 660> 646 21G
VStem: 463 121 597 16
LayerCount: 2
Back
Fore
SplineSet
782 1 m 1x5b80
 770 -5 750 -10 737 -10 c 0
 725 -10 707 -5 692 -5 c 0
 679 -5 592 3 578 3 c 0
 540 3 490 122 489 134 c 0
 483 174 483 231 471 282 c 1
 405 284 335 276 268 274 c 1
 250 249 234 212 220 183 c 0
 219 177 225 166 222 160 c 0
 202 121 170 80 149 41 c 1
 149 50 159 70 159 91 c 1
 141 70 130 45 112 17 c 1
 146 11 184 8 217 13 c 1
 230 -2 l 1
 196 -8 134 -21 120 -21 c 0
 108 -21 94 -21 82 -21 c 2
 18 -26 l 1x9d80
 18 -5 l 1
 34 -5 52 7 70 9 c 1
 112 85 198 200 213 266 c 1
 209 268 196 265 183 265 c 0
 169 265 163 278 157 284 c 1
 181 315 198 297 231 303 c 1
 410 667 l 1
 416 667 426 656 440 656 c 0
 453 656 592 661 670 661 c 1xab80
 671 654 668 639 652 639 c 0
 638 639 627 647 599 647 c 1
 605 641 610 631 613 626 c 0
 617 521 650 366 670 251 c 0
 686 157 723 30 719 40 c 1
 731 37 767 24 782 1 c 1x5b80
599 642 m 1
 572 660 556 610 544 595 c 1
 561 612 583 630 599 642 c 1
597 567 m 1
 597 584 596 606 597 623 c 1
 591 611 589 596 584 584 c 1
 588 580 591 572 597 567 c 1
578 389 m 2
 610 419 l 1
 588 425 586 400 578 389 c 2
503 521 m 1
 497 514 464 493 473 471 c 1
 485 489 497 510 503 521 c 1
592 488 m 1
 553 460 507 380 494 349 c 1
 523 391 586 443 592 488 c 1
623 343 m 1
 623 337 612 321 612 315 c 1
 619 326 633 337 623 343 c 1
537 449 m 1
 514 431 493 409 470 397 c 1
 475 385 479 366 478 354 c 1
 500 388 520 426 537 449 c 1
570 421 m 1
 541 382 510 345 488 310 c 1
 493 310 502 304 502 304 c 1
 525 343 553 388 570 421 c 1
463 315 m 1
 440 639 l 1
 281 322 l 1
 309 298 328 321 350 321 c 0
 365 321 410 319 429 322 c 0
 440 324 454 332 463 315 c 1
644 239 m 1
 638 245 630 248 630 248 c 1
 612 231 600 210 595 198 c 1
 617 220 644 239 644 239 c 1
587 314 m 1
 563 290 543 268 532 250 c 1
 538 245 540 237 540 237 c 1
 557 265 575 292 587 314 c 1
687 46 m 1
 681 79 670 161 670 190 c 1
 670 184 655 180 655 166 c 2
 655 126 l 1
 662 126 669 130 674 136 c 1
 680 119 674 103 673 91 c 1
 679 97 687 46 687 46 c 1
620 203 m 1
 590 165 567 130 556 103 c 1
 579 130 604 169 620 203 c 1
654 90 m 1
 644 85 622 60 605 42 c 1xab80
 631 42 l 1
 637 58 644 79 654 90 c 1
592 74 m 1
 578 62 l 1
 578 41 l 1
 584 47 587 63 592 74 c 1
EndSplineSet
EndChar

StartChar: B
Encoding: 66 66 1
Width: 610
VWidth: 1050
Flags: W
HStem: -9 35<84.5 115> -2 28<84.5 88> 643 36
VStem: 113 66 113 80 145 69 151 271 411 11 411 123 493 18
LayerCount: 2
Back
Fore
SplineSet
577 173 m 0xa540
 576 154 531 75 520 69 c 0
 488 57 452 45 414 27 c 0
 382 12 340 8 300 3 c 0
 268 -1 233 4 200 -5 c 0
 182 -10 128 -10 115 -9 c 0
 103 -9 101 -3 88 -2 c 0x6480
 74 -2 69 19 64 30 c 1
 70 30 78 26 91 26 c 0
 125 25 137 62 137 77 c 0
 138 91 121 222 118 294 c 1
 108 300 88 297 72 302 c 1
 83 312 102 316 113 315 c 1
 106 416 103 519 95 620 c 1
 87 626 69 626 34 621 c 1
 34 627 42 643 48 646 c 0
 125 659 209 682 293 679 c 0
 370 676 516 658 511 529 c 0
 510 486 482 396 393 358 c 1
 399 352 393 350 408 350 c 0
 421 350 413 361 428 361 c 0
 445 360 530 299 534 289 c 0x7140
 540 274 560 248 566 225 c 0
 570 209 578 188 577 173 c 0xa540
486 587 m 1
 480 592 476 599 471 605 c 1
 470 594 465 572 465 561 c 1
 470 571 485 581 486 587 c 1
493 527 m 1
 493 538 492 560 487 571 c 1
 487 566 479 565 479 551 c 2
 478 533 l 1
 485 533 493 527 493 527 c 1
489 507 m 1
 483 512 481 521 481 521 c 1
 473 510 461 494 449 484 c 1
 459 490 477 501 489 507 c 1
384 407 m 0
 385 421 361 564 352 636 c 1
 302 644 231 647 180 643 c 1
 179 613 l 2
 178 599 191 548 193 522 c 0x6940
 198 471 207 403 210 347 c 1
 238 346 l 2
 251 345 327 360 358 365 c 0
 364 369 370 374 374 375 c 0
 382 385 384 394 384 407 c 0
530 265 m 1
 525 270 523 279 523 279 c 1
 512 266 490 240 479 225 c 1
 497 241 519 254 530 265 c 1
463 286 m 1
 446 270 425 254 425 244 c 1
 442 254 456 275 463 286 c 1
555 195 m 1
 551 212 539 236 530 245 c 1
 550 198 486 172 459 125 c 1
 489 152 527 180 555 195 c 1
137 560 m 1
 131 560 132 565 127 570 c 1
 132 576 125 581 125 581 c 1
 118 570 118 545 123 528 c 1
 124 539 136 554 137 560 c 1
472 247 m 1
 455 230 422 209 422 196 c 0
 421 182 430 182 430 182 c 1
 436 198 455 225 472 247 c 1
147 461 m 1
 186 495 l 1
 180 501 178 510 178 510 c 1
 167 492 152 471 147 461 c 1
506 229 m 1
 440 165 l 1
 434 170 421 179 421 173 c 0
 420 162 422 149 421 137 c 1
 450 164 478 194 506 229 c 1
183 470 m 1
 177 459 169 443 165 438 c 1
 179 449 183 464 183 470 c 1
187 430 m 1
 181 420 167 398 160 388 c 1
 185 401 188 420 187 430 c 1
190 347 m 1
 190 377 l 2
 190 371 176 359 176 353 c 1
 182 353 190 347 190 347 c 1
411 224 m 0
 411 238 401 265 406 285 c 1
 391 298 378 323 375 339 c 1
 370 340 370 340 356 341 c 0
 341 341 298 331 277 324 c 0
 275 320 286 315 271 315 c 0
 255 316 230 315 214 317 c 1x6540
 222 222 247 121 260 26 c 1
 303 37 348 44 379 56 c 1
 394 67 410 200 411 224 c 0
160 274 m 1
 144 264 l 1
 136 270 139 287 145 296 c 1
 139 296 129 291 129 291 c 1
 133 257 140 223 139 189 c 1
 139 194 148 200 151 209 c 1x6540
 148 216 142 228 145 238 c 0x6240
 148 250 153 263 160 274 c 1
216 170 m 1
 216 164 203 150 203 145 c 1
 204 146 215 150 216 170 c 1
229 127 m 0
 230 141 222 144 222 150 c 1
 215 133 196 106 190 90 c 1
 201 100 229 113 229 127 c 0
235 43 m 1
 236 71 236 99 231 115 c 1
 225 93 214 71 202 50 c 1
 208 61 217 67 224 71 c 1
 229 58 l 1
 223 59 230 49 235 43 c 1
EndSplineSet
EndChar

StartChar: C
Encoding: 67 67 2
Width: 520
VWidth: 1050
Flags: W
HStem: -15 42<244.5 246.5 208 269.5> -9 41<155 187.5> 3 29<172.5 187.5> 548 133 566 23<458.5 481> 671 19<246.5 289>
VStem: 29 89<247 289> 29 106<154 313.5> 135 28
LayerCount: 2
Back
Fore
SplineSet
514 564 m 1x4e80
 485 561 489 566 473 566 c 0
 444 566 404 546 400 536 c 1
 386 548 l 1x4d
 350 549 317 549 279 549 c 1
 278 559 297 577 297 589 c 1x2e80
 310 577 l 1
 323 582 331 588 343 593 c 1
 341 601 307 671 271 671 c 0
 254 671 174 653 163 633 c 1
 163 633 165 628 167 622 c 0
 153 536 135 340 135 326 c 0
 135 310 151 121 163 20 c 1
 170 27 165 32 180 32 c 0
 195 32 177 14 191 14 c 0
 207 14 201 27 215 27 c 0x8e80
 278 27 313 81 331 136 c 1
 334 151 l 2
 329 144 339 153 333 160 c 2
 322 168 l 2
 319 171 310 166 322 172 c 1
 322 172 318 176 325 182 c 0
 329 188 326 187 340 187 c 0
 353 187 332 190 339 196 c 2
 354 210 l 1
 396 196 428 213 473 190 c 1
 469 186 458 167 448 167 c 1
 444 163 l 1
 435 146 430 128 417 105 c 0
 390 55 288 -15 251 -15 c 0
 238 -15 218 -19 210 -13 c 0
 199 -7 195 3 180 3 c 0x2e80
 165 3 177 -9 162 -9 c 0x5280
 148 -9 150 3 143 7 c 0
 93 22 63 68 56 106 c 0
 53 111 48 110 42 110 c 1
 42 158 29 240 29 254 c 0
 29 373 78 617 170 667 c 0
 196 678 239 690 254 690 c 0
 269 690 336 677 370 683 c 1
 370 675 l 1
 453 605 404 589 476 589 c 0
 490 589 490 589 495 594 c 1
 494 588 509 573 514 564 c 1x4e80
425 168 m 1
 386 168 l 1
 379 147 l 1
 390 141 406 138 410 133 c 0
 415 133 425 156 425 168 c 1
361 59 m 1
 340 64 323 31 312 25 c 1
 330 37 349 53 361 59 c 1
135 160 m 0
 135 174 122 275 122 329 c 1
 104 310 83 289 78 275 c 1
 84 282 95 293 109 293 c 0
 124 293 118 289 118 289 c 1x4e80
 118 244 l 1
 93 225 106 220 110 202 c 1
 100 189 94 175 95 170 c 1
 101 170 109 174 109 174 c 1
 118 165 l 1
 112 153 108 139 109 133 c 1
 114 141 135 148 135 160 c 0
EndSplineSet
EndChar

StartChar: D
Encoding: 68 68 3
Width: 545
VWidth: 1050
Flags: W
HStem: 633 39 644 30
VStem: 78 91 78 114 90 258<477 477> 321 27
LayerCount: 2
Back
Fore
SplineSet
483 405 m 0x88
 483 393 474 279 467 221 c 0
 463 194 450 153 436 127 c 0
 431 115 410 85 397 67 c 0
 390 56 268 -36 243 -36 c 0
 230 -36 192 -49 178 -49 c 0
 165 -49 110 -43 95 -43 c 0
 82 -43 57 -35 39 -30 c 1
 39 -24 52 -13 52 -8 c 2
 65 -19 l 1
 76 5 104 7 133 27 c 1
 128 181 128 186 133 192 c 1
 130 204 128 213 117 221 c 1
 117 288 97 402 90 477 c 1
 90 477 98 467 98 482 c 0
 98 494 86 567 78 612 c 1x54
 83 618 87 628 87 645 c 1
 81 645 78 639 72 633 c 1
 28 633 l 1
 21 667 l 1
 39 672 74 674 89 674 c 0x94
 104 674 128 686 142 686 c 0
 157 686 146 674 160 674 c 0
 175 674 205 686 219 686 c 0
 371 686 483 491 483 405 c 0x88
440 479 m 1
 440 502 l 1
 433 490 419 472 419 467 c 1
 426 472 434 479 440 479 c 1
376 500 m 1
 370 500 354 508 349 513 c 1
 349 502 348 486 348 473 c 1
 354 486 370 494 376 500 c 1
147 632 m 1
 147 627 140 616 140 616 c 1
 146 616 153 627 147 632 c 1
388 347 m 1
 382 347 372 353 372 353 c 1
 372 325 l 2
 373 330 382 341 388 347 c 1
411 270 m 1
 406 270 409 266 394 266 c 0
 379 266 396 276 390 282 c 1
 390 288 393 288 384 295 c 1
 378 266 384 248 384 236 c 1
 396 248 406 264 411 270 c 1
370 95 m 1
 364 149 370 205 362 257 c 0
 353 322 339 399 330 464 c 0
 329 470 323 470 321 476 c 0
 323 517 305 572 302 619 c 1
 272 630 209 644 195 644 c 2
 170 644 l 1
 170 631 166 609 181 609 c 0
 195 609 187 606 192 599 c 1
 187 588 169 574 169 561 c 0xa4
 169 547 190 467 194 433 c 0
 210 316 218 196 231 78 c 0
 234 55 236 23 235 -1 c 1
 277 29 334 66 370 95 c 1
204 213 m 1
 204 219 200 235 194 242 c 1
 194 235 188 225 188 207 c 1
 193 207 204 213 204 213 c 1
161 235 m 1
 150 224 148 200 148 183 c 1
 153 200 161 224 161 235 c 1
159 46 m 1
 159 40 156 29 156 22 c 1
 184 18 165 40 159 46 c 1
EndSplineSet
EndChar

StartChar: E
Encoding: 69 69 4
Width: 571
VWidth: 1050
Flags: W
HStem: -16 20 6 87 114 54<477 478> 126 42<467.5 478> 557 147 646 58 680 24 684 20G
VStem: 99 38 102 35<379 403.5 379 407 379 413> 102 214 102 225<303 407 303 413> 306 188<486 604 486 604>
LayerCount: 2
Back
Fore
SplineSet
534 205 m 1xd148
 525 205 l 2
 520 203 521 197 530 191 c 1
 528 136 524 66 515 7 c 1
 507 23 507 50 501 67 c 1
 477 54 451 45 428 40 c 1
 444 34 463 30 487 35 c 1
 487 35 498 12 498 7 c 1
 469 1 410 19 395 19 c 0
 382 19 348 8 333 8 c 0
 320 8 214 2 200 2 c 0
 182 2 173 -10 158 -10 c 0
 144 -10 108 -4 93 -4 c 0
 78 -4 50 -10 32 -16 c 1
 32 -16 26 -6 26 0 c 1
 37 7 50 13 64 13 c 0
 75 13 106 34 136 49 c 0
 145 57 144 64 144 80 c 1
 138 80 l 1
 133 148 114 251 109 340 c 1
 82 346 46 344 19 354 c 1
 59 350 70 368 102 379 c 1
 102 407 l 2
 102 419 89 447 86 466 c 0
 83 482 99 499 99 512 c 0xd210
 99 527 83 532 89 532 c 1
 89 562 89 593 89 623 c 1
 67 629 35 629 5 641 c 1
 5 648 41 681 51 682 c 0
 170 697 274 691 398 700 c 0
 425 702 456 703 495 704 c 1
 495 632 494 557 494 486 c 1
 494 486 485 492 479 492 c 1
 480 505 478 523 478 541 c 1
 472 547 463 539 461 534 c 1
 459 544 441 557 425 557 c 0
 410 557 409 556 414 550 c 1
 404 561 394 557 381 557 c 0
 366 557 225 538 144 535 c 1
 144 486 137 428 137 379 c 1
 137 379 140 381 147 374 c 1
 160 386 l 1
 161 379 147 374 161 374 c 0
 174 374 229 387 261 400 c 0
 284 410 274 442 277 464 c 1
 277 457 282 451 288 446 c 1
 294 456 305 455 310 468 c 1
 315 450 315 443 316 426 c 0xd120
 320 390 327 325 327 310 c 0xd888
 327 296 319 274 319 263 c 1
 275 299 290 339 259 339 c 0
 244 339 256 333 241 333 c 0
 228 333 220 345 206 345 c 0
 190 345 178 352 149 347 c 1
 154 281 161 150 176 150 c 0
 190 150 200 155 214 155 c 0
 230 155 221 160 215 167 c 1
 226 160 247 162 262 162 c 0
 276 162 269 166 262 171 c 1
 291 166 339 168 353 168 c 0
 367 168 365 165 380 165 c 0
 394 165 449 168 464 168 c 0
 492 168 506 244 510 250 c 1
 518 240 523 215 534 205 c 1xd148
484 680 m 1
 455 680 l 1
 454 668 444 650 431 641 c 1
 450 651 472 667 484 680 c 1
482 646 m 1
 464 628 443 606 435 587 c 1
 466 605 488 630 482 646 c 1
449 685 m 1
 411 681 390 657 361 629 c 1
 393 651 l 1
 411 657 438 680 449 685 c 1
312 672 m 1
 288 687 270 646 248 629 c 1
 266 641 294 660 312 672 c 1
250 675 m 1
 245 670 230 658 231 651 c 1
 243 658 256 670 250 675 c 1
306 564 m 1
 306 604 l 1
 289 592 266 570 248 558 c 1
 277 565 293 564 306 564 c 1
252 603 m 1
 235 591 211 578 194 566 c 1
 210 551 l 1
 210 557 227 560 232 560 c 1
 227 560 228 567 228 567 c 1
 230 578 240 591 252 603 c 1
499 93 m 1
 492 93 498 113 498 119 c 1
 491 119 499 114 484 114 c 0
 470 114 490 126 475 126 c 0xd148
 460 126 457 118 451 118 c 1
 479 108 470 95 499 93 c 1
435 87 m 1
 430 90 l 1
 377 72 283 37 268 37 c 0
 253 37 234 23 224 23 c 1
 230 23 239 19 239 19 c 1
 291 11 369 64 435 87 c 1
EndSplineSet
EndChar

StartChar: F
Encoding: 70 70 5
Width: 567
VWidth: 1050
Flags: W
HStem: -30 20 316 17<220.5 253> 512 21G 513 25<401 429.5> 548 162<297 455 297 455> 585 125
VStem: 123 46<344 497 338 648> 123 214<329 648> 482 57
LayerCount: 2
Back
Fore
SplineSet
539 481 m 1xe680
 533 470 526 444 523 421 c 1
 514 436 505 457 509 474 c 1
 469 498 449 513 410 513 c 2xe580
 169 497 l 1
 184 459 177 474 169 338 c 1
 185 332 214 333 227 333 c 0
 240 333 253 336 264 341 c 0
 288 350 310 394 310 417 c 1
 310 417 318 420 324 420 c 1
 330 397 337 351 337 336 c 0xd680
 337 322 323 258 314 224 c 1
 306 234 301 250 300 261 c 0
 298 284 261 316 245 316 c 0
 230 316 203 311 180 311 c 1
 168 230 157 85 157 70 c 0
 157 38 204 39 213 36 c 0
 219 32 231 26 238 26 c 1
 238 -1 l 1
 174 -7 113 -19 55 -30 c 1
 48 -24 l 1
 48 -3 l 1
 72 12 94 37 121 60 c 1
 122 83 129 111 134 140 c 1
 130 224 l 1
 125 213 115 206 110 194 c 1
 110 204 112 213 118 300 c 1
 100 300 77 293 60 293 c 1
 59 300 70 306 78 313 c 1
 78 313 76 319 70 319 c 1
 88 325 106 332 123 344 c 1
 123 648 l 1
 113 658 l 1
 92 652 59 652 45 652 c 0
 30 652 40 647 40 641 c 1
 33 645 19 656 19 669 c 1
 36 674 59 681 73 681 c 0
 86 681 165 685 199 690 c 0
 231 695 273 699 305 704 c 2
 455 710 l 1
 531 721 l 1
 537 715 539 701 539 481 c 1xe680
469 640 m 1
 446 617 412 590 401 579 c 1
 413 572 457 594 469 640 c 1
482 580 m 1
 476 586 473 594 473 594 c 1
 462 583 449 560 449 554 c 1
 460 560 476 569 482 580 c 1
422 559 m 1
 416 553 401 538 401 538 c 1xd680
 411 537 423 552 422 559 c 1
439 585 m 1
 427 580 386 563 395 546 c 1
 404 551 446 579 439 585 c 1
313 673 m 1
 302 673 287 674 281 675 c 1
 275 663 253 635 235 618 c 1
 259 635 290 656 313 673 c 1
332 548 m 1
 297 548 l 1
 305 518 327 541 332 548 c 1
262 527 m 1
 296 527 l 1xea80
 281 542 l 1
 281 536 267 531 262 527 c 1
174 656 m 1
 169 656 160 652 149 652 c 0
 143 652 142 635 142 623 c 1
 149 635 163 645 174 656 c 1
279 309 m 1
 295 293 l 1
 295 315 l 1
 290 315 279 309 279 309 c 1
EndSplineSet
EndChar

StartChar: G
Encoding: 71 71 6
Width: 623
VWidth: 1050
Flags: W
HStem: -29 44<281.5 294.5 280.5 317> -29 56<258.5 317> 663 21G
VStem: 16 97 16 170 543 59
LayerCount: 2
Back
Fore
SplineSet
602 88 m 0x6c
 602 75 592 22 583 -10 c 1
 575 -16 553 -17 543 -23 c 1
 546 56 557 152 537 215 c 1
 531 215 530 216 526 211 c 1
 530 196 520 139 511 122 c 0
 506 110 487 97 476 83 c 0
 413 -1 346 -29 288 -29 c 0
 275 -29 221 -16 195 -5 c 0
 184 0 174 21 160 21 c 0
 147 21 154 10 141 10 c 0
 130 10 104 48 92 61 c 0
 22 142 16 198 16 258 c 0
 16 336 40 408 62 477 c 0
 70 502 104 548 130 576 c 0
 149 597 186 639 217 659 c 0
 254 684 303 684 334 684 c 0
 347 684 392 665 411 648 c 0
 418 642 429 620 432 605 c 0
 433 599 433 590 448 590 c 0
 461 590 457 590 462 595 c 1
 462 584 453 582 442 571 c 1
 453 566 470 565 513 560 c 1
 481 554 414 534 401 534 c 0
 388 534 382 541 371 542 c 1
 350 575 370 617 350 650 c 1
 328 652 288 650 273 650 c 0
 253 650 177 583 177 568 c 0
 177 559 184 460 186 405 c 0
 189 294 199 179 213 63 c 0
 214 52 216 19 230 10 c 1
 240 9 252 27 265 27 c 0
 279 27 273 15 288 15 c 0xb4
 301 15 316 21 332 26 c 0
 338 31 331 34 326 34 c 1
 369 56 442 118 442 173 c 2
 442 188 l 1
 410 192 370 206 331 216 c 1
 337 222 343 230 343 235 c 1
 349 235 348 230 362 230 c 0
 374 230 392 242 406 242 c 0
 420 242 497 248 511 248 c 0
 524 248 537 252 556 250 c 0
 562 248 573 241 579 241 c 1
 585 191 602 101 602 88 c 0x6c
150 496 m 1
 171 515 l 1
 166 521 164 530 164 530 c 1
 153 519 150 502 150 496 c 1
158 374 m 1
 147 352 100 332 117 303 c 1
 132 325 164 354 158 374 c 1
164 313 m 1
 158 308 143 278 143 272 c 1
 170 275 164 308 164 313 c 1
71 390 m 1
 60 390 l 1
 56 386 50 364 52 352 c 1
 57 364 66 378 71 390 c 1
378 38 m 2
 378 32 359 34 353 28 c 1
 374 28 l 1
 379 32 378 38 378 38 c 2
57 231 m 1
 71 244 l 1
 67 255 64 270 64 275 c 1
 62 262 57 241 57 231 c 1
EndSplineSet
EndChar

StartChar: H
Encoding: 72 72 7
Width: 638
VWidth: 1050
Flags: W
HStem: -10 20 244 19 322 17 322 22<160.5 182> 339 16<367.5 382> 339 22 588 38<94.5 118 94.5 145> 588 43
VStem: 169 47 171 30 179 52 182 30<286.5 297 286.5 322 286.5 322> 382 16 384 25 384 154 386 221<627 633 633 633>
LayerCount: 2
Back
Fore
SplineSet
607 647 m 1xd211
 607 627 l 1
 596 622 577 620 560 626 c 1
 549 615 547 606 540 595 c 1
 538 112 l 1xca11
 544 107 542 103 547 98 c 1
 560 109 l 1
 554 91 544 73 539 62 c 1
 543 55 544 48 558 48 c 0
 570 48 574 54 583 60 c 1
 593 57 l 1
 590 47 570 37 563 28 c 1
 526 27 445 15 431 15 c 0
 418 15 402 10 386 5 c 1xc518
 380 57 387 162 382 264 c 0xd248
 380 289 390 339 374 339 c 0
 361 339 308 333 293 333 c 2
 273 333 l 2
 261 333 235 328 218 328 c 1
 212 317 212 303 212 291 c 0
 212 282 217 264 216 248 c 0xd228
 210 159 190 83 210 24 c 1
 214 34 210 45 210 57 c 1
 228 40 242 19 258 3 c 1
 258 3 250 2 245 8 c 1
 235 -3 220 -10 206 -10 c 0
 192 -10 126 -13 98 -8 c 1
 114 16 165 20 171 60 c 1xe218
 165 85 166 127 169 154 c 0xd288
 171 190 181 256 182 270 c 2xd248
 182 322 l 1
 149 325 121 324 82 324 c 1
 93 330 110 339 123 339 c 0
 137 339 153 344 168 344 c 0xd288
 181 344 176 348 179 353 c 0
 181 393 175 445 179 486 c 0
 181 501 171 518 171 535 c 0xe218
 171 551 175 568 187 584 c 1
 180 590 160 588 145 588 c 2
 118 588 l 2
 107 588 94 593 80 593 c 1
 68 582 l 1
 62 588 54 591 60 596 c 1
 60 608 50 604 46 605 c 2
 39 605 l 1
 39 614 l 1
 55 614 88 626 101 626 c 0
 115 626 198 631 211 631 c 0xd211
 212 631 250 650 220 356 c 1
 220 356 209 350 223 350 c 0
 236 350 304 361 317 361 c 2
 332 361 l 2
 347 361 342 355 356 355 c 2xd212
 386 355 l 1
 386 633 l 1
 376 638 358 640 347 639 c 1
 429 652 434 665 532 665 c 0
 543 665 564 642 594 650 c 1
 594 650 601 651 607 647 c 1xd211
485 244 m 1
 465 244 l 1
 453 228 442 207 430 190 c 1
 448 207 469 227 485 244 c 1
483 307 m 1
 476 296 458 273 459 263 c 1
 470 273 483 295 483 307 c 1
449 450 m 1
 438 455 405 426 399 426 c 1
 399 420 411 405 411 399 c 1
 417 405 444 445 449 450 c 1
520 371 m 1
 515 342 497 303 491 278 c 1
 536 310 514 349 520 371 c 1
500 355 m 1
 489 344 480 329 478 323 c 1
 491 333 500 350 500 355 c 1
422 389 m 1
 417 383 403 376 397 376 c 1
 397 371 407 355 412 355 c 1
 417 367 424 383 422 389 c 1
529 246 m 1
 521 278 l 1
 515 261 502 238 504 229 c 1
 510 233 523 246 529 246 c 1
406 322 m 2
 406 328 409 338 398 344 c 1
 398 332 406 322 406 322 c 2
429 316 m 1
 417 305 402 293 398 281 c 1
 398 262 l 1
 410 278 423 300 429 316 c 1
521 217 m 1
 510 197 485 130 480 109 c 1
 497 144 532 193 521 217 c 1
484 190 m 1
 467 169 444 121 430 103 c 1
 447 125 481 151 484 190 c 1
434 244 m 1
 414 233 400 198 403 188 c 1
 414 198 429 227 434 244 c 1
526 109 m 1
 514 92 500 65 495 49 c 1
 512 58 528 100 526 109 c 1
522 167 m 1
 494 134 472 67 450 38 c 1
 471 38 l 1
 493 70 511 139 522 167 c 1
435 177 m 1
 430 177 414 172 409 172 c 1xd214
 409 161 409 114 409 104 c 1
 413 114 430 166 435 177 c 1
417 66 m 1
 417 77 410 81 410 81 c 1
 404 75 404 62 404 59 c 1
 404 68 417 66 417 66 c 1
EndSplineSet
EndChar

StartChar: I
Encoding: 73 73 8
Width: 545
VWidth: 1050
Flags: W
HStem: -16 20 1 38 6 138<104 246> 139 16 142 13<443 443> 530 110<194.5 207> 541 99<172.5 209> 629 20G<399 399>
VStem: 35 238<459.5 501> 236 37 236 50 236 217<235 528> 440 67<102 157>
LayerCount: 2
Back
Fore
SplineSet
507 150 m 0x5148
 507 136 501 73 490 29 c 1
 455 29 423 1 416 1 c 0
 402 1 333 6 319 6 c 0x8928
 306 6 274 10 265 -8 c 1
 265 -8 260 -10 254 -16 c 1
 254 -10 253 6 239 6 c 0
 226 6 138 1 33 1 c 1x9448
 32 8 45 22 52 32 c 0
 60 43 60 61 60 75 c 0
 60 85 59 110 48 120 c 1
 48 120 43 120 32 126 c 1
 60 129 61 159 63 170 c 0
 65 179 80 198 86 210 c 1
 85 208 85 144 104 144 c 0x9110
 117 144 147 144 164 144 c 1
 178 155 l 1x9288
 200 153 210 154 221 154 c 1
 227 182 230 208 236 235 c 1
 234 498 l 1
 225 508 l 1
 181 503 139 490 95 484 c 1
 80 468 55 430 44 397 c 1
 38 417 35 452 35 467 c 0x9110
 35 479 42 562 45 611 c 1
 58 620 75 625 98 624 c 1
 110 634 l 1
 134 634 174 640 189 640 c 2
 209 640 l 2
 221 640 281 627 297 651 c 1
 399 649 l 1xa148
 411 642 435 633 457 650 c 1
 454 631 462 603 465 583 c 0
 467 569 453 544 453 528 c 0
 453 500 453 464 453 436 c 1
 437 464 424 497 402 530 c 1x5148
 370 526 326 513 282 510 c 0
 276 508 273 508 273 494 c 0
 273 480 290 428 295 394 c 1
 290 339 290 231 286 160 c 1xa148
 335 160 410 155 465 155 c 1
 482 173 483 210 479 228 c 1
 481 227 490 232 495 232 c 1
 501 205 507 164 507 150 c 0x5148
438 629 m 1
 371 630 350 620 335 586 c 1
 386 618 l 1
 394 610 l 1
 390 598 372 585 365 575 c 1
 391 590 443 601 438 629 c 1
329 622 m 1
 323 622 323 630 309 630 c 0
 296 630 278 604 263 587 c 1
 285 597 311 616 329 622 c 1
305 551 m 1
 293 541 279 532 268 526 c 1
 293 526 l 1
 299 530 305 547 305 551 c 1
240 610 m 1
 234 616 233 623 233 623 c 1
 213 623 l 1
 210 603 184 570 177 558 c 1
 202 575 229 593 240 610 c 1
195 612 m 1
 178 602 163 583 152 570 c 1
 169 575 184 595 195 612 c 1
233 540 m 1
 223 540 213 530 201 530 c 0x8a48
 188 530 193 541 179 541 c 0x9448
 166 541 157 526 151 521 c 1
 163 521 183 525 228 520 c 1
 228 525 233 534 233 540 c 1
77 608 m 1
 71 602 64 601 58 601 c 1
 58 590 65 575 66 569 c 1
 70 580 83 599 77 608 c 1
440 102 m 1
 443 142 l 1
 393 141 331 144 282 139 c 1x5148
 282 117 l 1
 288 122 291 119 297 125 c 1
 303 119 298 111 298 106 c 0
 298 100 312 105 324 110 c 1
 335 108 l 1
 325 91 321 83 303 68 c 1
 330 90 341 92 369 109 c 1
 372 84 355 96 346 71 c 1
 368 83 394 112 410 122 c 1
 415 116 413 113 413 113 c 1
 407 99 370 58 373 39 c 1
 398 56 424 80 440 102 c 1
230 74 m 1
 230 89 l 1
 211 68 191 47 185 29 c 1
 204 40 226 58 230 74 c 1
172 121 m 1
 135 94 99 63 82 40 c 1
 110 50 164 111 172 121 c 1
EndSplineSet
EndChar

StartChar: J
Encoding: 74 74 9
Width: 535
VWidth: 1050
Flags: W
HStem: -17 20 32 188<89 152.5 89 235.5> 38 182<158 163 89 201.5> 38 193<149.5 158 83 163 83 201.5> 624 27<478.5 480.5> 641 21G
VStem: 76 105<48 194> 137 44 313 14 313 126 320 11<238.5 247 238.5 250> 320 138<238 278> 434 19
LayerCount: 2
Back
Fore
SplineSet
523 641 m 1xc928
 510 642 487 624 474 624 c 0xc588
 460 624 450 625 435 619 c 1
 446 574 450 527 453 471 c 0
 456 428 450 352 474 346 c 1
 445 275 458 294 458 262 c 0xc928
 458 250 448 238 442 222 c 0
 435 201 435 173 443 151 c 0
 441 146 441 134 439 129 c 0xc528
 441 124 447 119 451 119 c 1
 435 97 417 49 412 22 c 1
 407 22 399 32 394 38 c 1
 374 23 339 -17 325 -17 c 0
 311 -17 310 -7 305 -3 c 0
 283 1 261 -1 242 1 c 1
 219 16 170 38 156 38 c 0
 143 38 159 32 146 32 c 0xa528
 133 32 122 46 111 50 c 0
 99 56 97 70 91 79 c 0
 80 98 76 138 76 151 c 2
 76 194 l 1
 66 200 49 207 32 218 c 1
 49 223 76 231 90 231 c 0x9528
 104 231 82 220 96 220 c 0xc528
 108 220 137 231 151 231 c 0x9528
 165 231 151 220 165 220 c 0xc628
 177 220 199 217 204 211 c 1
 198 207 186 205 175 205 c 1
 175 154 181 103 181 48 c 1
 187 42 182 38 195 38 c 0
 208 38 214 32 229 32 c 0xa540
 242 32 231 21 245 21 c 0
 330 21 312 164 312 190 c 0
 312 205 320 231 320 245 c 0
 320 255 308 361 307 422 c 0
 306 455 322 520 296 558 c 0
 288 570 264 588 239 593 c 0
 230 596 209 596 178 590 c 1
 172 596 176 598 182 604 c 1
 171 610 154 613 143 609 c 1
 190 636 249 636 309 641 c 0
 356 646 432 662 447 662 c 0
 460 662 471 651 486 651 c 0xc510
 499 651 505 651 510 656 c 1
 515 651 523 647 523 641 c 1xc928
434 442 m 1
 429 464 427 485 421 496 c 1
 421 480 415 458 410 442 c 1
 415 447 429 447 434 442 c 1
328 557 m 1
 322 551 314 549 314 549 c 1
 320 544 322 538 322 532 c 1
 322 543 333 551 328 557 c 1
434 358 m 1
 413 338 l 1
 425 338 434 347 434 358 c 1
435 390 m 1
 405 379 398 372 384 352 c 0
 368 329 367 281 367 281 c 1
 385 319 415 366 435 390 c 1
435 296 m 1
 411 286 393 242 384 232 c 1
 403 249 418 274 435 296 c 1
334 297 m 2
 334 303 337 313 327 319 c 1
 327 309 334 297 334 297 c 2
428 236 m 1
 422 227 410 204 403 193 c 1
 427 208 429 227 428 236 c 1
339 287 m 1
 333 281 332 265 332 259 c 1
 338 265 345 281 339 287 c 1
352 247 m 1
 331 247 l 1xc528
 331 230 336 215 341 215 c 1
 338 232 341 239 352 247 c 1
347 169 m 1
 327 168 340 190 340 192 c 1
 334 187 330 168 325 156 c 1
 330 150 341 163 347 169 c 1
339 135 m 1
 327 135 l 1xc588
 327 112 l 2
 328 118 341 131 339 135 c 1
140 182 m 1
 146 187 143 203 127 203 c 1
 132 186 140 182 140 182 c 1
170 50 m 1
 170 55 168 64 168 64 c 2
 165 70 154 70 143 70 c 1
 149 59 164 50 170 50 c 1
137 62 m 1
 130 78 127 75 110 81 c 1
 114 70 130 59 137 62 c 1
EndSplineSet
EndChar

StartChar: K
Encoding: 75 75 10
Width: 586
VWidth: 1050
Flags: W
HStem: 577 59<187 200> 645 30
VStem: 125 44<175 245> 125 243<366.5 378.5 366.5 433 366.5 433> 150 19<194 238 238 238> 150 230<216 222 216 238 216 238>
LayerCount: 2
Back
Fore
SplineSet
602 643 m 1xc8
 522 665 469 499 390 440 c 1
 395 434 400 430 404 424 c 0
 428 310 423 164 428 61 c 1
 454 30 492 19 534 6 c 1
 529 0 517 -3 504 -3 c 0
 490 -3 453 8 440 8 c 2
 424 12 l 2
 411 12 402 2 390 2 c 0
 360 2 336 4 326 -26 c 1
 314 -26 300 -13 289 -13 c 1
 292 -3 305 4 313 11 c 1
 310 50 318 167 318 180 c 0
 318 192 301 275 297 325 c 1
 301 330 307 336 312 341 c 1
 312 355 l 1
 306 355 l 1
 270 319 210 272 169 245 c 1
 169 113 l 2
 169 102 180 86 181 70 c 0
 180 64 179 52 177 47 c 2
 177 47 180 43 174 37 c 1
 190 31 213 33 233 39 c 1
 233 39 240 29 240 24 c 1
 229 24 212 19 196 13 c 1
 202 9 207 2 207 -4 c 1
 197 -10 176 -16 161 -12 c 1
 151 -19 150 -38 139 -54 c 1
 134 -54 125 -49 120 -49 c 1
 120 -24 129 -5 94 -5 c 0
 82 -5 79 -5 43 -10 c 1
 37 1 30 21 25 27 c 1
 30 27 30 29 45 29 c 0
 59 29 97 45 115 65 c 1
 113 98 125 162 125 175 c 2xc4
 125 433 l 1
 90 482 156 604 53 604 c 1
 52 609 67 619 77 621 c 0
 93 624 119 630 132 630 c 2
 150 625 l 2xe0
 162 625 181 636 193 636 c 0
 208 636 230 622 246 616 c 1
 240 616 230 608 217 611 c 1
 206 597 207 577 193 577 c 0
 179 577 174 590 161 591 c 1
 161 498 161 404 172 299 c 1
 235 360 324 438 397 495 c 0
 415 509 445 601 459 622 c 1
 453 628 454 631 452 637 c 1
 432 644 414 650 398 656 c 1
 470 656 552 675 567 675 c 0
 579 675 598 653 602 643 c 1xc8
411 278 m 1
 406 322 397 377 387 410 c 1
 381 397 368 384 368 373 c 0xd0
 368 360 376 360 376 360 c 2
 376 366 386 376 391 376 c 0
 397 370 395 368 395 368 c 1
 390 357 379 337 382 333 c 0
 390 319 380 291 385 271 c 1
 390 271 406 278 411 278 c 1
362 346 m 1
 356 351 353 360 353 360 c 1
 348 343 336 327 336 315 c 1
 342 327 350 335 362 346 c 1
380 216 m 1xc4
 401 235 l 1
 395 241 393 254 393 260 c 1
 388 250 380 228 380 216 c 1xc4
398 210 m 1
 393 199 384 182 387 171 c 1
 394 183 398 195 398 210 c 1
414 59 m 2
 411 160 l 1
 399 155 388 80 383 69 c 1
 396 79 l 1
 401 73 404 71 404 66 c 0
 399 55 393 42 388 30 c 1
 393 30 404 36 410 36 c 1
 404 42 415 45 414 59 c 2
350 150 m 1
 350 162 342 167 336 171 c 1
 336 171 334 152 329 147 c 1
 334 142 339 150 350 150 c 1
150 194 m 1
 150 238 l 1
 145 227 136 211 136 200 c 1
 142 200 150 194 150 194 c 1
EndSplineSet
EndChar

StartChar: L
Encoding: 76 76 11
Width: 586
VWidth: 1050
Flags: W
HStem: -8 20 -1 130 -1 171 -1 186 6 14 6 136 633 34<238 252>
VStem: 106 68 111 61 129 43
LayerCount: 2
Back
Fore
SplineSet
552 185 m 0x1240
 552 170 547 181 542 175 c 1
 540 142 535 102 539 71 c 0
 541 56 538 17 544 1 c 1
 450 -6 333 10 241 6 c 0x1240
 220 5 197 -4 174 0 c 1
 169 -4 163 -3 158 -8 c 1x23
 120 -3 55 -12 10 -7 c 1
 24 8 l 1
 34 8 41 13 47 14 c 0
 52 12 57 13 71 13 c 0
 103 13 103 138 106 170 c 0x8240
 110 215 132 275 112 302 c 0
 110 305 112 319 111 330 c 0x8280
 108 380 129 535 129 549 c 2x23
 129 569 l 1
 113 575 103 583 91 599 c 1
 75 602 47 603 35 609 c 1
 48 622 l 1
 59 622 75 622 75 622 c 1
 81 628 69 632 69 638 c 1
 148 645 167 667 259 667 c 0
 272 667 278 664 322 659 c 1
 306 653 289 656 261 656 c 1
 261 650 256 653 250 648 c 1
 267 642 291 637 311 631 c 1
 302 626 284 619 275 625 c 0
 266 630 259 633 245 633 c 0
 231 633 228 634 222 632 c 1
 218 619 195 609 180 596 c 1
 177 547 175 430 172 386 c 0
 170 352 164 317 158 278 c 1
 164 284 170 294 175 294 c 1
 175 289 170 250 174 168 c 1x8240
 174 158 l 1
 245 170 402 170 416 170 c 0
 428 170 431 170 451 168 c 1
 462 158 468 185 480 185 c 0x07
 491 185 508 199 517 215 c 1
 519 232 515 256 515 284 c 1
 521 278 530 270 531 265 c 0
 534 240 552 198 552 185 c 0x1240
434 148 m 1
 424 148 410 154 405 154 c 1
 410 149 406 134 406 129 c 1x4240
 416 134 430 148 434 148 c 1
484 46 m 1
 478 41 470 38 464 32 c 1
 470 27 478 24 478 24 c 1
 484 30 484 41 484 46 c 1
307 142 m 1
 314 150 l 1
 287 142 l 1x0640
 307 142 l 1
363 51 m 1
 357 46 344 35 328 35 c 1
 314 20 l 1x0a40
 340 20 l 1
 351 30 363 46 363 51 c 1
275 116 m 1
 265 116 252 105 249 97 c 1
 254 97 270 110 275 116 c 1
253 139 m 1
 231 128 205 102 193 86 c 1
 210 97 236 123 253 139 c 1
204 128 m 1
 184 128 l 1
 144 86 l 1
 160 97 188 116 204 128 c 1
EndSplineSet
EndChar

StartChar: M
Encoding: 77 77 12
Width: 710
VWidth: 1050
Flags: W
HStem: -15 20 645 21G
VStem: 119 41 528 90
LayerCount: 2
Back
Fore
SplineSet
696 31 m 1
 674 27 625 26 612 26 c 0
 601 26 535 20 494 16 c 0
 480 15 462 10 448 0 c 1
 443 5 430 12 425 18 c 1
 430 23 430 20 443 20 c 0
 454 20 491 56 495 85 c 0
 506 161 505 244 509 326 c 0
 509 335 504 351 506 362 c 0
 513 410 528 492 528 506 c 2
 528 560 l 1
 520 569 l 1
 485 502 445 428 397 361 c 0
 369 321 320 277 284 230 c 1
 274 240 263 254 257 270 c 0
 248 295 234 327 221 366 c 0
 212 393 210 449 188 479 c 1
 190 492 181 509 171 523 c 1
 162 463 163 387 160 315 c 0
 158 278 154 228 154 187 c 0
 154 184 149 175 149 161 c 0
 149 150 160 127 162 113 c 0
 165 85 163 50 158 19 c 1
 176 14 205 13 230 9 c 1
 214 -10 197 -10 182 -10 c 0
 169 -10 174 -15 161 -15 c 0
 149 -15 66 -3 15 2 c 1
 29 7 48 10 63 5 c 1
 69 10 61 13 56 18 c 1
 65 23 75 20 87 20 c 0
 110 20 118 40 119 53 c 0
 127 162 127 274 130 387 c 0
 131 406 132 433 132 459 c 0
 132 464 128 469 124 473 c 1
 129 514 126 556 129 597 c 0
 130 610 144 630 145 641 c 1
 180 650 238 661 250 661 c 0
 262 661 281 654 291 654 c 1
 287 650 282 638 282 626 c 0
 282 614 287 570 293 547 c 0
 311 478 335 415 356 349 c 1
 396 410 448 480 490 537 c 0
 499 549 504 575 514 593 c 0
 524 611 549 635 561 635 c 0
 573 635 565 630 570 630 c 0
 575 635 574 637 579 643 c 1
 564 646 533 642 513 636 c 1
 513 641 509 653 513 666 c 1
 565 666 610 670 645 666 c 1
 645 660 635 658 631 652 c 0
 630 630 633 600 631 567 c 0
 630 515 620 464 618 412 c 0
 614 339 610 155 594 45 c 1
 613 40 669 46 682 46 c 0
 694 46 696 36 696 31 c 1
612 626 m 1
 601 604 586 579 574 565 c 1
 594 577 623 604 612 626 c 1
617 549 m 1
 615 534 620 517 605 506 c 1
 605 480 608 446 607 420 c 1
 612 461 617 508 617 549 c 1
592 497 m 1
 587 476 587 456 582 438 c 1
 582 446 589 447 591 449 c 0
 593 462 592 482 592 497 c 1
256 617 m 1
 250 623 248 630 248 630 c 2
 248 626 227 603 227 597 c 1
 232 603 256 617 256 617 c 1
236 529 m 1
 276 566 l 1
 271 581 264 597 264 612 c 1
 264 602 257 590 251 580 c 1
 257 585 250 576 256 571 c 1
 246 555 247 545 236 529 c 1
187 641 m 1
 182 635 174 633 174 633 c 1
 179 629 181 620 181 620 c 1
 187 626 191 635 187 641 c 1
291 490 m 0
 291 502 284 502 284 502 c 1
 279 492 272 477 268 467 c 1
 277 477 291 476 291 490 c 0
302 442 m 1
 297 448 295 461 295 467 c 1
 290 456 278 436 272 427 c 1
 282 431 297 442 302 442 c 1
191 538 m 1
 187 533 185 524 185 524 c 1
 190 524 197 533 191 538 c 1
317 396 m 1
 311 406 305 420 305 426 c 1
 300 410 288 390 288 380 c 1
 297 385 312 396 317 396 c 1
340 330 m 1
 340 356 334 384 325 405 c 1
 328 381 307 369 307 359 c 0
 307 357 315 351 314 333 c 1
 319 344 324 351 330 356 c 1
 335 346 336 342 340 330 c 1
EndSplineSet
EndChar

StartChar: N
Encoding: 78 78 13
Width: 559
VWidth: 1050
Flags: W
HStem: -31 20 -1 31<94 118.5> 604 21G<405.5 409 396.5 413> 604 41<411.5 413> 610 15<381.5 409>
VStem: 131 28 131 138 147 41 157 140 278 19 331 43 364 92 456 56<539 543>
LayerCount: 2
Back
Fore
SplineSet
550 632 m 1xcc68
 534 626 541 627 527 618 c 0
 514 610 508 586 497 565 c 0
 497 560 507 557 512 557 c 1
 512 539 l 2
 513 528 485 462 480 431 c 0
 475 397 479 340 473 273 c 0
 468 216 451 111 451 99 c 0
 451 88 470 61 487 35 c 1
 483 38 429 25 475 8 c 1
 475 8 452 10 439 10 c 0
 427 10 395 -1 344 -1 c 1
 340 21 322 29 364 22 c 1xd468
 338 73 314 148 265 199 c 1
 265 199 269 192 269 180 c 0
 269 169 271 170 281 154 c 1
 287 160 292 150 292 137 c 1
 285 122 l 1
 259 189 228 261 197 322 c 1
 192 317 190 314 188 309 c 0xcc50
 190 263 183 214 175 169 c 1
 172 173 171 169 167 178 c 1
 161 173 159 174 159 161 c 2xe450
 159 119 l 2
 159 115 164 129 170 141 c 2
 175 148 l 1
 178 132 170 102 170 89 c 0
 170 75 188 30 200 30 c 0
 235 30 270 46 275 50 c 1
 275 50 282 41 282 36 c 1
 230 14 143 25 121 -31 c 1
 115 -24 124 -1 113 -1 c 0
 99 -1 69 1 59 -11 c 1
 55 -2 36 6 26 11 c 1
 36 17 41 35 54 35 c 0
 67 35 88 30 100 30 c 0
 111 30 121 48 127 59 c 0
 132 70 139 109 131 126 c 1
 139 207 147 293 147 370 c 1xc8a8
 147 366 145 363 151 357 c 1
 151 410 l 1
 151 410 151 404 156 399 c 1
 164 408 160 435 157 444 c 0xc950
 159 448 165 590 160 594 c 2
 154 603 l 1
 182 610 173 639 177 650 c 1
 185 630 205 621 220 607 c 0
 273 557 317 456 342 403 c 0
 352 380 368 333 381 305 c 0
 380 299 380 293 374 289 c 1
 379 283 389 274 397 273 c 1
 404 255 412 230 428 210 c 1
 434 240 439 265 443 299 c 0
 450 376 456 517 456 530 c 0xcc50
 456 556 457 593 424 614 c 1
 413 604 l 1
 398 604 400 610 388 610 c 0xc950
 375 610 365 618 354 629 c 1
 370 629 390 625 403 625 c 0
 415 625 405 645 418 645 c 0xca50
 430 645 436 630 449 630 c 0
 462 630 503 640 515 640 c 0
 527 640 530 632 550 632 c 1xcc68
198 563 m 1
 195 574 205 601 191 619 c 1
 190 604 193 576 198 563 c 1
256 504 m 1
 251 510 246 521 246 527 c 1
 240 527 230 526 231 513 c 2
 231 492 l 1
 237 492 251 499 256 504 c 1
352 317 m 1
 352 335 l 1
 344 361 334 393 326 412 c 0
 306 460 276 510 252 548 c 1
 269 511 297 448 297 435 c 0
 297 422 297 427 292 422 c 1
 297 417 300 397 312 385 c 1
 319 384 324 380 327 375 c 0
 332 354 341 337 352 317 c 1
280 410 m 1
 280 419 277 432 278 437 c 0
 277 443 268 445 268 445 c 1
 272 434 275 419 280 410 c 1
297 364 m 1
 297 374 290 386 290 391 c 1
 290 386 283 379 283 359 c 1
 288 359 297 364 297 364 c 1
318 289 m 1
 331 276 l 1
 331 287 326 300 326 304 c 1
 326 299 323 294 318 289 c 1
250 306 m 2
 226 284 l 1
 230 278 233 270 233 270 c 1
 238 281 245 296 250 306 c 2
290 178 m 1
 290 189 287 198 285 201 c 0
 281 203 272 203 272 203 c 1
 283 192 290 184 290 178 c 1
358 137 m 1
 351 133 338 121 338 110 c 0
 338 96 346 91 346 89 c 1
 356 107 353 127 358 137 c 1
EndSplineSet
EndChar

StartChar: O
Encoding: 79 79 14
Width: 491
VWidth: 1050
Flags: W
HStem: -3 46<198 200 181.5 210.5> 597 46<220.5 227.5 170.5 233.5> 607 36<170.5 240>
VStem: 7 139 20 114 130 16 281 25 291 15<466 491 464 520> 291 84<473.5 485 473.5 520 473.5 520> 293 11
LayerCount: 2
Back
Fore
SplineSet
416 273 m 0xd1
 416 262 413 204 408 173 c 0
 404 154 386 131 376 112 c 0
 325 44 295 47 298 8 c 1
 284 6 281 10 275 23 c 1
 254 12 217 -3 204 -3 c 0
 192 -3 158 7 132 17 c 1
 121 7 l 1
 116 23 96 43 86 58 c 1
 81 50 83 40 89 30 c 1
 81 22 l 1
 65 29 80 57 71 75 c 0
 67 86 53 102 50 111 c 0
 44 137 31 163 25 189 c 0
 22 202 22 228 14 246 c 1
 17 250 11 260 13 265 c 1
 13 265 7 258 7 271 c 0
 7 283 18 297 20 312 c 0xa880
 23 338 24 364 27 388 c 0
 29 400 23 405 23 415 c 1
 29 427 60 440 51 459 c 1
 38 459 l 1
 109 532 134 643 207 643 c 0
 248 643 237 631 298 605 c 1
 319 572 345 545 368 522 c 0
 370 519 363 510 368 505 c 1
 373 510 386 514 396 513 c 1
 390 503 375 491 375 479 c 0
 375 468 390 453 394 439 c 0
 407 386 416 287 416 273 c 0xd1
306 491 m 2
 306 464 l 1xc5
 315 473 307 487 306 491 c 2
381 400 m 1
 370 403 l 1
 357 391 339 372 336 361 c 1
 351 376 370 390 381 400 c 1
324 447 m 1
 296 447 304 407 302 391 c 1
 302 397 309 399 310 403 c 0
 309 405 309 414 310 419 c 0
 318 428 320 442 324 447 c 1
384 381 m 1
 369 361 339 329 330 310 c 1
 348 331 384 361 384 381 c 1
329 381 m 1
 313 366 295 350 295 340 c 1
 306 350 323 370 329 381 c 1
121 561 m 1
 117 550 110 535 114 530 c 1
 122 540 127 555 121 561 c 1
390 321 m 1
 390 346 l 1
 369 320 335 279 315 249 c 1
 341 279 370 306 390 321 c 1
324 329 m 1
 319 329 306 325 300 330 c 1
 300 320 301 305 301 294 c 1
 306 305 319 318 324 329 c 1
390 260 m 1
 384 284 l 1
 358 258 330 223 310 192 c 1
 335 212 365 245 390 260 c 1
293 189 m 0
 293 201 290 230 286 240 c 1
 286 212 281 187 275 161 c 1
 270 166 273 170 268 174 c 1
 281 293 282 395 281 514 c 1xc9
 287 499 291 481 291 466 c 2xc5
 291 520 l 1
 288 516 l 2
 288 519 288 522 287 528 c 0
 290 538 288 549 290 553 c 0
 278 573 246 607 234 607 c 0
 222 607 240 597 227 597 c 0xa5
 214 597 210 612 204 622 c 1
 184 602 154 580 140 559 c 1
 140 537 l 1
 145 531 150 532 155 528 c 1
 136 512 139 476 146 461 c 1
 140 430 134 373 134 364 c 0xc6
 134 350 143 261 146 214 c 0xc440
 148 196 143 172 143 158 c 0
 143 143 143 118 148 105 c 1
 147 114 150 125 156 130 c 1
 153 103 154 76 140 67 c 1
 157 43 170 43 193 43 c 0
 207 43 222 48 234 48 c 0
 248 48 270 53 276 59 c 0
 288 94 293 150 293 189 c 0
384 238 m 1
 362 204 338 167 329 141 c 1
 359 182 389 203 384 238 c 1
130 469 m 0
 130 481 127 484 122 489 c 1
 101 458 79 423 69 397 c 1
 90 414 130 450 130 469 c 0
344 201 m 1
 326 181 294 162 307 140 c 1
 317 161 333 186 344 201 c 1
130 368 m 1
 124 383 128 402 128 412 c 1
 107 376 78 332 64 305 c 1
 90 330 114 357 130 368 c 1
329 119 m 1
 323 114 310 109 305 109 c 1
 311 84 l 1
 316 94 323 109 329 119 c 1
123 345 m 1
 103 314 85 279 69 249 c 1
 90 269 111 290 117 306 c 0
 121 315 117 335 123 345 c 1
104 259 m 1
 123 259 l 1
 129 269 122 287 122 287 c 1
 122 287 110 270 104 259 c 1
128 243 m 1
 113 220 95 182 90 156 c 1
 123 180 130 226 128 243 c 1
132 176 m 1
 127 155 99 116 99 107 c 0
 99 94 106 94 106 94 c 1
 122 114 138 153 132 176 c 1
EndSplineSet
EndChar

StartChar: P
Encoding: 80 80 15
Width: 432
VWidth: 1050
Flags: W
HStem: -25 20 -22 25 584 30
VStem: 30 133 96 67 103 322 120 48 327 93<517.5 523 517.5 548> 327 98<482.5 495 482.5 548> 434 16<468 468>
LayerCount: 2
Back
Fore
SplineSet
450 468 m 0x62c0
 450 432 378 375 356 361 c 0
 352 359 351 337 340 337 c 0
 327 337 336 348 330 343 c 0
 279 332 229 317 183 308 c 1
 177 271 168 214 168 201 c 0
 168 189 171 152 176 122 c 1
 182 127 183 136 188 136 c 1
 189 97 185 40 157 12 c 1
 189 12 123 -1 179 5 c 1
 187 -4 233 20 196 -4 c 1
 211 -8 212 -14 230 -22 c 1
 209 -25 205 -22 191 -22 c 0
 180 -22 143 -17 133 -19 c 0
 103 -22 66 -30 34 -25 c 1xb140
 30 -19 60 -21 82 -17 c 1
 67 -5 106 -4 123 -2 c 1
 123 12 127 42 127 52 c 0
 127 64 119 71 118 83 c 0
 114 114 123 150 120 186 c 0
 118 209 115 245 112 273 c 0
 111 289 101 310 101 323 c 0
 107 367 101 427 103 473 c 0xa440
 101 478 97 476 92 476 c 1
 90 483 96 494 103 500 c 1
 99 530 90 585 101 591 c 1
 93 599 l 1
 89 593 86 593 73 593 c 0
 62 593 57 589 46 584 c 1
 46 589 34 596 30 601 c 1xa2c0
 34 607 40 614 52 614 c 0
 64 614 113 637 145 643 c 0
 181 650 270 650 283 650 c 0
 294 650 319 630 335 626 c 0
 429 597 450 522 450 468 c 0x62c0
434 468 m 1
 427 502 424 538 401 573 c 1
 396 563 385 548 385 543 c 1
 393 556 407 549 410 549 c 1
 399 533 389 518 379 508 c 1
 389 512 399 527 411 527 c 0
 425 527 420 523 420 523 c 1
 420 512 415 503 410 498 c 1
 414 498 425 501 425 489 c 0xa8c0
 425 476 410 456 399 446 c 1
 410 452 430 458 434 468 c 1
382 490 m 1
 361 482 353 459 354 450 c 1
 360 460 377 480 382 490 c 1
393 465 m 1
 375 455 360 437 354 414 c 1
 365 430 383 454 393 465 c 1
327 540 m 0
 327 556 321 571 319 582 c 1
 302 595 237 614 211 614 c 0
 200 614 178 609 163 609 c 1
 163 494 l 2
 163 482 174 405 174 364 c 1
 194 369 221 373 232 373 c 0
 245 373 225 363 237 363 c 0
 250 363 295 369 321 374 c 1
 321 394 327 417 327 540 c 0
148 386 m 1
 139 390 l 1
 127 383 124 351 124 348 c 1
 130 363 138 383 148 386 c 1
125 343 m 1
 119 337 123 328 120 323 c 1xa2c0
 128 328 130 337 125 343 c 1
134 307 m 1
 134 301 122 307 122 293 c 0
 122 281 130 259 130 250 c 1
 136 278 135 283 134 307 c 1
EndSplineSet
EndChar

StartChar: Q
Encoding: 81 81 16
Width: 645
VWidth: 1050
Flags: W
HStem: 635 36<274 319 274 274>
VStem: 14 26<242.5 244.5> 26 131<171 171> 59 98 137 20<172 175> 319 46<625 630 625 635 625 635> 319 81 461 9<335 357.5>
LayerCount: 2
Back
Fore
SplineSet
619 102 m 1xa5
 596 34 491 -19 449 -40 c 1
 455 -30 476 -12 496 3 c 1
 476 34 443 62 412 88 c 1
 377 52 351 27 352 -4 c 1
 324 -10 276 -5 263 -5 c 0
 223 -5 82 22 49 105 c 0
 40 125 28 153 26 171 c 0
 24 190 14 227 14 239 c 0xcd
 14 250 22 255 23 265 c 0
 26 288 26 331 28 362 c 0
 30 388 37 418 41 450 c 0
 43 459 57 478 64 490 c 0
 66 496 66 507 68 511 c 0
 169 643 223 671 310 671 c 0
 435 671 470 417 470 359 c 0
 470 311 431 152 430 148 c 0
 462 129 532 77 545 77 c 0
 557 77 570 103 581 103 c 0
 594 103 581 92 594 92 c 0
 607 92 614 102 619 102 c 1xa5
354 600 m 1
 378 624 l 2
 373 624 365 630 365 630 c 1
 365 620 354 606 354 600 c 1
418 553 m 1
 418 564 401 580 396 590 c 1
 396 585 399 571 400 567 c 0xd3
 399 556 390 543 390 539 c 1
 395 544 413 553 418 553 c 1
445 467 m 0
 445 480 422 523 417 549 c 1
 417 544 410 530 408 527 c 0
 410 525 414 516 412 511 c 0
 410 500 400 489 394 484 c 1
 404 484 410 492 422 492 c 0
 435 492 430 490 430 490 c 1
 410 453 377 418 353 386 c 1
 385 411 445 454 445 467 c 0
461 351 m 0
 461 364 453 390 453 405 c 1
 449 395 425 376 410 366 c 1
 420 370 433 374 438 380 c 1
 443 374 440 372 440 372 c 1
 349 252 l 1
 374 275 411 318 422 318 c 0
 435 318 430 314 430 314 c 1
 407 272 384 238 375 210 c 1
 418 278 461 268 461 351 c 0
444 251 m 1
 422 227 405 201 390 180 c 1
 401 191 446 223 444 251 c 1
319 426 m 2
 319 635 l 1
 274 635 l 2
 253 636 177 578 171 568 c 1
 169 542 167 510 170 490 c 0
 169 382 165 286 157 172 c 1
 157 178 160 159 165 165 c 1
 165 133 164 110 165 89 c 1
 183 76 226 74 229 53 c 1
 246 52 278 36 289 36 c 0
 302 36 301 43 301 43 c 1
 300 185 295 174 295 179 c 1
 264 171 230 228 225 248 c 1
 232 256 l 1
 253 247 274 237 295 226 c 1
 296 277 322 339 310 413 c 0
 307 435 304 454 310 467 c 1
 314 451 320 441 319 426 c 2
134 374 m 1
 125 344 105 318 94 288 c 1
 101 309 148 349 134 374 c 1
115 385 m 1
 94 354 72 318 59 292 c 1
 80 322 121 366 115 385 c 1
130 303 m 1
 114 272 93 231 83 200 c 1
 94 224 141 286 130 303 c 1
61 212 m 2
 61 217 55 219 51 224 c 0
 50 239 53 256 59 271 c 1
 54 267 40 262 40 249 c 0
 40 236 48 215 52 200 c 1
 57 206 61 212 61 212 c 2
EndSplineSet
EndChar

StartChar: R
Encoding: 82 82 17
Width: 558
VWidth: 1050
Flags: W
HStem: 1 12<463 474.5> 314 21G<130.5 190.5> 627 54 631 50 648 31<195.5 207.5>
VStem: 63 32 72 53 322 128<384 495.5> 439 11<483 487.5>
LayerCount: 2
Back
Fore
SplineSet
508 6 m 1xca80
 490 -13 460 -18 439 -15 c 1
 454 -16 469 -10 483 -1 c 1
 478 5 481 1 468 1 c 0
 458 1 396 -19 363 -18 c 0
 357 -18 352 -29 347 -34 c 1
 331 -18 l 1
 326 -28 331 -42 326 -55 c 1
 314 -41 304 -32 323 -21 c 1
 302 -10 275 -4 259 7 c 1
 275 6 291 13 309 8 c 1
 312 42 l 1
 278 101 221 228 213 280 c 1
 223 260 235 239 251 219 c 1
 256 224 254 222 254 234 c 0
 254 247 222 286 207 313 c 0
 202 315 196 314 185 314 c 0
 171 314 142 310 116 300 c 1
 116 251 125 179 125 127 c 0
 125 117 133 100 135 84 c 0
 139 58 132 27 127 0 c 1
 132 -6 134 -9 145 -4 c 1
 211 -11 l 1
 174 -17 103 -41 90 -41 c 0
 78 -41 34 -33 10 -33 c 1
 28 -24 51 -11 62 6 c 0
 66 13 71 31 72 42 c 0
 76 110 79 240 79 253 c 0
 79 285 76 335 65 370 c 0
 57 394 63 441 63 560 c 0xcc80
 63 570 52 573 52 587 c 0
 52 599 64 635 65 656 c 1
 88 681 161 679 190 679 c 0
 239 679 287 695 372 634 c 0
 392 621 430 585 442 550 c 0
 449 533 450 502 450 489 c 0
 450 477 446 430 431 407 c 0
 422 391 398 362 379 352 c 0
 355 341 302 319 289 319 c 0
 276 319 265 334 265 319 c 0
 265 307 305 267 320 240 c 1
 326 246 325 250 325 256 c 1
 325 250 328 244 326 235 c 1
 333 228 339 212 345 197 c 1
 375 180 378 82 392 73 c 1
 391 60 407 21 416 9 c 1
 430 13 456 13 469 13 c 0
 482 13 503 16 508 6 c 1xca80
369 616 m 1
 363 610 356 595 356 590 c 1
 368 604 371 599 369 616 c 1
396 570 m 1
 396 575 390 584 390 590 c 1
 384 579 378 563 378 558 c 1
 383 569 396 570 396 570 c 1
439 481 m 0
 439 494 431 494 431 494 c 1
 421 477 414 458 406 442 c 1
 420 453 439 465 439 481 c 0
398 564 m 1
 388 555 378 541 381 532 c 1
 387 543 398 558 398 564 c 1
137 666 m 1
 130 668 l 2
 119 669 104 661 94 662 c 1
 94 651 l 1
 110 657 127 664 137 666 c 1
350 359 m 0
 350 365 339 369 345 369 c 1
 339 352 350 354 350 359 c 0
315 606 m 1
 327 595 l 1
 327 620 l 1
 322 620 328 610 314 610 c 0
 302 610 320 621 307 621 c 0
 293 621 310 616 296 616 c 0
 283 616 272 631 259 631 c 0xe5
 246 631 246 627 235 627 c 0xcc80
 222 627 214 648 201 648 c 0xe480
 190 648 180 638 170 634 c 1
 174 634 182 631 176 627 c 1xd480
 153 627 l 2
 140 627 146 639 146 639 c 1
 139 633 143 626 130 626 c 0
 116 626 120 621 109 621 c 0
 95 621 98 631 98 637 c 1
 92 599 94 561 95 514 c 1
 98 517 97 515 102 521 c 1
 115 456 108 387 111 342 c 1
 111 342 124 335 137 335 c 0
 189 335 298 372 322 384 c 1
 322 458 315 531 315 606 c 1
325 198 m 1
 325 192 326 185 323 178 c 1
 341 180 327 191 325 198 c 1
321 74 m 1
 342 111 304 179 299 200 c 1
 304 179 310 91 321 74 c 1
EndSplineSet
EndChar

StartChar: S
Encoding: 83 83 18
Width: 506
VWidth: 1050
Flags: W
HStem: -23 33<225.5 238 220.5 253.5 220.5 337> -23 48<317 333.5 317 337> -23 53<225.5 317 304.5 317 304.5 337> 310 17<330.5 369> 348 328 523 127<348.5 360 333 362> 591 85 643 33
VStem: 93 128<424 500.5> 136 85<349 349> 318 22 322 18 453 21<130.5 198>
LayerCount: 2
Back
Fore
SplineSet
474 150 m 0x9158
 474 111 439 6 383 -6 c 0
 368 -9 350 -23 337 -23 c 0
 324 -23 260 -23 247 -23 c 0
 204 -23 69 53 43 70 c 0
 35 74 25 92 20 104 c 1
 20 104 39 105 44 99 c 1
 60 105 93 110 107 110 c 0
 120 110 147 112 168 108 c 1
 151 103 130 94 114 90 c 1
 130 54 210 10 231 10 c 0
 245 10 243 19 244 23 c 0
 262 24 299 30 310 30 c 0x9458
 324 30 310 25 324 25 c 0x9298
 343 25 337 61 337 62 c 0
 337 75 339 84 331 94 c 1
 324 90 323 78 318 68 c 1
 318 136 322 203 322 282 c 1x5168
 322 282 326 277 331 271 c 1
 336 277 338 292 338 298 c 1
 343 292 340 299 348 304 c 1
 348 310 350 310 337 310 c 0
 324 310 328 308 324 303 c 1
 324 309 327 310 313 310 c 0
 302 310 231 290 218 290 c 0
 210 290 141 314 117 338 c 0
 102 353 93 418 93 430 c 0
 93 571 184 676 300 676 c 0
 313 676 342 650 355 650 c 0x3158
 369 650 361 650 367 655 c 1
 383 618 410 586 421 549 c 1
 444 554 459 552 470 548 c 1
 470 548 464 539 464 534 c 1
 431 534 373 523 360 523 c 2
 333 523 l 1
 333 523 331 531 327 536 c 1
 341 545 369 569 369 581 c 0
 369 592 337 626 307 637 c 0
 283 647 255 639 230 645 c 1
 230 645 221 652 221 639 c 2
 221 324 l 1
 230 296 260 315 281 319 c 0
 308 325 348 327 361 327 c 0
 377 327 434 278 441 268 c 0
 455 239 474 187 474 150 c 0x9158
192 591 m 1
 178 572 156 537 142 518 c 1
 156 530 190 572 192 591 c 1
363 278 m 1
 333 268 339 220 346 200 c 1
 346 227 352 252 363 278 c 1
453 191 m 0
 453 205 435 237 430 252 c 1
 425 231 402 206 386 185 c 1
 402 200 416 213 434 221 c 1
 443 213 l 1
 411 176 380 131 359 106 c 1
 386 125 453 179 453 191 c 0
457 163 m 1
 451 152 445 142 432 132 c 1
 443 132 450 125 449 119 c 2
 428 95 l 2
 432 95 447 99 452 94 c 1
 452 115 457 142 457 163 c 1
198 317 m 1
 198 328 203 343 197 348 c 1x9858
 187 343 178 341 172 347 c 1
 172 357 175 367 181 371 c 1
 170 361 152 345 141 340 c 1
 157 334 183 322 198 317 c 1
136 349 m 1
 140 406 l 1
 135 406 140 402 128 402 c 0
 114 402 122 411 116 414 c 1
 116 378 l 2
 114 366 127 352 136 349 c 1
EndSplineSet
EndChar

StartChar: T
Encoding: 84 84 19
Width: 561
VWidth: 1050
Flags: W
HStem: -17 20 508 145 659 17
VStem: 28 26 239 28
LayerCount: 2
Back
Fore
SplineSet
530 581 m 0
 530 569 524 515 521 493 c 0
 520 483 508 471 497 459 c 1
 465 462 469 522 437 531 c 0
 425 535 401 538 388 538 c 0
 375 538 359 532 348 531 c 0
 333 530 291 530 276 519 c 1
 276 513 286 508 286 502 c 1
 286 502 282 509 277 503 c 1
 277 445 272 398 267 329 c 0
 266 324 271 319 272 317 c 0
 271 313 266 310 266 297 c 0
 266 286 268 280 269 267 c 1
 281 256 287 237 287 224 c 0
 287 211 276 197 274 181 c 0
 271 160 276 134 276 112 c 0
 276 100 266 76 266 60 c 1
 289 44 316 30 334 30 c 0
 348 30 376 30 397 30 c 1
 397 10 l 1
 382 5 356 -2 343 -2 c 0
 330 -2 310 4 297 4 c 0
 269 4 255 0 248 -12 c 1
 230 4 l 1
 221 -2 216 -10 206 -17 c 0
 200 -17 205 -2 191 -2 c 0
 178 -2 180 -7 174 -10 c 0
 170 -11 154 -7 141 -7 c 0
 125 -7 134 -7 102 5 c 1
 102 10 112 10 126 10 c 0
 137 10 185 15 209 31 c 0
 215 35 234 55 250 70 c 1
 247 115 l 1
 234 99 237 62 213 64 c 1
 238 106 223 189 239 234 c 1
 235 508 l 1
 198 508 123 490 110 490 c 1
 99 496 l 1
 80 496 51 415 46 406 c 1
 40 445 38 492 40 532 c 1
 33 534 28 541 28 547 c 0
 30 573 25 595 24 626 c 0
 22 630 17 631 11 637 c 1
 22 642 35 652 47 656 c 0
 65 662 83 670 96 670 c 2
 491 676 l 1
 497 670 493 651 488 651 c 2
 488 651 483 650 496 650 c 0
 510 650 512 660 518 666 c 1
 523 644 530 594 530 581 c 0
497 565 m 1
 483 550 l 1
 493 550 497 559 497 565 c 1
491 512 m 1
 491 538 l 1
 487 533 472 527 468 527 c 1
 472 516 487 517 491 512 c 1
471 579 m 1
 461 574 430 573 430 562 c 0
 430 549 454 538 459 528 c 1
 463 540 450 566 471 579 c 1
467 659 m 1
 407 659 l 2
 393 660 320 591 285 566 c 1
 335 598 384 629 421 655 c 1
 421 649 l 1
 401 625 378 597 356 576 c 1
 393 603 430 631 467 659 c 1
441 619 m 1
 404 592 371 571 343 550 c 1
 363 556 381 555 390 556 c 1
 408 581 423 607 441 619 c 1
377 659 m 1
 320 659 l 1
 289 629 251 587 219 561 c 1
 255 582 319 633 332 633 c 0
 345 633 330 629 343 629 c 0
 356 629 366 648 377 659 c 1
350 590 m 1
 329 580 297 556 282 546 c 1
 311 539 l 1
 322 554 334 574 350 590 c 1
303 658 m 1
 258 660 250 623 166 566 c 1
 208 592 260 627 303 658 c 1
218 653 m 1
 177 648 146 644 119 644 c 1
 109 623 103 591 98 570 c 1
 124 597 151 623 173 645 c 1
 181 636 l 1
 166 619 l 1
 182 630 202 643 218 653 c 1
223 585 m 1
 196 570 160 546 133 534 c 1
 174 534 l 1
 185 550 207 570 223 585 c 1
50 581 m 1
 80 611 l 1
 69 607 50 590 50 581 c 1
90 602 m 1
 33 563 64 527 55 507 c 1
 70 539 87 578 90 602 c 1
EndSplineSet
EndChar

StartChar: U
Encoding: 85 85 20
Width: 486
VWidth: 1050
Flags: W
HStem: -21 11<206.5 224.5> 5 27<214.5 215 195 227.5> 397 13
VStem: 68 30 267 148 277 138
LayerCount: 2
Back
Fore
SplineSet
459 636 m 1xf4
 443 631 422 627 401 616 c 1
 408 594 415 574 415 553 c 0
 415 426 418 268 370 129 c 0
 364 109 344 79 328 54 c 0
 318 39 291 25 278 14 c 0
 275 12 267 -1 257 -9 c 0
 248 -15 227 -21 213 -21 c 0
 200 -21 169 0 155 0 c 0
 142 0 150 -10 144 -15 c 1
 125 17 108 66 98 108 c 0
 70 231 68 428 68 580 c 0
 68 591 64 592 59 604 c 1
 50 598 36 605 26 605 c 1
 34 620 39 614 37 640 c 1
 85 640 126 633 169 625 c 1
 151 617 120 615 99 610 c 1
 95 514 109 445 89 374 c 1
 97 366 l 1
 102 374 111 370 110 380 c 1
 89 245 125 152 159 30 c 0
 163 25 171 16 176 10 c 1
 192 21 208 32 221 32 c 0
 234 32 219 27 224 21 c 1
 234 30 248 51 251 67 c 0
 253 72 248 76 246 78 c 0
 295 136 290 204 290 257 c 0
 291 325 284 375 277 436 c 0
 273 480 270 542 267 600 c 0xf8
 264 606 253 605 249 605 c 1
 254 615 258 631 267 638 c 1
 312 646 401 656 414 656 c 0
 427 656 442 650 457 647 c 1
 457 647 459 642 459 636 c 1xf4
338 585 m 1
 332 590 316 580 311 574 c 1
 316 570 319 561 319 561 c 1
 324 567 332 580 338 585 c 1
389 482 m 1
 372 466 354 440 344 419 c 1
 360 434 394 463 389 482 c 1
400 409 m 1
 394 445 l 1
 368 418 344 387 333 361 c 1
 354 376 379 416 400 409 c 1
394 397 m 1
 377 382 360 359 358 345 c 1
 375 360 400 381 394 397 c 1
391 352 m 1
 391 342 362 306 350 295 c 1
 374 274 386 342 391 352 c 1
295 115 m 1
 290 115 281 122 281 122 c 1
 276 111 273 89 264 81 c 1
 274 86 290 105 295 115 c 1
245 -3 m 1
 240 -3 234 0 229 6 c 1
 222 -10 l 1
 227 -10 240 -3 245 -3 c 1
215 5 m 1
 195 5 l 1
 195 -1 203 -5 208 -10 c 1
 213 -5 215 5 215 5 c 1
140 27 m 1
 135 48 123 85 116 111 c 1
 116 77 l 2
 115 66 130 41 140 27 c 1
EndSplineSet
EndChar

StartChar: V
Encoding: 86 86 21
Width: 591
VWidth: 1050
Flags: W
HStem: 542 83
VStem: 456 101
LayerCount: 2
Back
Fore
SplineSet
398 625 m 2
 657 625 l 1
 647 620 616 613 610 602 c 0
 530 432 461 237 385 72 c 0
 370 40 336 2 320 -35 c 1
 321 -30 320 -19 320 -3 c 1
 310 -12 306 -24 306 -35 c 1
 298 -10 276 11 264 41 c 0
 239 102 220 171 194 235 c 1
 189 226 195 209 194 192 c 1
 180 235 161 278 142 327 c 0
 133 350 129 385 121 411 c 0
 117 416 112 427 106 428 c 1
 98 470 80 519 57 570 c 0
 52 581 45 585 30 585 c 0
 17 585 14 587 13 582 c 2
 13 605 l 1
 33 616 64 616 94 616 c 2
 109 616 l 2
 122 616 181 614 245 614 c 1
 197 598 153 590 111 581 c 1
 106 535 128 485 139 452 c 1
 151 463 l 1
 161 459 170 444 171 434 c 0
 190 355 226 280 246 207 c 0
 250 192 253 176 264 156 c 1
 269 156 l 1
 313 233 355 335 386 413 c 0
 387 417 383 429 378 439 c 1
 404 488 441 550 456 607 c 1
 441 613 425 616 411 616 c 0
 398 616 403 624 398 625 c 2
598 610 m 1
 583 610 557 613 535 608 c 1
 546 608 552 600 551 593 c 2
 541 581 l 1
 547 581 551 582 557 576 c 1
 551 571 541 561 535 561 c 2
 547 556 l 1
 582 568 595 583 598 610 c 1
566 542 m 1
 550 526 531 513 520 509 c 1
 532 494 l 1
 541 500 544 500 549 494 c 1
 554 500 561 526 566 542 c 1
492 589 m 1
 477 585 455 569 451 559 c 1
 462 564 482 578 492 589 c 1
540 484 m 1
 528 471 503 450 500 431 c 1
 506 436 517 442 523 436 c 1
 529 452 534 472 540 484 c 1
512 426 m 1
 487 399 454 368 441 347 c 1
 459 368 510 370 512 426 c 1
430 432 m 1
 422 452 l 1
 417 447 410 426 405 415 c 1
 410 421 424 432 430 432 c 1
482 346 m 1
 450 319 414 289 399 268 c 1
 414 278 437 304 450 304 c 0
 464 304 460 299 466 299 c 1
 470 315 476 335 482 346 c 1
444 283 m 1
 388 226 l 1
 419 243 438 256 444 283 c 1
173 357 m 1
 169 405 160 430 155 450 c 1
 150 450 150 446 140 440 c 1
 140 429 l 2
 141 433 147 436 147 436 c 1
 157 415 158 384 173 357 c 1
413 208 m 1
 397 197 383 180 373 170 c 1
 371 160 382 153 380 149 c 0
 365 128 348 90 347 71 c 1
 376 99 387 162 413 208 c 1
211 289 m 1
 206 310 199 335 187 351 c 1
 187 329 l 2
 186 315 206 293 211 289 c 1
323 202 m 1
 304 198 294 166 294 161 c 1
 299 171 318 191 323 202 c 1
350 171 m 1
 337 160 316 146 306 135 c 0
 308 132 304 124 304 119 c 1
 320 134 340 153 350 171 c 1
303 26 m 1
 292 36 283 55 272 70 c 1
 276 55 283 30 288 13 c 1
 293 13 297 21 303 26 c 1
EndSplineSet
EndChar

StartChar: W
Encoding: 87 87 22
Width: 672
VWidth: 1050
Flags: W
HStem: 2 20 287 185
VStem: 95 298 105 52 120 291 210 183 247 164<210 210>
LayerCount: 2
Back
Fore
SplineSet
711 604 m 1xd2
 724 591 l 1
 697 539 660 450 630 390 c 0
 595 323 557 232 514 156 c 0
 491 113 435 52 426 2 c 1
 407 2 l 1
 407 2 406 9 408 14 c 0
 406 19 402 28 394 30 c 1
 381 60 364 99 350 127 c 1
 355 137 346 160 340 175 c 1
 334 160 339 139 334 128 c 1
 329 175 318 229 312 282 c 1
 303 267 291 223 282 223 c 0
 269 223 282 229 276 234 c 1
 239 160 202 80 170 7 c 1
 155 65 145 120 122 181 c 1
 117 175 110 171 105 171 c 1
 110 182 120 190 120 202 c 0xd4
 120 212 102 251 95 272 c 0xc8
 92 282 95 301 95 316 c 0
 95 333 82 363 73 390 c 0
 71 398 66 426 54 438 c 1
 49 477 37 541 20 582 c 1
 35 588 53 588 70 590 c 0
 87 592 120 591 144 591 c 0
 177 591 223 610 247 586 c 1xd2
 238 580 217 587 203 581 c 0
 180 573 162 570 155 551 c 1
 144 562 l 1
 130 554 99 526 103 493 c 1
 119 509 133 530 145 546 c 1
 140 525 120 496 110 474 c 1
 110 474 107 472 111 467 c 1
 116 478 136 497 151 504 c 1
 151 485 l 2
 151 479 120 441 120 411 c 1xe0
 120 411 117 409 123 403 c 1
 132 416 145 440 158 456 c 1
 150 430 126 379 126 366 c 0
 126 354 129 350 133 340 c 1
 145 355 158 376 169 392 c 1
 174 392 181 388 186 382 c 1
 191 388 189 390 187 394 c 0
 172 437 170 493 160 544 c 1
 180 484 198 414 210 339 c 1xc8
 244 323 233 261 255 234 c 1
 270 258 288 302 310 333 c 0
 339 376 354 434 375 482 c 1
 381 482 374 472 388 472 c 0
 401 472 394 476 400 476 c 1
 396 454 374 401 374 388 c 0
 374 376 385 365 393 357 c 1
 390 293 433 254 447 170 c 1
 481 203 507 282 540 333 c 0
 554 355 580 381 595 408 c 0
 611 436 629 485 654 528 c 1
 638 543 626 562 613 576 c 1
 603 580 588 578 579 578 c 0
 567 583 551 591 535 591 c 1
 589 591 653 599 711 604 c 1xd2
372 366 m 1
 367 350 354 323 350 309 c 1
 362 334 370 339 372 366 c 1
390 316 m 0
 390 330 382 330 382 330 c 1
 371 313 365 292 359 282 c 1
 370 294 390 306 390 316 c 0
398 287 m 1
 388 266 370 234 370 212 c 1
 381 234 398 266 398 287 c 1
426 171 m 1
 426 197 414 229 409 250 c 1
 403 234 397 213 391 203 c 1
 396 208 406 214 411 210 c 1xd2
 406 189 402 165 397 150 c 1
 402 160 417 172 426 171 c 1
350 245 m 1
 350 239 343 232 339 227 c 0
 337 222 345 208 345 205 c 1
 350 218 355 233 350 245 c 1
371 128 m 1
 371 144 366 168 366 184 c 1
 366 178 353 179 348 179 c 1
 358 164 367 144 371 128 c 1
442 95 m 1
 437 95 429 101 429 101 c 1
 428 84 424 67 421 44 c 1
 429 61 438 79 442 95 c 1
210 300 m 0
 210 313 207 313 201 318 c 1
 196 297 186 266 180 245 c 1
 186 260 210 289 210 300 c 0
214 275 m 1
 205 267 189 249 189 236 c 0
 189 223 197 223 197 223 c 1
 202 239 204 260 214 275 c 1
247 210 m 0
 247 223 228 233 223 239 c 1
 219 228 212 208 212 197 c 1
 212 202 222 213 228 213 c 1
 232 205 230 187 228 176 c 1
 233 187 247 197 247 210 c 0
182 229 m 1
 170 210 157 195 157 184 c 0
 157 170 165 170 165 170 c 1
 170 187 182 212 182 229 c 1
EndSplineSet
EndChar

StartChar: X
Encoding: 88 88 23
Width: 672
VWidth: 1050
Flags: W
HStem: -4 20 2 41<39.5 67> 12 31<36 67 527.5 539.5> 12 38 17 26 582 27<454 454> 612 29
LayerCount: 2
Back
Fore
SplineSet
641 606 m 1x26
 628 593 602 579 585 557 c 0
 577 546 570 523 562 510 c 0
 494 422 359 267 359 253 c 0
 359 242 367 235 377 223 c 1
 382 228 377 238 382 243 c 1
 404 218 479 43 546 43 c 0
 557 43 561 53 571 53 c 0
 585 53 600 46 610 41 c 1
 585 30 546 12 533 12 c 0
 522 12 518 17 505 17 c 0x26
 492 17 501 8 493 6 c 0
 486 2 483 2 489 -4 c 1
 485 7 475 12 464 12 c 0x46
 451 12 458 8 452 8 c 1
 448 12 451 19 451 40 c 1
 446 45 438 50 433 50 c 1
 438 50 446 49 446 61 c 0
 446 74 400 150 387 150 c 0
 374 150 394 141 382 141 c 0
 371 141 350 186 335 212 c 1
 297 160 224 91 225 54 c 1
 216 54 207 59 190 59 c 1
 190 65 196 74 191 79 c 0
 186 80 179 71 170 61 c 1
 174 56 185 56 174 51 c 1
 200 41 226 36 241 30 c 1
 231 26 219 28 209 26 c 0
 203 23 194 12 182 12 c 0
 170 12 59 2 46 2 c 0x16
 33 2 49 12 36 12 c 2x8e
 11 8 l 2
 10 11 21 15 30 26 c 1
 26 30 26 36 21 42 c 1
 30 42 49 43 61 43 c 0
 73 43 141 131 178 181 c 0
 190 196 187 191 183 201 c 1
 215 241 246 282 277 318 c 1
 268 330 256 337 248 348 c 0
 247 352 251 363 250 368 c 0
 208 440 143 563 94 616 c 0
 85 627 58 624 39 629 c 1
 39 638 l 1
 57 648 87 653 99 653 c 0
 111 653 191 646 253 641 c 1
 240 642 221 641 200 631 c 0
 190 626 179 612 169 612 c 0
 155 612 150 615 145 610 c 1
 150 605 160 601 164 595 c 0
 198 537 302 428 321 367 c 1
 467 579 l 1
 459 587 l 1
 454 582 l 1
 426 582 l 1
 430 592 444 608 453 609 c 0
 505 611 597 628 610 628 c 2
 628 623 l 1
 632 628 635 614 626 610 c 1
 630 605 635 606 641 606 c 1x26
590 584 m 1
 539 604 521 533 487 514 c 1
 507 519 516 536 530 546 c 1
 538 538 l 1
 512 518 487 492 461 466 c 1
 485 451 423 412 415 398 c 1
 421 398 430 395 430 390 c 0
 402 358 358 312 355 279 c 1
 411 356 484 433 546 510 c 0
 561 530 567 552 570 573 c 0
 574 578 585 584 590 584 c 1
302 341 m 1
 302 359 l 1
 297 370 288 389 279 396 c 0
 270 404 260 406 257 410 c 0
 244 441 227 474 217 500 c 1
 225 443 260 381 302 341 c 1
517 47 m 1
 502 47 493 39 493 33 c 1
 498 33 512 42 517 47 c 1
322 232 m 1
 301 212 271 190 251 169 c 1
 256 164 270 167 274 161 c 1
 290 182 311 212 322 232 c 1
173 93 m 1
 158 83 132 67 118 50 c 1x16
 137 50 l 1
 148 64 163 84 173 93 c 1
EndSplineSet
EndChar

StartChar: Y
Encoding: 89 89 24
Width: 487
VWidth: 1050
Flags: W
HStem: 559 51<327 338> 570 70<370 377> 610 20G<44.5 74.5>
VStem: 251 41
LayerCount: 2
Back
Fore
SplineSet
541 648 m 1x30
 459 528 406 391 303 297 c 1
 303 264 296 225 292 190 c 1
 297 186 296 181 291 54 c 1
 310 41 349 35 367 0 c 1
 358 0 344 4 332 4 c 0
 322 4 312 1 295 -9 c 1
 292 -16 280 -34 275 -43 c 1
 276 -39 273 -22 276 -9 c 1
 273 -4 270 -6 266 -5 c 0
 233 0 208 3 160 9 c 1
 174 10 196 13 213 19 c 0
 224 22 235 33 239 45 c 0
 250 76 251 114 251 151 c 0
 251 213 249 260 249 321 c 1
 249 316 259 306 264 301 c 1
 268 305 265 326 269 334 c 1
 265 339 262 348 255 343 c 1
 260 348 261 352 256 357 c 0
 251 357 245 351 240 347 c 1
 245 350 242 366 243 375 c 1
 223 412 205 430 181 467 c 1
 189 466 179 472 189 475 c 1
 164 527 90 594 90 596 c 0
 90 609 104 594 109 599 c 1
 95 608 80 610 69 610 c 2
 33 608 l 2
 38 612 39 630 50 630 c 0
 61 630 95 630 107 629 c 2
 120 629 l 2
 131 627 173 633 197 629 c 1
 198 624 195 610 190 601 c 1
 190 606 182 615 187 620 c 1
 186 625 l 1
 146 622 l 1
 156 612 177 620 184 607 c 1
 170 608 150 608 132 603 c 1
 161 562 214 499 254 464 c 1
 245 467 235 470 221 470 c 1
 235 447 248 423 267 394 c 1
 377 570 l 1x50
 363 570 344 559 332 559 c 0x90
 322 559 317 559 307 554 c 1
 311 573 350 573 387 585 c 1
 363 594 344 604 320 610 c 1
 341 610 l 1
 346 615 335 624 335 629 c 1
 348 635 l 2
 352 640 359 630 364 635 c 1
 359 640 364 633 356 640 c 1x50
 417 640 480 638 541 648 c 1x30
512 622 m 0
 503 622 493 615 489 610 c 1x30
 493 615 504 613 509 609 c 1
 509 613 517 622 512 622 c 0
464 589 m 1
 445 574 427 553 417 539 c 1
 422 539 429 542 433 547 c 1
 437 537 439 529 440 519 c 1
 452 542 454 566 464 589 c 1
EndSplineSet
EndChar

StartChar: Z
Encoding: 90 90 25
Width: 579
VWidth: 1050
Flags: W
HStem: -21 20 3 10<280.5 293 312 320> 3 28 3 87 489 21G 499 98<168.5 180> 509 10<371 404> 646 21G
VStem: 70 29 473 33<106.5 122 122 123 123 123>
LayerCount: 2
Back
Fore
SplineSet
572 641 m 1xa3c0
 550 622 483 600 512 577 c 1
 210 131 l 1
 219 127 225 138 237 138 c 0
 249 138 245 149 259 149 c 0
 271 149 408 163 420 163 c 0
 432 163 427 153 431 149 c 1
 431 149 435 152 435 157 c 1
 440 157 442 153 454 153 c 0
 465 153 469 162 477 171 c 1
 479 181 480 197 486 207 c 1
 494 197 503 184 506 176 c 0
 511 160 506 133 506 111 c 0
 506 102 512 97 512 83 c 0
 512 70 505 31 493 31 c 0
 481 31 490 36 486 41 c 1
 471 22 450 3 445 3 c 1
 445 8 447 11 434 11 c 0
 422 11 418 7 414 4 c 0
 379 2 341 3 310 3 c 0
 251 3 142 -12 130 -12 c 2
 115 -8 l 2
 108 -8 39 -22 27 -21 c 2
 10 -21 l 1
 38 -3 83 43 111 79 c 0
 155 134 211 226 280 309 c 0
 332 370 382 430 420 506 c 1
 415 510 410 509 398 509 c 0
 386 509 347 490 334 490 c 0
 323 490 264 490 251 490 c 0
 240 490 254 494 242 494 c 0
 231 494 186 499 174 499 c 0xc5c0
 163 499 142 490 112 490 c 1
 112 485 113 482 114 477 c 0
 110 453 87 445 108 429 c 1
 93 414 76 397 69 387 c 1
 66 407 70 442 70 454 c 0
 70 464 75 481 56 490 c 1
 57 502 52 513 50 527 c 0
 49 548 51 565 45 594 c 0
 42 599 41 605 30 607 c 1
 35 611 58 621 71 621 c 0
 84 621 103 630 115 630 c 0
 128 630 245 635 256 635 c 0
 267 635 299 645 310 645 c 0
 321 645 336 645 349 645 c 0
 361 645 376 650 389 650 c 0
 400 650 425 655 437 655 c 0
 448 655 467 660 482 665 c 1
 487 654 487 650 496 640 c 0
 501 640 503 648 498 652 c 1
 507 658 504 667 516 667 c 0
 529 667 553 641 572 641 c 1xa3c0
425 643 m 1
 386 643 352 634 318 634 c 1
 328 618 324 612 309 598 c 1
 323 602 339 611 349 616 c 1
 360 607 l 1
 361 624 405 645 425 643 c 1
444 566 m 1
 419 551 390 536 371 519 c 1xc3c0
 390 519 l 1
 404 533 425 551 444 566 c 1
298 625 m 1
 279 625 l 1
 284 614 293 619 298 625 c 1
361 576 m 1
 341 566 318 549 301 539 c 1
 323 549 347 561 361 576 c 1
380 556 m 1
 361 547 330 530 317 514 c 1
 325 514 l 2
 348 511 358 535 380 556 c 1
259 624 m 1
 230 630 225 605 216 592 c 1
 230 607 254 619 259 624 c 1
297 571 m 1
 278 561 255 546 235 535 c 1
 240 535 247 529 247 529 c 1
 267 543 283 556 297 571 c 1
220 619 m 1
 210 619 201 626 189 626 c 0
 176 626 171 603 167 597 c 1xc5c0
 190 597 l 1
 201 607 210 614 220 619 c 1
308 531 m 1
 295 530 268 526 254 510 c 1x99c0
 282 510 l 1
 291 519 308 531 308 531 c 1
473 100 m 1
 473 123 l 1
 467 129 l 1
 447 114 434 91 420 82 c 1
 440 87 458 90 473 100 c 1
397 129 m 2
 410 141 l 1
 376 141 l 2
 386 141 397 134 397 129 c 2
409 104 m 2
 395 91 l 1
 406 91 409 99 409 104 c 2
386 122 m 1
 381 127 373 129 373 129 c 1
 369 124 363 110 363 105 c 1
 368 110 381 116 386 122 c 1
448 75 m 1
 433 60 410 43 395 28 c 1
 424 28 l 1
 433 41 443 60 448 75 c 1
321 113 m 1
 311 110 299 99 300 90 c 1
 310 100 321 109 321 113 c 1
362 46 m 1
 345 31 341 21 330 21 c 1
 323 29 l 1
 337 44 351 59 361 69 c 1
 356 69 350 70 345 75 c 1
 334 66 312 53 298 39 c 1
 306 30 312 23 323 19 c 1
 317 13 312 13 312 13 c 1xc9c0
 328 13 345 19 354 19 c 1
 350 19 350 24 350 24 c 1
 357 29 364 42 362 46 c 1
297 113 m 1
 278 99 255 81 250 66 c 1
 265 75 288 99 297 113 c 1
322 94 m 1
 292 74 270 55 240 33 c 1
 261 23 309 61 322 94 c 1
269 13 m 1
 293 13 l 1
 283 23 274 18 269 13 c 1
250 59 m 1
 244 59 238 65 238 70 c 1
 226 58 210 37 198 28 c 1
 216 30 235 46 250 59 c 1
195 89 m 1
 178 89 l 1
 169 80 162 66 152 56 c 1
 167 67 186 78 195 89 c 1
141 26 m 1
 131 21 118 14 109 8 c 1
 136 8 l 1
 141 12 141 21 141 26 c 1
EndSplineSet
EndChar

StartChar: zero
Encoding: 48 48 26
Width: 621
VWidth: 1050
Flags: W
HStem: -13 20<348 378.5 348 393.5> -7 20<322.5 323 306 338.5> -7 27<336 338.5>
VStem: 90 164<324 340 324 470 324 477.5> 233 37 430 32<415 449 386 474 386 474> 438 22<257 288 257 388> 438 92
LayerCount: 2
Back
Fore
SplineSet
530 248 m 0x89
 533 230 513 205 505 182 c 1
 505 182 491 171 508 171 c 0
 525 171 517 176 524 176 c 1
 502 134 437 -13 350 -13 c 0
 333 -13 347 -7 330 -7 c 0x31
 315 -7 289 -20 270 -20 c 0
 254 -20 264 -7 248 -7 c 0
 231 -7 235 -12 229 -12 c 1
 229 -6 228 5 234 11 c 1
 234 18 225 27 218 33 c 1
 205 20 l 1x4a
 170 62 90 243 90 294 c 2
 90 470 l 2
 90 485 105 498 107 511 c 0
 110 537 114 573 125 598 c 0
 138 629 169 669 190 702 c 0
 196 705 203 705 210 706 c 1
 226 734 270 750 301 744 c 1
 301 764 l 1
 323 764 l 2
 339 765 331 758 338 752 c 1
 370 751 410 750 444 742 c 1
 549 603 521 355 530 248 c 0x89
426 730 m 1
 419 730 399 736 392 736 c 1
 399 730 419 723 426 730 c 1
478 661 m 1
 471 668 461 686 454 692 c 1
 448 679 452 660 452 653 c 1
 459 653 471 661 478 661 c 1
480 561 m 1
 498 576 l 1
 491 595 482 619 475 639 c 1
 459 621 l 1
 483 621 469 601 469 595 c 1
 483 604 481 570 480 561 c 1
504 552 m 1
 497 552 485 537 478 530 c 1
 493 516 493 496 490 488 c 1
 500 508 504 532 504 552 c 1
426 563 m 1
 426 690 l 1
 406 704 375 731 349 738 c 1
 336 719 289 690 263 675 c 1
 260 635 261 573 271 531 c 1
 268 525 261 510 261 503 c 0
 281 470 263 428 263 372 c 1
 280 403 276 442 317 442 c 0
 333 442 324 429 340 429 c 0
 356 429 399 516 426 563 c 1
473 410 m 1
 465 419 461 435 462 449 c 1x4c
 462 422 462 406 462 386 c 1
 462 392 471 406 473 410 c 1
430 415 m 1
 430 474 l 1
 423 461 407 443 407 430 c 1
 413 430 424 422 430 415 c 1
525 366 m 1
 508 382 l 1
 501 369 492 344 487 330 c 1
 499 344 518 353 525 366 c 1
484 369 m 1
 459 344 461 329 461 310 c 1
 468 330 475 355 484 369 c 1
194 618 m 1
 181 611 171 587 171 573 c 1
 177 588 187 606 194 618 c 1
490 310 m 1
 483 303 466 294 460 288 c 1x52
 460 257 l 1
 473 270 490 296 490 310 c 1
177 559 m 0
 174 559 166 567 166 573 c 1
 159 547 150 514 151 494 c 1
 165 514 180 547 177 559 c 0
325 428 m 1
 312 428 301 421 296 418 c 0
 288 394 254 348 254 332 c 0
 254 316 264 316 264 316 c 1
 286 351 340 400 325 428 c 1
193 507 m 1
 179 492 135 443 138 415 c 1
 158 442 180 480 193 507 c 1
233 487 m 1
 200 454 162 410 136 370 c 1
 184 392 200 445 233 487 c 1
446 109 m 0
 446 126 435 117 435 117 c 1
 431 130 439 139 438 154 c 2
 438 388 l 1
 425 394 423 409 423 415 c 1
 408 392 390 374 384 361 c 0
 370 333 362 303 350 282 c 0
 337 253 312 218 298 196 c 0
 275 160 249 144 268 101 c 1
 264 92 l 1
 268 86 l 1
 268 68 261 47 263 36 c 1
 274 28 299 13 313 13 c 0
 333 13 329 20 343 20 c 0x8a
 360 20 340 7 356 7 c 0x2a
 401 7 446 101 446 109 c 0
180 369 m 1
 154 349 143 322 123 316 c 1
 122 292 127 260 133 244 c 1
 133 250 135 260 137 267 c 0
 142 299 168 339 180 369 c 1
240 250 m 1
 210 220 174 175 155 142 c 1
 172 126 l 1
 198 165 213 210 240 250 c 1
168 243 m 1
 161 236 150 223 130 223 c 1
 130 216 138 198 138 191 c 1
 145 205 160 230 168 243 c 1
234 84 m 1
 228 84 209 77 202 77 c 1
 209 70 220 60 227 60 c 1
 227 67 228 77 234 84 c 1
EndSplineSet
EndChar

StartChar: one
Encoding: 49 49 27
Width: 621
VWidth: 1050
Flags: W
HStem: -19 12<174 187 164 189> 0 27 621 54
VStem: 291 50 383 14<130 162 162 162>
LayerCount: 2
Back
Fore
SplineSet
395 726 m 1
 450 720 l 1
 413 574 l 1
 405 634 452 681 395 726 c 1
138 671 m 2
 161 658 l 1
 175 656 147 650 150 651 c 1
 141 651 138 651 130 645 c 0
 128 639 120 630 116 627 c 1
 123 638 125 642 125 655 c 1
 132 652 l 1
 140 658 141 665 138 671 c 2
136 643 m 0
 144 650 166 650 173 656 c 0
 177 659 138 672 141 675 c 0
 203 671 224 711 250 728 c 1
 250 734 245 735 251 742 c 1
 270 741 296 742 310 742 c 0
 324 742 336 762 352 762 c 0
 369 762 365 742 381 742 c 0
 397 742 404 745 410 738 c 1
 397 738 385 736 369 736 c 0
 365 736 354 710 356 704 c 1
 361 709 375 710 390 716 c 1
 396 671 397 582 397 566 c 2
 397 51 l 1
 420 50 465 27 479 27 c 0
 495 27 507 22 507 19 c 0
 479 -21 437 17 401 1 c 1
 394 1 l 1
 388 -6 392 -34 390 -48 c 1
 366 -27 357 7 341 7 c 0
 325 7 197 -19 181 -19 c 0
 167 -19 139 -9 127 -2 c 1
 139 -3 165 6 184 19 c 1
 177 12 164 6 164 -7 c 1
 187 -7 l 1
 193 0 192 12 192 26 c 1
 244 8 250 63 289 76 c 1
 289 148 293 209 293 280 c 1
 361 327 327 353 319 372 c 1
 327 383 297 368 293 363 c 1
 293 369 301 381 305 388 c 0
 308 393 294 404 291 406 c 0
 294 513 290 588 288 697 c 1
 282 669 281 650 281 602 c 1
 275 633 276 670 265 697 c 1
 261 694 187 620 154 621 c 2
 113 621 l 1
 120 628 129 635 136 643 c 0
313 336 m 1
 312 293 297 317 297 317 c 2
 296 311 296 302 297 296 c 0
 294 294 290 288 285 282 c 1
 286 265 l 1
 278 279 l 2
 278 286 278 294 280 301 c 1
 293 293 295 300 294 309 c 0
 291 314 286 324 290 330 c 1
 288 336 286 336 280 339 c 1
 281 362 l 1
 282 370 l 1
 276 382 l 1
 273 395 l 1
 296 378 l 1
 290 364 l 1
 289 358 l 1
 298 354 l 1
 313 352 343 350 313 336 c 1
352 734 m 1
 346 734 335 742 335 742 c 1
 330 736 335 717 335 710 c 1
 341 717 346 728 352 734 c 1
313 721 m 1
 307 721 301 707 294 700 c 1
 310 688 310 719 313 721 c 1
382 562 m 1
 370 549 353 524 347 510 c 1
 363 525 389 542 382 562 c 1
384 522 m 1
 363 514 349 481 348 465 c 1
 361 485 377 510 384 522 c 1
383 458 m 1
 351 438 336 400 342 388 c 1
 355 407 377 438 383 458 c 1
382 323 m 1
 375 310 366 292 359 287 c 1
 366 287 382 304 382 323 c 1
389 277 m 1
 376 261 361 232 347 214 c 1
 363 228 386 258 389 277 c 1
358 257 m 1
 345 250 335 233 335 227 c 1
 341 233 351 250 358 257 c 1
383 213 m 1
 371 197 359 168 347 150 c 1
 369 171 378 190 383 213 c 1
377 226 m 1
 357 205 307 159 316 130 c 1
 336 162 357 200 377 226 c 1
383 130 m 1
 383 162 l 1
 370 147 359 130 353 117 c 1
 360 124 377 130 383 130 c 1
384 79 m 1
 377 92 376 110 376 116 c 1
 346 88 l 1
 352 81 356 71 356 71 c 2
 356 78 377 79 384 79 c 1
309 19 m 1
 310 39 271 23 271 23 c 2
 278 23 309 19 309 19 c 1
EndSplineSet
EndChar

StartChar: two
Encoding: 50 50 28
Width: 621
VWidth: 1050
Flags: W
HStem: -25 20<142 318> 1 39
VStem: 64 108<607.5 613 613 613> 297 26 371 66 425 12<533 535.5>
LayerCount: 2
Back
Fore
SplineSet
287 416 m 1xf4
 292 418 l 2
 293 417 299 411 291 412 c 1
 291 411 287 416 287 416 c 1xf4
572 17 m 1
 537 -9 461 19 435 -17 c 1
 430 -17 430 1 414 1 c 0
 399 1 334 -5 318 -5 c 0
 302 -5 254 -11 177 -5 c 1
 170 -11 176 -14 183 -14 c 1
 177 -14 167 -25 150 -25 c 0
 134 -25 134 -10 122 -10 c 1
 128 -3 141 4 147 10 c 1
 147 10 141 15 134 15 c 1
 154 69 160 141 194 193 c 0
 224 238 277 265 307 304 c 0
 315 315 309 340 314 360 c 1
 310 414 l 1
 305 409 304 395 297 389 c 1
 297 477 305 600 291 681 c 1
 277 673 l 1
 295 695 l 1
 289 701 285 705 279 711 c 1
 173 667 172 685 172 611 c 0
 172 604 170 571 198 560 c 1
 185 548 169 518 160 498 c 1
 157 506 160 524 144 524 c 0
 126 524 88 491 72 491 c 0
 57 491 57 487 48 487 c 1
 51 518 63 570 64 586 c 2
 64 613 l 1
 70 613 76 612 81 619 c 0
 92 643 128 681 143 695 c 0
 171 719 208 730 235 738 c 1
 264 740 331 762 358 744 c 2
 385 730 l 2
 391 724 407 701 409 690 c 0
 418 644 437 556 437 540 c 0
 437 526 425 508 422 494 c 0
 398 390 340 296 237 223 c 1
 237 77 l 1
 251 60 253 40 280 40 c 0
 298 40 317 40 333 40 c 0
 348 40 354 39 368 41 c 1
 382 76 430 66 449 90 c 0
 464 111 451 149 451 174 c 1
 456 175 460 162 472 150 c 1
 472 150 477 155 477 162 c 1
 477 162 488 162 494 160 c 1
 525 110 492 44 534 31 c 1
 529 25 510 24 495 30 c 1
 502 36 503 48 503 60 c 1
 496 60 501 67 488 67 c 1
 494 13 l 1
 549 13 l 1
 555 21 550 24 544 30 c 1
 550 24 567 24 572 17 c 1
399 666 m 0
 399 682 382 705 369 724 c 1
 363 689 369 660 369 628 c 1
 381 643 399 650 399 666 c 0
425 528 m 0
 425 543 409 601 403 633 c 1
 383 608 361 576 349 550 c 1
 364 564 381 589 395 589 c 0
 411 589 406 584 406 584 c 1
 400 568 387 542 381 525 c 1
 388 530 399 539 405 533 c 1
 392 501 374 467 362 441 c 1
 376 461 390 474 409 487 c 1
 411 500 425 514 425 528 c 0
371 550 m 1
 358 536 333 515 323 517 c 1
 323 466 l 1
 336 491 358 524 371 550 c 1
144 628 m 1
 143 621 141 613 138 601 c 1
 154 607 144 614 144 628 c 1
147 546 m 1
 140 552 146 569 146 575 c 1
 125 561 97 536 83 526 c 1
 102 532 128 539 147 546 c 1
334 348 m 1
 328 348 321 333 314 327 c 1
 330 314 331 346 334 348 c 1
230 208 m 1
 216 194 202 170 209 163 c 1
 214 170 223 194 230 208 c 1
217 48 m 1
 210 79 l 1
 203 72 197 59 190 59 c 1
 185 85 190 98 190 105 c 1
 183 85 174 61 167 42 c 1
 192 42 210 48 217 48 c 1
EndSplineSet
EndChar

StartChar: three
Encoding: 51 51 29
Width: 621
VWidth: 1050
Flags: W
HStem: -19 26<273 329.5> -7 20<321.5 338> -6 13<273 289> 290 72<463 488> 695 22<224 278 224 259>
VStem: 380 24 390 14 404 107 404 148<147 218.5> 442 11 487 20<523.5 591>
LayerCount: 2
Back
Fore
SplineSet
552 210 m 0x3a60
 552 197 529 108 517 86 c 0
 483 20 420 22 376 -4 c 1
 376 -11 l 1
 328 3 343 -19 316 -19 c 0
 302 -19 297 -6 281 -6 c 0x9880
 206 -6 142 63 115 104 c 1
 103 104 81 93 69 93 c 1
 81 106 110 123 123 149 c 1
 136 136 l 1
 146 148 170 155 190 161 c 1
 190 155 185 146 178 139 c 1
 210 109 245 7 301 7 c 0
 316 7 313 13 330 13 c 0x9c60
 346 13 332 1 349 1 c 0
 363 1 371 10 378 23 c 1
 371 30 359 22 327 22 c 1
 347 34 373 55 392 76 c 1
 398 102 404 139 404 155 c 0
 404 170 396 268 395 326 c 1
 390 332 381 343 362 343 c 0
 323 343 279 343 241 336 c 1
 234 330 239 323 226 246 c 1
 229 270 211 311 205 344 c 1
 191 346 177 350 167 343 c 1
 174 373 131 374 120 383 c 1
 120 403 129 420 135 426 c 0
 140 426 140 410 132 398 c 1
 139 391 127 381 143 381 c 0
 159 381 163 381 175 374 c 1
 204 374 l 1
 198 399 200 427 210 452 c 1
 247 395 208 369 265 369 c 0
 280 369 299 370 309 376 c 0
 337 395 367 413 382 444 c 0
 393 467 390 517 390 532 c 0
 390 547 383 609 380 655 c 0x5a60
 378 661 372 672 370 679 c 1
 353 688 330 691 310 697 c 1
 297 685 l 1
 284 697 l 1
 278 695 l 1
 259 695 l 2
 239 697 181 624 178 610 c 2
 178 592 l 1
 195 587 223 585 249 578 c 1
 221 571 159 569 143 569 c 2
 96 562 l 1
 81 578 l 1
 106 611 134 651 172 684 c 0
 179 690 167 698 167 698 c 1
 182 690 l 1
 194 695 216 717 232 717 c 0
 247 717 350 710 408 706 c 0
 414 704 423 700 410 693 c 1
 422 683 l 1
 434 683 l 1
 496 630 507 581 507 539 c 0
 507 508 481 403 430 378 c 1
 443 370 455 362 471 362 c 0
 488 362 481 367 487 367 c 1
 487 367 488 358 481 352 c 1
 493 338 523 320 530 302 c 0
 540 277 552 227 552 210 c 0x3a60
416 669 m 1
 401 685 l 1
 394 678 399 652 399 639 c 1
 406 646 410 662 416 669 c 1
487 563 m 1
 487 591 l 2
 488 608 450 646 431 658 c 1
 431 651 428 642 428 642 c 1
 466 636 455 595 437 575 c 1
 444 582 457 588 464 588 c 1
 476 576 482 562 487 563 c 1
442 625 m 1
 435 625 419 620 419 620 c 1
 404 613 l 1
 404 597 419 588 419 575 c 1
 426 588 435 612 442 625 c 1
461 573 m 1
 449 567 424 548 405 534 c 1
 405 497 l 1
 425 517 441 549 461 573 c 1
474 535 m 1
 450 523 422 479 418 466 c 1
 438 485 461 515 474 535 c 1
487 510 m 1
 468 496 444 466 434 447 c 1
 456 466 473 490 487 510 c 1
150 639 m 1
 144 632 129 613 129 608 c 1
 141 620 150 631 150 639 c 1
520 288 m 1
 513 293 511 303 511 303 c 1x99
 506 303 494 294 494 294 c 1
 501 288 502 284 502 284 c 1
 488 290 l 1
 471 290 463 252 457 240 c 1
 470 252 500 274 520 288 c 1
530 155 m 1
 535 194 530 246 523 285 c 1
 523 278 513 262 511 255 c 0
 513 243 520 230 518 225 c 0
 508 205 501 182 502 170 c 1
 508 170 504 175 520 175 c 0
 536 175 530 162 530 155 c 1
505 251 m 1
 492 236 475 215 463 195 c 1
 480 211 502 234 505 251 c 1
468 180 m 1
 450 166 429 138 425 117 c 1
 438 136 454 161 468 180 c 1
EndSplineSet
EndChar

StartChar: four
Encoding: 52 52 30
Width: 621
VWidth: 1050
Flags: W
HStem: -28 20 346 12<277.5 287.5 277.5 292>
VStem: 332 115 353 26 410 48<129 158 158 158 21 330> 434 136<327 384.5> 442 16<230 294 21 310> 540 30
LayerCount: 2
Back
Fore
SplineSet
571 448 m 1xd3
 570 441 570 423 570 327 c 1
 563 333 553 347 550 360 c 1
 532 371 481 365 454 366 c 1
 447 352 443 344 443 330 c 0
 443 313 446 300 452 288 c 1
 452 288 455 302 458 294 c 2
 458 21 l 1
 479 2 536 33 523 -3 c 1
 520 9 511 4 499 4 c 1
 492 -3 501 -13 508 -20 c 1
 462 -27 406 -21 353 -28 c 1
 353 161 l 2
 352 175 347 199 335 213 c 1
 332 225 339 240 341 252 c 0
 345 278 347 309 340 341 c 1
 330 347 299 346 285 346 c 0
 269 346 230 352 214 352 c 0
 199 352 195 339 182 339 c 0
 166 339 94 342 50 348 c 1
 92 376 143 410 188 467 c 0
 192 473 200 502 213 516 c 0
 263 570 323 634 370 692 c 1
 370 692 372 702 369 710 c 1
 382 700 l 1
 388 707 394 720 401 726 c 1
 415 713 l 1
 434 713 443 699 455 705 c 1
 427 687 447 646 447 594 c 0xe1
 447 523 440 384 456 384 c 0
 470 384 470 397 485 397 c 0
 501 397 485 390 491 384 c 1
 506 397 l 1
 506 390 510 384 512 384 c 2
 530 397 l 1
 530 397 541 396 548 396 c 1
 548 410 547 428 540 441 c 1
 547 441 565 448 571 448 c 1xd3
417 392 m 1
 434 378 l 1xd4
 434 391 433 413 433 427 c 1
 433 413 417 405 417 392 c 1
442 230 m 1xd3
 442 310 l 2
 443 327 425 346 419 345 c 1
 410 330 l 1xd9
 410 313 428 262 442 230 c 1xd3
397 345 m 1
 376 346 371 312 370 300 c 1
 377 312 397 331 397 345 c 1
332 372 m 1
 332 437 331 507 331 570 c 1
 264 543 215 430 146 381 c 1
 159 375 199 371 220 385 c 1
 234 371 l 1
 234 378 240 385 240 385 c 1
 251 372 270 358 285 358 c 0
 290 358 293 374 332 372 c 1
410 129 m 1
 410 158 l 1
 396 151 386 128 379 115 c 1
 386 115 395 107 395 107 c 1
 402 113 404 122 410 129 c 1
385 164 m 1
 378 164 367 157 361 157 c 1
 361 127 l 1
 368 133 378 150 385 164 c 1
440 94 m 1
 440 88 424 72 417 72 c 1
 424 66 425 50 425 50 c 1
 435 50 l 1
 442 62 440 81 440 94 c 1
EndSplineSet
EndChar

StartChar: five
Encoding: 53 53 31
Width: 621
VWidth: 1050
Flags: W
HStem: 355 20G<338.5 355 367 382 374 390> 356 271<367 406> 479 231<488 493 474 510> 524 23<358 374> 524 135<366 366> 672 13<85.5 122> 691 13<358 374> 695 15<475 493 474 498>
VStem: 165 41 175 31<285 311> 376 92 376 122 376 155 389 79 389 104 524 12<165 180.5>
LayerCount: 2
Back
Fore
SplineSet
536 201 m 0x9661
 536 107 507 109 480 35 c 1
 461 16 410 -18 394 -18 c 0
 384 -18 295 -3 261 16 c 0
 243 26 201 81 169 101 c 1
 175 108 182 110 198 110 c 0
 214 110 224 110 230 105 c 1
 247 126 237 82 243 72 c 0
 258 58 289 33 305 33 c 0
 321 33 311 38 305 44 c 1
 316 45 327 27 340 20 c 1
 352 27 357 32 364 51 c 1
 371 53 386 52 389 40 c 1
 398 52 395 61 401 100 c 1
 390 110 l 1
 390 110 383 106 376 106 c 1x9551
 383 190 382 274 389 351 c 1x9648
 382 358 391 356 375 356 c 0
 359 356 361 350 358 345 c 1
 337 345 290 321 256 288 c 0
 229 260 197 249 200 213 c 1
 207 213 191 214 185 208 c 1
 178 214 175 224 177 230 c 0
 169 253 175 282 175 308 c 0
 175 314 170 319 165 320 c 1x8e45
 170 400 165 472 157 591 c 0
 156 609 150 636 145 655 c 0
 143 662 139 666 133 670 c 0
 112 673 101 672 89 672 c 0
 82 672 90 679 84 686 c 1
 90 679 98 685 114 685 c 0
 130 685 121 698 127 704 c 1
 133 698 136 698 152 698 c 0
 169 698 163 691 178 691 c 0
 192 691 221 704 234 710 c 1xa043
 246 703 270 690 286 711 c 1
 280 705 278 704 294 704 c 0x9645
 310 704 389 704 405 704 c 0
 421 704 414 710 408 715 c 1
 426 710 455 710 493 710 c 1x9545
 493 710 504 716 510 716 c 1
 510 479 l 1
 502 485 497 485 488 479 c 1
 472 514 495 549 468 575 c 0x9685
 462 576 466 568 452 552 c 1
 457 546 470 543 470 530 c 1
 464 537 466 543 450 543 c 0
 436 543 427 532 416 526 c 0
 411 523 382 524 366 524 c 0
 350 524 268 525 219 518 c 1
 213 494 213 458 201 430 c 1
 206 285 l 1
 229 309 265 340 281 352 c 0
 296 365 317 382 333 382 c 0
 350 382 330 375 347 375 c 0
 363 375 359 378 352 385 c 2
 367 375 l 1
 367 375 366 375 382 375 c 0
 398 375 395 381 389 387 c 1
 407 375 449 380 484 359 c 0
 492 354 502 327 506 315 c 0
 514 290 530 255 531 224 c 0x4643
 530 217 536 217 536 201 c 0x9661
498 695 m 1
 452 695 382 691 366 691 c 0x4551
 350 691 278 682 240 675 c 1
 255 671 287 687 300 652 c 1
 320 667 346 679 359 685 c 1
 365 678 359 666 365 659 c 1
 378 666 390 674 394 669 c 1
 382 650 363 622 350 602 c 1
 363 609 382 627 398 627 c 0x8e45
 414 627 408 623 408 623 c 1
 395 611 389 595 376 583 c 1
 402 602 438 626 462 652 c 1
 472 643 l 1
 446 618 421 596 409 576 c 1
 435 594 465 617 491 635 c 1
 485 655 484 673 484 686 c 1
 490 686 498 695 498 695 c 1
352 547 m 2
 398 547 l 2x9645
 385 547 376 562 370 562 c 1
 365 555 359 547 352 547 c 2
276 575 m 1
 264 562 247 558 233 551 c 1
 271 551 l 1
 271 557 276 569 276 575 c 1
524 172 m 0
 524 189 515 251 509 283 c 0
 504 304 485 327 473 342 c 0
 468 349 454 362 442 361 c 2
 421 361 l 1
 436 345 466 330 468 298 c 1
 482 310 l 1
 489 305 489 301 489 301 c 1
 489 295 l 1
 485 290 491 282 493 275 c 0x9651
 491 269 498 262 498 247 c 0x9643
 498 230 491 210 494 197 c 0
 498 178 513 143 510 117 c 1
 519 134 524 158 524 172 c 0
EndSplineSet
EndChar

StartChar: six
Encoding: 54 54 32
Width: 621
VWidth: 1050
Flags: W
HStem: -26 45<303 324.5 303 365.5> 190 56 377 38<268 289.5> 710 33<362 370 346 379>
VStem: 193 42 395 119<94 300>
LayerCount: 2
Back
Fore
SplineSet
514 236 m 0
 514 127 430 -26 301 -26 c 0
 236 -26 188 9 151 77 c 0
 124 130 132 176 127 227 c 1
 120 220 112 215 106 215 c 1
 110 230 123 241 129 250 c 0
 132 256 133 280 134 293 c 0
 142 352 173 417 160 451 c 1
 176 482 186 510 195 545 c 0
 193 550 188 550 185 557 c 1
 192 585 217 633 228 667 c 1
 228 667 229 661 234 654 c 1
 244 662 266 687 251 704 c 1
 257 698 266 716 277 721 c 0
 308 733 354 743 370 743 c 0
 388 743 405 724 408 715 c 0
 408 696 420 649 420 632 c 0
 420 597 402 587 382 560 c 1
 378 567 376 581 374 593 c 1
 364 606 354 610 338 610 c 0
 296 610 224 533 208 505 c 0
 188 471 174 412 162 368 c 1
 166 346 l 1
 176 363 261 415 275 415 c 0
 378 415 514 364 514 236 c 0
370 710 m 1
 346 710 l 1
 339 693 l 1
 346 693 364 703 370 710 c 1
300 672 m 1
 277 661 233 610 233 586 c 1
 252 617 281 653 300 672 c 1
470 323 m 1
 453 339 l 1
 453 327 464 323 470 323 c 1
502 237 m 1
 495 237 477 222 470 216 c 1
 477 216 495 230 502 237 c 1
437 283 m 1
 422 274 413 259 417 246 c 1
 423 258 437 276 437 283 c 1
437 194 m 1
 430 189 416 189 410 194 c 1
 410 189 416 170 416 164 c 1
 423 176 437 189 437 194 c 1
395 104 m 0
 395 117 393 342 388 351 c 1
 356 358 297 377 282 377 c 0
 252 377 231 328 231 309 c 0
 231 220 270 187 245 26 c 1
 264 26 296 19 310 19 c 0
 339 19 315 36 381 31 c 1
 388 57 395 84 395 104 c 0
210 295 m 1
 198 283 189 252 186 233 c 1
 218 252 206 275 210 295 c 1
420 46 m 1
 413 52 411 63 411 63 c 1
 405 56 402 39 395 33 c 1
 402 33 413 46 420 46 c 1
192 301 m 1
 166 271 136 225 147 208 c 1
 165 239 180 276 192 301 c 1
192 220 m 1
 172 198 143 173 143 160 c 0
 143 145 151 138 151 132 c 1
 165 157 180 194 192 220 c 1
357 5 m 1
 329 -2 301 -5 275 -3 c 1
 310 -12 l 1
 330 -7 350 -2 357 5 c 1
235 25 m 1
 235 72 l 2
 234 60 225 47 212 34 c 1
 219 28 230 31 235 25 c 1
211 38 m 1
 211 51 200 53 193 60 c 1
 200 72 203 85 210 97 c 1
 203 85 189 71 181 59 c 1
 188 53 205 38 211 38 c 1
EndSplineSet
EndChar

StartChar: seven
Encoding: 55 55 33
Width: 621
VWidth: 1050
Flags: W
HStem: -11 20 -4 25 14 18<349 364 343 382> 511 13<237.5 240> 518 146<257 344> 550 144<141 227> 613 56 681 13
LayerCount: 2
Back
Fore
SplineSet
552 711 m 1xb3
 510 653 469 567 450 508 c 0
 443 487 403 445 384 388 c 0
 353 295 314 191 284 100 c 0
 279 87 257 50 244 25 c 1
 285 13 311 33 349 32 c 2
 382 32 l 1
 382 26 380 14 364 14 c 2
 343 14 l 1
 336 8 350 2 350 -4 c 1x53
 250 2 125 -5 109 -5 c 1
 90 -11 l 1xa9
 83 -5 75 1 75 7 c 1
 119 6 159 7 220 13 c 1
 220 20 222 21 207 29 c 1
 395 495 l 1
 371 522 358 518 330 518 c 0
 313 518 256 511 240 511 c 2x53
 217 511 l 2
 203 511 144 507 124 490 c 0
 108 479 97 442 85 417 c 1
 85 417 74 420 68 426 c 1
 75 439 85 451 85 464 c 0
 85 476 83 496 85 509 c 0
 89 535 100 566 104 597 c 0
 106 604 112 610 113 616 c 0
 121 655 130 670 127 707 c 1
 141 694 l 1
 147 700 150 712 150 718 c 1
 156 718 163 700 178 700 c 0
 194 700 430 694 446 694 c 0
 460 694 498 713 512 713 c 0
 528 713 518 707 525 700 c 1
 530 707 535 712 535 719 c 1
 535 719 547 711 552 711 c 1xb3
395 659 m 1
 390 666 383 673 389 679 c 1
 326 679 290 674 265 681 c 1
 265 674 257 664 257 664 c 1x53
 283 664 320 669 335 669 c 0x49
 351 669 369 655 372 644 c 1
 379 650 390 653 395 659 c 1
370 610 m 1
 364 610 354 618 348 612 c 1
 327 619 337 600 320 582 c 1
 339 589 364 598 370 610 c 1
282 610 m 1
 263 610 251 601 251 594 c 1
 258 594 275 604 282 610 c 1
281 567 m 1
 263 554 245 536 229 536 c 0
 213 536 235 550 219 550 c 0x54
 204 550 201 539 194 532 c 1
 207 532 230 524 245 524 c 0
 260 524 269 554 281 567 c 1
EndSplineSet
EndChar

StartChar: eight
Encoding: 56 56 34
Width: 621
VWidth: 1050
Flags: W
HStem: 330 57 335 38<256 271 256 272> 688 25<350 366 317.5 372 350 350>
VStem: 147 20<418 481> 147 87<469 481> 380 32<258 271 229 275> 388 19<115 115 115 115.5> 388 117 518 19<141.5 177>
LayerCount: 2
Back
Fore
SplineSet
537 156 m 0x7180
 537 127 478 42 447 29 c 1
 496 89 518 113 518 169 c 0
 518 185 495 248 476 285 c 1
 471 282 468 269 455 256 c 1
 461 244 474 238 487 226 c 1
 481 212 474 199 466 190 c 1
 466 184 l 1
 472 190 479 190 486 190 c 1
 486 184 492 170 505 170 c 1
 494 154 487 124 471 106 c 1
 485 78 435 27 411 27 c 0
 397 27 388 33 374 28 c 1
 374 38 388 67 388 87 c 0
 388 144 380 250 380 266 c 0x6980
 380 284 393 319 405 332 c 1
 398 338 408 342 392 342 c 0
 380 342 351 330 335 330 c 0
 320 330 288 335 256 335 c 1xb480
 256 335 252 342 233 342 c 1
 226 330 222 320 222 307 c 0
 222 144 216 128 216 111 c 0
 216 96 228 64 228 38 c 1
 259 38 298 44 342 37 c 1
 323 24 306 11 285 5 c 1
 310 -1 342 0 386 -7 c 1
 371 -23 l 1
 239 -13 84 -38 84 130 c 0
 84 194 98 291 190 364 c 1
 149 401 147 428 147 465 c 0
 147 497 173 570 192 605 c 0
 230 670 293 713 342 713 c 0
 390 713 494 670 503 616 c 0
 508 588 518 532 518 515 c 0
 518 461 500 389 436 351 c 1
 470 331 537 210 537 156 c 0x7180
493 590 m 0
 493 606 470 637 458 656 c 1
 451 637 450 613 444 594 c 1
 456 601 469 602 481 601 c 1
 481 585 l 1
 474 572 470 558 466 550 c 1
 475 563 493 576 493 590 c 0
453 581 m 1
 447 587 438 587 438 587 c 1
 438 550 l 1
 450 562 459 581 453 581 c 1
505 507 m 1
 505 519 496 537 496 550 c 1
 490 530 475 506 470 487 c 1
 482 500 497 507 505 507 c 1
498 461 m 1
 479 435 450 399 444 380 c 1
 456 387 474 406 484 418 c 0
 492 430 491 449 498 461 c 1
421 503 m 0
 420 515 429 536 420 542 c 1
 404 586 391 637 372 688 c 1
 350 688 l 1
 312 669 265 660 255 642 c 0
 230 596 234 490 234 477 c 0
 234 461 233 437 236 420 c 0
 239 407 249 373 263 373 c 0
 279 373 346 391 390 385 c 1
 387 369 l 1
 406 378 430 432 421 503 c 0
220 574 m 2
 197 552 l 1
 203 547 214 544 214 544 c 1
 214 550 220 569 220 574 c 2
430 332 m 1
 424 338 412 341 412 341 c 1x7480
 412 341 414 320 414 313 c 1
 414 320 424 326 430 332 c 1
467 292 m 1
 467 298 451 316 445 323 c 1
 440 310 425 292 417 288 c 1
 430 288 454 292 467 292 c 1
455 277 m 1
 436 277 418 271 412 271 c 1
 412 229 l 1
 426 241 442 264 455 277 c 1
220 423 m 1
 214 417 208 399 214 392 c 1
 214 399 220 417 220 423 c 1
441 196 m 1
 431 190 426 190 419 196 c 1
 419 190 426 178 426 172 c 1
 431 178 441 190 441 196 c 1
190 448 m 1
 184 448 172 442 167 442 c 1
 167 418 l 1
 180 424 190 442 190 448 c 1
407 115 m 1x7280
 454 164 l 1
 429 154 403 153 407 115 c 1x7280
177 284 m 1
 174 283 141 247 136 229 c 1
 149 248 170 271 177 284 c 1
210 207 m 0
 210 222 201 222 201 229 c 1
 189 203 173 172 160 153 c 1
 179 172 210 190 210 207 c 0
129 226 m 1
 128 230 126 241 126 248 c 1
 119 234 111 209 115 197 c 1
 118 210 125 224 129 226 c 1
177 9 m 1
 177 21 166 24 159 30 c 1
 166 36 166 44 171 50 c 1
 166 50 169 46 153 46 c 0
 137 46 145 65 145 70 c 2
 121 49 l 1
 140 30 163 14 177 9 c 1
EndSplineSet
EndChar

StartChar: nine
Encoding: 57 57 35
Width: 621
VWidth: 1050
Flags: W
HStem: -44 148 -30 134 66 272 324 14 324 27
VStem: 426 36 426 81 527 22<509 509.5 440 546.5>
LayerCount: 2
Back
Fore
SplineSet
549 491 m 0x8b
 549 389 508 338 450 211 c 1
 450 211 453 205 455 197 c 1
 398 130 350 59 300 -7 c 1
 282 -14 250 -37 237 -36 c 1
 230 -30 229 -44 211 -44 c 0
 194 -44 211 -30 194 -30 c 0x53
 179 -30 158 -36 142 -43 c 1
 139 -5 94 -23 71 -12 c 1
 79 -12 86 -5 79 3 c 1
 135 3 l 1
 163 27 138 56 133 84 c 1
 140 90 156 99 161 104 c 1
 196 99 245 113 284 114 c 1
 350 153 460 241 474 340 c 1
 466 347 445 337 430 338 c 1
 417 325 l 1
 380 318 299 342 271 304 c 1
 271 310 270 319 268 326 c 0
 253 339 230 337 210 347 c 0
 174 366 127 442 127 457 c 0
 127 506 146 617 190 655 c 0
 222 681 337 727 385 727 c 0
 430 727 489 689 518 641 c 0
 540 607 549 528 549 491 c 0x8b
514 615 m 1
 507 626 490 641 490 649 c 2
 490 618 l 1
 495 618 507 619 514 615 c 1
500 603 m 1
 493 603 481 594 481 594 c 1
 488 588 491 576 491 576 c 2
 491 584 500 596 500 603 c 1
527 509 m 1
 527 584 519 604 519 610 c 1
 511 590 501 566 510 552 c 1
 500 532 489 509 490 495 c 1
 503 509 519 515 527 509 c 1
481 559 m 1
 462 576 l 1x55
 462 576 462 543 462 530 c 1
 470 536 474 552 481 559 c 1
438 672 m 1
 438 679 432 698 432 705 c 1
 411 705 385 720 369 720 c 0
 352 720 304 698 279 685 c 1
 270 650 263 585 263 570 c 0
 263 552 284 422 284 347 c 1
 295 340 312 338 328 338 c 0
 345 338 354 351 371 351 c 0x23
 389 351 369 338 385 338 c 0x4b
 401 338 412 346 425 346 c 1
 425 387 417 450 424 505 c 0
 430 564 418 637 399 681 c 1
 412 688 428 679 438 672 c 1
234 664 m 1
 208 653 170 604 170 584 c 1
 190 610 214 643 234 664 c 1
241 624 m 1
 218 606 194 572 175 543 c 1
 203 570 228 603 241 624 c 1
226 556 m 1
 212 529 196 495 190 474 c 1
 203 502 226 535 226 556 c 1
240 501 m 1
 226 489 207 459 203 441 c 1
 224 459 239 490 240 501 c 1
194 409 m 1
 186 412 l 2
 181 416 176 445 160 451 c 1
 167 472 179 508 193 535 c 1
 180 521 162 507 148 501 c 1
 145 465 155 404 194 409 c 1
336 126 m 1
 330 119 310 109 304 101 c 1
 316 104 331 116 336 126 c 1
357 98 m 1
 331 83 327 59 292 66 c 1
 286 58 285 38 285 31 c 1
 313 60 334 61 357 98 c 1
EndSplineSet
EndChar

StartChar: colon
Encoding: 58 58 36
Width: 252
VWidth: 1050
Flags: W
VStem: 71 58<85 93 93 105 85 125 85 125> 71 121<116 125 125 125>
LayerCount: 2
Back
Fore
SplineSet
155 330 m 1x40
 161 307 l 1
 155 274 l 1
 134 269 l 1
 71 330 l 1
 100 410 l 1
 117 419 l 1
 158 387 l 1
 161 375 l 1
 155 330 l 1x40
192 133 m 1
 192 116 l 1
 170 113 l 1
 164 108 l 1
 167 82 l 1
 181 70 l 1
 181 61 l 1
 181 50 l 1
 144 64 l 1
 131 58 l 1
 114 58 l 1
 77 64 l 1
 71 85 l 1
 71 125 l 1
 101 162 l 1
 103 165 l 1
 106 170 l 1
 131 176 l 1
 137 176 l 1
 144 168 l 1
 161 153 l 1
 172 156 l 1
 187 142 l 1
 192 133 l 1
123 332 m 1
 137 352 l 1
 129 378 l 1x80
 123 358 l 1
 117 338 l 1
 117 330 l 1
 123 332 l 1
147 119 m 1
 152 130 l 1
 140 122 l 1
 129 105 l 1
 129 93 l 1
 129 85 l 1
 140 85 l 1
 140 105 l 1
 147 119 l 1
EndSplineSet
EndChar

StartChar: semicolon
Encoding: 59 59 37
Width: 267
VWidth: 1050
Flags: W
HStem: 152 21G
VStem: 51 136<75 148> 60 121<301 387 387 387 387 392 387 392> 170 17<119 136 136 136>
LayerCount: 2
Back
Fore
SplineSet
184 364 m 1xa0
 201 341 l 1
 167 321 187 318 184 289 c 1
 198 318 l 1
 212 263 171 252 111 254 c 1
 103 266 l 1
 60 301 l 1
 60 330 l 1
 60 392 l 1
 74 347 85 362 80 387 c 1
 94 428 l 1
 120 422 l 1
 140 433 l 1
 164 428 l 1
 175 425 l 1
 190 410 l 1
 198 375 l 1
 181 387 l 1
 175 372 l 1
 184 364 l 1xa0
187 148 m 1
 187 105 l 1xc0
 175 27 l 1
 158 1 l 1
 140 -22 l 1
 100 -57 l 1
 77 -66 l 1
 40 -91 l 1
 57 -60 l 1
 49 -40 l 1
 86 -19 l 1
 120 7 l 1
 137 21 l 1
 155 47 l 1
 152 70 l 1
 140 55 l 1
 131 44 l 1
 123 41 l 1
 106 35 l 1
 89 44 l 1
 80 58 l 1
 71 75 l 1
 66 61 l 1
 74 44 l 1
 86 32 l 1
 83 15 l 1
 60 38 l 1xa0
 51 75 l 1xc0
 57 156 l 1
 120 173 l 1
 155 173 l 1
 187 148 l 1
158 105 m 1
 170 119 l 1x90
 170 136 l 1
 158 145 l 1
 140 153 l 1
 123 153 l 1
 111 122 l 1
 129 125 l 1
 123 105 l 1
 140 108 l 1
 120 85 l 1
 131 88 l 1
 158 105 l 1
EndSplineSet
EndChar

StartChar: less
Encoding: 60 60 38
Width: 360
VWidth: 1050
Flags: W
HStem: 326 7
VStem: 87 7
LayerCount: 2
Back
Fore
SplineSet
377 570 m 1
 326 475 204 389 114 353 c 1
 94 333 l 1
 169 251 l 1
 157 244 161 231 161 220 c 1
 251 173 263 94 322 24 c 1
 263 63 l 1
 263 24 l 1
 130 87 114 209 20 307 c 1
 169 365 216 570 377 570 c 1
74 326 m 1
 87 298 l 1
 87 326 l 1
 74 326 l 1
EndSplineSet
EndChar

StartChar: equal
Encoding: 61 61 39
Width: 521
VWidth: 1050
Flags: W
HStem: 310 45
LayerCount: 2
Back
Fore
SplineSet
527 341 m 1
 513 333 478 333 465 315 c 1
 472 306 486 313 495 310 c 1
 395 315 254 323 151 323 c 1
 156 329 l 1
 151 339 136 333 126 333 c 1
 244 365 409 357 527 341 c 1
490 130 m 1
 368 115 208 110 90 112 c 1
 198 164 372 144 490 130 c 1
EndSplineSet
EndChar

StartChar: greater
Encoding: 62 62 40
Width: 401
VWidth: 1050
Flags: W
HStem: 6 20 261 11<190 206 190 206>
VStem: 190 16<261 272 261 272>
LayerCount: 2
Back
Fore
SplineSet
330 315 m 1
 350 335 l 1
 288 226 170 76 29 6 c 1
 68 128 213 217 303 296 c 1
 232 390 108 410 41 504 c 1
 88 508 25 535 56 550 c 1
 158 492 299 433 330 315 c 1
206 272 m 1
 206 261 l 1
 190 261 l 1
 190 272 l 1
 206 272 l 1
EndSplineSet
EndChar

StartChar: question
Encoding: 63 63 41
Width: 431
VWidth: 1050
Flags: W
HStem: -4 20 485 228
VStem: 80 179 275 112 373 14
LayerCount: 2
Back
Fore
SplineSet
377 652 m 1xf0
 409 546 364 448 295 372 c 1
 150 370 220 200 157 147 c 1
 195 131 239 122 257 78 c 0
 267 44 235 21 220 3 c 1
 191 -10 157 -1 129 -4 c 1
 101 12 72 40 82 78 c 1
 201 106 138 238 157 319 c 1
 150 329 l 1
 198 345 235 394 280 417 c 1
 257 508 327 627 249 674 c 1
 126 658 176 445 16 492 c 1
 70 577 107 730 249 711 c 1
 286 702 355 706 377 652 c 1xf0
355 630 m 1
 364 630 l 1
 364 639 l 1
 355 639 l 1
 355 630 l 1
361 583 m 1
 373 583 l 1xe8
 373 595 l 1
 361 595 l 1
 361 583 l 1
227 56 m 1
 242 71 l 1
 242 84 227 90 220 103 c 1
 227 56 l 1
182 50 m 1
 191 50 l 1
 191 59 l 1
 182 59 l 1
 182 50 l 1
EndSplineSet
EndChar

StartChar: at
Encoding: 64 64 42
Width: 685
VWidth: 1050
Flags: W
HStem: 1 25<363.5 371.5 357 388> 169 13<250 285 250 289> 169 37 212 41 442 18<344 378> 616 31<400 416> 622 25<362.5 416 400 438> 622 37<362.5 381.5 352 391 424.5 438>
VStem: 175 87 175 236<257.5 272.5 257.5 284>
LayerCount: 2
Back
Fore
SplineSet
649 379 m 1xda80
 677 386 630 339 630 338 c 0
 615 313 612 282 584 264 c 0
 545 240 504 212 470 212 c 0
 447 212 414 238 395 262 c 1
 380 246 l 1
 386 240 392 241 398 241 c 1
 336 208 313 169 265 169 c 0
 205 169 175 236 175 277 c 0
 175 291 179 302 179 314 c 0
 179 326 195 347 202 365 c 0
 208 383 227 404 245 420 c 0
 251 423 257 423 263 424 c 1
 263 424 269 428 266 431 c 1
 287 440 336 460 352 460 c 0
 368 460 391 437 404 421 c 1
 398 425 399 430 383 430 c 0
 368 430 386 442 370 442 c 0
 355 442 323 424 292 418 c 1
 286 362 268 303 262 241 c 1
 268 234 274 218 290 218 c 0
 306 218 311 212 328 212 c 0
 341 212 373 253 397 286 c 0
 408 299 411 327 419 347 c 0
 430 377 446 410 454 442 c 1
 464 386 467 322 467 260 c 1
 487 245 501 266 520 237 c 1
 531 249 548 253 555 266 c 1
 567 322 572 427 572 442 c 0
 572 455 567 500 564 530 c 1
 564 530 562 535 557 539 c 0
 533 550 518 573 521 593 c 1
 512 603 444 622 432 622 c 0
 417 622 424 616 408 616 c 0xd940
 392 616 399 622 383 622 c 0xdc80
 342 622 227 550 221 546 c 0
 195 524 159 482 132 443 c 0
 123 429 107 310 107 287 c 0
 107 272 109 248 110 228 c 0
 113 199 130 160 139 123 c 0
 143 108 213 38 240 38 c 0
 256 38 349 26 365 26 c 0
 378 26 435 30 469 51 c 0
 504 74 530 104 565 118 c 1
 565 57 l 1
 559 57 550 70 545 75 c 1
 520 49 406 1 370 1 c 0
 357 1 302 19 290 19 c 0
 277 19 271 13 256 13 c 0
 144 13 20 95 20 228 c 0
 20 241 38 334 47 382 c 1
 75 434 116 505 158 563 c 0
 163 568 331 659 373 659 c 0
 390 659 392 647 408 647 c 0xd980
 424 647 417 659 432 659 c 0xdc80
 449 659 434 652 440 648 c 0
 474 640 509 650 534 625 c 0
 556 603 594 564 613 527 c 0
 637 482 639 423 649 379 c 1xda80
380 639 m 1
 353 637 331 643 319 617 c 1
 344 623 373 632 380 639 c 1
243 584 m 1
 230 577 207 561 201 549 c 1
 213 554 230 570 243 584 c 1
448 231 m 1
 441 244 429 258 424 265 c 1
 436 284 441 305 447 324 c 1
 434 310 411 280 411 265 c 0
 411 250 435 238 448 231 c 1
285 182 m 1
 292 192 l 1
 258 192 l 1
 250 182 l 1
 285 182 l 1
229 236 m 1
 223 230 230 230 215 230 c 0
 200 230 200 242 194 242 c 1
 200 230 210 212 215 206 c 1xbc80
 222 212 229 224 229 236 c 1
112 108 m 1
 107 120 97 137 91 150 c 1
 82 131 l 1
 82 117 107 108 112 108 c 1
EndSplineSet
EndChar

StartChar: parenright
Encoding: 41 41 43
Width: 354
VWidth: 1050
Flags: W
VStem: 170 50<562 644> 282 13
LayerCount: 2
Back
Fore
SplineSet
110 539 m 1
 117 546 104 529 96 529 c 1
 99 533 104 546 110 539 c 1
295 448 m 0
 295 396 267 153 258 135 c 0
 241 99 197 30 178 -26 c 0
 167 -54 115 -53 87 -76 c 1
 129 -16 170 -31 170 40 c 2
 170 519 l 1
 162 525 143 510 146 536 c 1
 158 522 150 538 164 538 c 1
 164 544 170 554 170 570 c 0
 170 586 160 710 160 766 c 0
 160 779 153 802 141 812 c 0
 118 830 79 843 44 864 c 1
 51 870 58 881 75 881 c 0
 91 881 110 873 123 871 c 1
 174 829 232 716 249 649 c 0
 253 642 261 627 265 620 c 0
 266 596 265 548 283 534 c 1
 289 510 295 462 295 448 c 0
106 -14 m 1
 125 -7 l 1
 112 -24 l 1
 105 -40 l 1
 103 -44 l 1
 73 -51 l 1
 94 -33 l 1
 104 -19 l 1
 106 -14 l 1
193 700 m 1
 210 726 l 1
 201 726 198 724 192 719 c 1
 191 714 l 1
 185 697 l 1
 181 684 l 1
 183 676 190 681 190 682 c 2
 195 687 l 1
 193 700 l 1
202 653 m 1
 215 684 l 1
 202 677 l 1
 192 676 l 1
 189 662 l 1
 178 656 175 634 185 631 c 1
 195 647 l 1
 202 649 l 1
 202 653 l 1
227 641 m 1
 235 650 l 1
 237 668 236 678 219 676 c 1
 220 644 l 1
 220 621 l 1
 202 591 l 1
 230 613 l 1
 230 618 l 1
 237 616 239 619 227 641 c 1
238 601 m 1
 199 566 l 2
 191 559 200 532 190 511 c 1
 207 539 231 573 238 601 c 1
268 493 m 1
 261 500 258 518 258 525 c 1
 250 504 235 483 235 469 c 1
 242 476 261 487 268 493 c 1
282 395 m 0
 282 412 270 412 270 412 c 1
 264 391 255 365 241 344 c 1
 255 358 282 378 282 395 c 0
231 447 m 1
 205 432 176 379 179 357 c 1
 200 385 218 419 231 447 c 1
246 321 m 1
 233 314 215 301 202 294 c 1
 195 301 198 304 198 304 c 1
 211 325 217 350 224 370 c 1
 183 337 177 317 177 297 c 0
 177 280 186 252 186 231 c 1
 208 259 231 293 246 321 c 1
266 259 m 1
 241 236 l 1
 241 183 l 1
 262 190 265 244 266 259 c 1
217 230 m 1
 196 210 178 181 179 169 c 1
 193 190 210 216 217 230 c 1
218 165 m 1
 228 187 l 1
 211 173 l 1
 210 169 l 1
 206 138 l 1
 193 127 l 1
 196 113 l 1
 215 128 l 1
 218 165 l 1
EndSplineSet
EndChar

StartChar: asterisk
Encoding: 42 42 44
Width: 486
VWidth: 1050
Flags: W
HStem: 547 114<293 308.5>
VStem: 157 274
LayerCount: 2
Back
Fore
SplineSet
448 673 m 1
 438 661 412 646 388 627 c 1
 393 620 399 623 406 623 c 1
 406 601 l 2
 407 588 390 580 379 574 c 0
 350 560 316 547 301 547 c 0
 285 547 290 542 284 535 c 1
 283 524 297 508 313 508 c 0
 330 508 320 508 327 514 c 1
 332 508 330 508 330 492 c 0
 330 476 400 430 431 397 c 1
 431 373 l 1
 418 380 407 406 390 406 c 0
 374 406 390 399 374 399 c 0
 366 399 312 463 257 476 c 1
 239 442 225 392 211 348 c 1
 206 354 197 367 191 373 c 1
 179 367 170 349 157 342 c 1
 170 393 183 432 195 471 c 1
 165 474 108 447 70 425 c 1
 70 425 61 433 54 433 c 1
 59 438 73 447 86 460 c 1
 79 467 67 467 60 473 c 1
 99 487 131 507 170 532 c 1
 170 555 l 1
 131 587 92 622 67 660 c 1
 140 672 171 624 223 591 c 1
 236 610 241 636 254 661 c 1
 310 661 l 1
 304 649 299 623 302 591 c 1
 347 616 399 648 448 673 c 1
150 606 m 1
 147 627 106 634 99 634 c 1
 106 628 143 606 150 606 c 1
EndSplineSet
EndChar

StartChar: plus
Encoding: 43 43 45
Width: 483
VWidth: 1050
Flags: W
HStem: 41 309 330 19
LayerCount: 2
Back
Fore
SplineSet
413 376 m 1x40
 463 376 l 1
 466 334 430 324 413 300 c 1
 413 317 l 1
 302 363 235 282 229 181 c 1
 242 129 208 93 197 49 c 1
 204 41 l 1x80
 127 49 l 1
 200 101 197 216 229 300 c 1
 179 324 85 282 61 334 c 1
 113 376 l 1
 120 321 197 370 239 359 c 1
 246 418 291 489 263 544 c 1
 291 533 309 562 336 551 c 1
 330 481 323 397 281 359 c 1
 323 349 396 338 430 366 c 1
 413 376 l 1x40
EndSplineSet
EndChar

StartChar: comma
Encoding: 44 44 46
Width: 197
VWidth: 1050
Flags: W
VStem: 50 31 50 89<58.5 66.5>
LayerCount: 2
Back
Fore
SplineSet
139 64 m 0x80
 139 53 130 41 127 31 c 0
 126 29 127 18 124 10 c 0
 117 -10 91 -45 59 -53 c 1
 59 -34 l 2
 59 -25 72 -13 81 -3 c 1x40
 77 1 72 5 73 10 c 1
 47 32 50 36 50 59 c 0
 50 74 51 110 86 110 c 0
 107 110 139 88 139 64 c 0x80
108 53 m 1
 99 53 86 52 81 44 c 1x80
 86 39 88 33 88 33 c 1
 91 38 99 50 108 53 c 1
EndSplineSet
EndChar

StartChar: hyphen
Encoding: 45 45 47
Width: 426
VWidth: 1050
Flags: W
HStem: 261 74 317 18
LayerCount: 2
Back
Fore
SplineSet
361 299 m 1x80
 255 291 135 230 18 280 c 1
 93 321 188 351 282 325 c 1
 286 317 278 313 270 306 c 1
 297 291 330 303 361 299 c 1x80
147 306 m 1
 172 317 l 1x40
 153 317 l 1
 147 306 l 1
EndSplineSet
EndChar

StartChar: period
Encoding: 46 46 48
Width: 201
VWidth: 1050
Flags: W
HStem: 9 70<82.5 150> 9 72<82.5 85.5 63 104>
VStem: 48 102
LayerCount: 2
Back
Fore
SplineSet
150 79 m 1xa0
 150 58 l 1
 130 42 120 9 88 9 c 0
 77 9 61 14 48 23 c 1
 67 77 46 81 80 81 c 0
 91 81 145 79 150 79 c 1xa0
EndSplineSet
EndChar

StartChar: slash
Encoding: 47 47 49
Width: 509
VWidth: 1050
Flags: W
HStem: -19 21G<83 83>
VStem: 30 535
LayerCount: 2
Back
Fore
SplineSet
565 779 m 1
 558 772 544 763 539 756 c 0
 480 638 415 514 361 395 c 0
 298 260 211 29 62 -107 c 1
 50 -102 30 -70 30 -54 c 0
 30 -39 50 -3 61 8 c 0
 214 150 235 295 315 431 c 1
 315 431 319 435 311 442 c 1
 305 435 286 435 279 429 c 1
 327 503 367 610 438 684 c 0
 459 705 459 748 470 789 c 1
 482 789 510 796 527 796 c 0
 545 796 551 786 565 779 c 1
294 325 m 1
 416 554 l 1
 406 586 l 1
 361 478 l 1
 330 405 l 1
 294 325 l 1
93 -33 m 1
 152 43 l 1
 117 22 l 1
 83 -19 l 1
 93 -33 l 1
EndSplineSet
EndChar

StartChar: quotesingle
Encoding: 39 39 50
Width: 134
VWidth: 1050
Flags: W
VStem: 86 40<439 465>
LayerCount: 2
Back
Fore
SplineSet
144 517 m 1
 150 505 l 1
 140 490 l 1
 129 479 l 1
 117 470 l 1
 126 465 l 1
 126 442 l 1
 114 425 l 1
 111 419 l 1
 106 433 100 439 86 439 c 1
 80 502 l 1
 110 533 95 531 80 551 c 1
 75 567 74 588 86 603 c 1
 103 614 110 661 140 603 c 1
 140 566 l 1
 147 540 l 1
 144 517 l 1
EndSplineSet
EndChar

StartChar: parenleft
Encoding: 40 40 51
Width: 251
VWidth: 1050
Flags: W
VStem: 47 93 149 38
LayerCount: 2
Back
Fore
SplineSet
279 -71 m 1
 271 -78 265 -94 271 -101 c 1
 182 -75 122 21 80 127 c 1
 70 115 l 1
 78 94 83 77 85 56 c 1
 85 56 88 47 95 53 c 1
 88 47 89 36 89 29 c 1
 72 85 52 150 47 206 c 0
 40 282 29 421 29 439 c 0
 29 457 43 450 33 484 c 1
 48 532 60 587 66 630 c 0
 69 653 111 731 129 782 c 0
 134 785 142 799 150 801 c 1
 155 807 164 810 157 817 c 1
 164 810 161 813 178 813 c 0
 195 813 174 828 192 828 c 0
 208 828 236 841 257 848 c 1
 257 815 l 1
 231 809 174 730 174 710 c 0
 174 695 183 671 186 658 c 0
 194 618 175 524 202 490 c 1
 195 490 175 482 169 482 c 1
 170 495 172 513 165 522 c 1
 151 467 140 372 140 355 c 0
 140 341 148 179 158 89 c 0
 161 63 168 20 183 0 c 0
 208 -33 258 -57 279 -71 c 1
27 346 m 1
 34 280 l 1
 19 318 l 1
 17 346 l 1
 10 371 l 2
 13 368 17 370 16 377 c 2
 26 398 l 1
 27 361 l 1
 27 346 l 1
125 9 m 1
 130 1 l 1
 116 -3 l 1
 114 2 l 1
 108 18 l 1
 106 23 l 1
 114 27 l 1
 116 22 l 1
 125 9 l 1
153 -40 m 1
 182 -59 l 1
 152 -52 l 1
 150 -48 l 1
 122 -10 l 1
 119 -7 l 1
 134 -1 l 1
 136 -10 l 1
 153 -40 l 1
173 746 m 1
 173 771 l 1
 147 768 135 729 126 712 c 1
 133 706 146 704 146 704 c 1
 142 716 152 739 173 746 c 1
133 672 m 1
 119 679 116 695 116 710 c 1
 110 675 93 633 87 599 c 1
 100 620 119 651 133 672 c 1
179 501 m 1
 179 557 178 619 171 675 c 1
 171 647 163 619 163 598 c 1
 153 610 l 1
 161 637 159 668 157 695 c 1
 157 668 140 633 140 616 c 0
 140 598 147 602 149 594 c 0
 147 570 150 536 150 509 c 1
 154 536 137 564 163 591 c 1
 170 560 166 526 179 501 c 1
130 570 m 1
 116 550 106 523 100 502 c 1
 107 509 114 522 121 522 c 1
 129 515 130 515 130 509 c 1
 129 530 130 550 130 570 c 1
97 577 m 1
 70 556 68 529 67 509 c 1
 73 529 90 556 97 577 c 1
132 478 m 1
 102 486 96 446 85 435 c 1
 91 429 104 426 104 426 c 1
 104 439 126 465 132 478 c 1
110 424 m 1
 90 407 50 358 50 331 c 0
 50 313 60 307 60 300 c 1
 73 342 97 390 110 424 c 1
110 354 m 1
 83 327 70 290 50 269 c 1
 56 262 69 258 69 258 c 1
 81 284 99 332 110 354 c 1
137 251 m 1
 130 230 121 203 114 182 c 1
 128 203 138 232 137 251 c 1
125 250 m 1
 111 243 77 210 77 192 c 0
 77 175 88 175 88 168 c 1
 94 195 111 230 125 250 c 1
117 161 m 1
 110 153 103 133 110 127 c 1
 110 133 117 153 117 161 c 1
EndSplineSet
EndChar

StartChar: exclam
Encoding: 33 33 52
Width: 330
VWidth: 1050
Flags: W
HStem: -75 11 -75 97 31 121 31 127 174 18 174 305
LayerCount: 2
Back
Fore
SplineSet
344 800 m 1x58
 338 788 317 775 306 769 c 1
 303 701 270 599 252 529 c 0
 250 522 257 510 259 507 c 0
 241 443 228 376 210 310 c 1
 225 318 242 344 262 371 c 1
 270 320 149 217 107 217 c 0
 91 217 85 224 71 217 c 1
 71 245 91 291 101 322 c 0
 106 337 98 372 105 396 c 0
 151 558 141 577 165 664 c 0
 170 681 197 716 204 743 c 1
 196 750 170 742 150 743 c 1
 186 760 257 790 306 790 c 0
 314 790 330 793 344 800 c 1x58
244 95 m 0
 244 24 175 -75 101 -75 c 0
 77 -75 37 -61 15 -40 c 1
 10 30 37 73 79 133 c 1
 78 139 72 140 72 146 c 1
 79 150 90 166 102 173 c 0
 118 182 152 192 167 192 c 0
 179 192 211 172 224 157 c 0
 235 143 244 110 244 95 c 0
242 728 m 1
 232 728 l 1
 220 716 211 680 206 660 c 1
 226 687 249 720 242 728 c 1
255 673 m 1
 235 652 216 629 211 613 c 1
 229 621 253 654 255 673 c 1
214 532 m 1
 207 519 190 491 192 479 c 1xa4
 206 492 214 519 214 532 c 1
196 464 m 1
 173 462 162 429 167 411 c 1
 173 425 190 450 196 464 c 1
153 361 m 1
 140 348 125 331 118 318 c 1
 131 331 146 343 153 361 c 1
136 302 m 1
 130 302 136 297 120 297 c 0
 103 297 115 307 113 314 c 1
 103 303 104 290 90 283 c 1
 90 245 l 1
 97 245 108 237 114 237 c 1
 121 244 134 264 134 270 c 1
 128 264 116 261 110 268 c 1
 116 281 130 295 136 302 c 1
156 181 m 1
 135 172 100 170 90 142 c 1
 96 148 108 152 121 152 c 0
 135 152 118 158 132 158 c 0x54
 147 158 156 175 156 181 c 1
237 99 m 1
 223 110 215 164 164 174 c 1
 170 169 170 162 175 156 c 1
 164 151 151 148 141 137 c 1
 152 143 164 150 170 144 c 1
 158 127 142 109 130 97 c 1
 135 97 149 107 154 112 c 1
 160 101 164 95 164 81 c 0
 164 69 147 59 135 46 c 1
 152 46 172 58 181 52 c 1
 175 41 170 28 170 22 c 1
 181 28 193 35 204 30 c 1
 198 24 192 11 187 6 c 1
 230 27 216 73 237 99 c 1
157 31 m 1
 115 17 88 -20 55 -50 c 1
 78 -50 94 -46 100 -46 c 1
 96 -15 142 16 157 31 c 1
123 -43 m 1
 111 -49 95 -54 84 -54 c 1
 90 -60 104 -58 110 -64 c 1x94
 115 -58 117 -49 123 -43 c 1
61 19 m 1
 41 17 52 37 50 44 c 1
 32 36 27 10 27 -1 c 0
 27 -10 34 -28 49 -44 c 1
 30 -19 37 16 61 19 c 1
EndSplineSet
EndChar

StartChar: quotedbl
Encoding: 34 34 53
Width: 248
VWidth: 1050
Flags: W
HStem: 519 9 654 20G<137 137> 701 23
VStem: 64 20<645 663 645 645> 202 28 219 51
LayerCount: 2
Back
Fore
SplineSet
275 710 m 1xd4
 274 703 265 651 274 637 c 1
 257 620 l 2
 250 610 242 590 261 580 c 1xd4
 247 559 l 2
 241 551 228 547 230 530 c 1
 219 516 213 515 202 528 c 1
 203 550 207 565 208 571 c 2xd8
 190 676 l 1
 174 687 223 631 219 663 c 2
 210 713 l 1
 226 690 261 712 275 710 c 1xd4
138 615 m 1
 154 571 l 1
 150 548 147 533 131 530 c 2
 97 525 l 2
 98 528 102 549 121 555 c 1
 108 562 94 577 88 591 c 0
 82 611 78 616 68 626 c 1
 59 653 64 689 73 715 c 1
 94 726 107 728 129 715 c 1
 154 710 l 1xf4
 155 682 150 681 137 674 c 1
 138 615 l 1
112 687 m 1
 118 701 l 1
 92 684 l 1
 84 663 l 1
 84 645 l 1
 100 662 l 1
 112 687 l 1
EndSplineSet
EndChar

StartChar: numbersign
Encoding: 35 35 54
Width: 664
VWidth: 1050
Flags: W
HStem: 246 42<552 593.5 552 593.5 578 625> 257 31<589.5 593.5 578 605> 270 18 276 12 443 12<655.5 658> 443 73<655 658> 475 16 654 21G
VStem: 346 255
LayerCount: 2
Back
Fore
SplineSet
702 453 m 2x8b80
 702 453 687 443 678 436 c 1
 662 449 l 1
 662 449 666 443 650 443 c 0
 635 443 644 443 638 449 c 1
 627 436 l 1
 590 443 565 446 537 446 c 1
 542 445 563 455 577 455 c 0
 592 455 577 445 592 445 c 1
 601 449 l 1
 629 445 l 2
 616 445 631 468 619 475 c 1
 570 473 552 479 504 486 c 1
 472 430 443 361 419 293 c 1
 515 290 570 288 586 288 c 0
 601 288 606 306 612 306 c 1
 612 299 607 285 601 278 c 1
 607 267 625 258 625 246 c 1
 618 246 613 257 597 257 c 0x2b80
 582 257 593 245 578 246 c 2x2580
 552 246 l 1
 552 252 551 259 558 266 c 1
 539 271 548 276 532 276 c 0x2b80
 519 276 511 270 496 270 c 0x2580
 483 270 431 272 412 256 c 0
 380 230 358 154 358 139 c 2
 358 110 l 1
 370 102 383 102 419 96 c 1
 400 86 384 88 374 68 c 1
 363 75 353 74 339 74 c 0
 309 74 324 83 288 44 c 1
 272 58 l 1
 279 70 279 92 282 103 c 0
 302 160 322 210 346 266 c 1
 311 270 239 275 224 253 c 0
 194 210 186 157 155 109 c 1
 166 102 186 102 198 102 c 1
 180 96 148 74 134 74 c 0
 119 74 57 82 21 82 c 1
 85 126 122 196 144 248 c 1
 82 249 l 1
 71 243 56 242 44 243 c 1
 39 248 38 261 40 275 c 1
 30 281 30 296 21 309 c 1
 54 311 74 355 87 365 c 1
 84 347 80 311 73 289 c 1
 100 318 125 307 140 307 c 0
 153 307 158 306 166 312 c 0
 186 346 203 386 218 432 c 1
 218 432 217 441 211 447 c 2
 211 447 219 449 226 442 c 1
 232 454 236 461 242 474 c 1
 217 481 196 485 171 491 c 1
 159 479 153 461 148 442 c 1
 148 442 137 450 131 450 c 1
 138 462 146 482 145 504 c 1
 128 491 120 459 124 433 c 1
 117 436 110 430 95 430 c 0
 80 430 94 425 84 435 c 1
 84 435 85 439 79 445 c 1
 85 439 97 442 103 436 c 1
 116 458 119 481 125 506 c 1
 120 510 107 520 101 527 c 1
 132 522 128 538 162 565 c 1
 171 555 176 538 173 526 c 1
 183 520 212 522 226 522 c 0
 241 522 238 516 253 516 c 0x2b80
 274 516 305 601 315 629 c 1
 303 635 289 646 272 650 c 1
 290 660 321 675 336 675 c 0
 351 675 401 672 401 657 c 0
 401 642 388 652 384 646 c 0
 365 613 358 569 339 526 c 1
 350 515 l 1
 385 523 427 522 458 523 c 1
 473 542 490 595 491 615 c 1
 491 615 489 620 483 614 c 1
 475 644 l 1
 493 643 511 644 531 645 c 1
 551 663 l 1
 564 647 578 639 578 627 c 1
 542 632 535 564 511 527 c 1
 560 520 586 526 641 520 c 1
 622 514 598 500 568 494 c 1
 578 489 588 491 601 491 c 0x1b80
 620 491 636 488 655 516 c 1x8b80
 676 516 l 1
 690 501 l 1
 684 494 671 495 666 489 c 1
 671 483 677 480 677 474 c 1
 670 475 659 475 647 469 c 1
 647 463 648 455 663 455 c 0x4b80
 678 455 690 448 702 453 c 2x8b80
344 620 m 1
 314 596 295 537 283 516 c 1x2580
 304 541 328 567 341 592 c 1
 339 598 344 613 344 620 c 1
436 478 m 1
 418 478 401 485 386 485 c 0
 370 485 339 477 323 476 c 1
 297 423 269 349 248 303 c 1
 272 303 298 303 317 299 c 0
 323 295 310 289 325 289 c 2
 356 289 l 1
 381 345 400 400 418 447 c 1
 430 454 438 470 436 478 c 1
284 478 m 1
 261 478 l 1
 249 460 242 436 237 418 c 1
 250 436 271 459 284 478 c 1
252 410 m 1
 233 393 210 362 206 345 c 1
 225 363 240 392 252 410 c 1
191 232 m 1
 179 227 155 216 155 203 c 0
 155 188 164 190 164 185 c 1
 170 197 185 220 191 232 c 1
EndSplineSet
EndChar

StartChar: dollar
Encoding: 36 36 55
Width: 529
VWidth: 1050
Flags: W
HStem: -170 180 -49 59 -49 144 300 54 300 95<163 168.5 163 169> 672 87<277.5 381.5> 736 29<336 364.5>
VStem: 150 54 273 148 366 55<290 294 288.5 334 288.5 334> 378 29<710 727 727 727> 430 33
LayerCount: 2
Back
Fore
SplineSet
287 682 m 1x5330
 281 676 277 690 277 685 c 1
 277 690 287 682 287 682 c 1x5330
489 239 m 1
 472 219 482 183 480 163 c 1
 470 144 370 -37 293 -37 c 0
 279 -37 296 -31 282 -31 c 0
 269 -31 238 -49 213 -50 c 0
 208 -54 211 -55 210 -61 c 1
 204 -55 207 -54 201 -49 c 1
 185 -64 169 -100 169 -112 c 0
 169 -131 186 -142 198 -142 c 0
 212 -142 218 -145 232 -145 c 1
 204 -150 151 -170 136 -170 c 0x5530
 124 -170 93 -156 70 -145 c 1
 81 -139 93 -142 108 -142 c 0
 122 -142 122 -132 124 -127 c 0
 127 -106 139 -81 151 -58 c 1
 141 -49 l 1x5330
 91 -50 54 16 11 40 c 1
 32 84 88 78 130 95 c 1
 115 78 93 53 93 38 c 0
 93 24 98 20 98 9 c 1
 112 6 156 23 166 -20 c 1
 195 101 243 207 273 307 c 1
 242 307 175 300 163 300 c 0
 116 300 120 365 115 370 c 0
 106 383 110 374 101 378 c 1
 104 382 83 385 97 385 c 0
 112 385 108 384 102 390 c 1
 115 390 l 1
 126 461 153 521 184 577 c 0
 203 611 258 660 270 678 c 1
 276 672 270 672 285 672 c 0
 298 672 350 694 378 710 c 1x2d90
 378 727 l 1
 368 737 357 736 343 736 c 0
 329 736 314 733 302 739 c 1
 320 745 343 765 357 765 c 0
 372 765 360 759 375 759 c 0x9330
 388 759 393 777 405 788 c 1
 405 782 401 759 415 759 c 0
 430 759 441 764 458 764 c 1
 458 743 l 1
 452 743 456 748 442 748 c 0
 430 748 418 744 407 732 c 1
 407 710 l 1
 418 702 435 694 444 692 c 0
 447 689 445 684 450 678 c 1
 460 684 470 690 483 676 c 1
 473 683 464 678 453 670 c 1
 459 663 459 652 470 652 c 1
 465 647 459 634 457 629 c 0
 472 587 452 564 448 519 c 1
 453 512 465 507 476 507 c 1
 442 490 402 463 368 446 c 1
 369 451 361 467 355 478 c 1
 367 484 384 490 401 495 c 1
 395 501 384 505 378 505 c 1
 402 540 419 581 430 615 c 1
 418 621 403 637 397 650 c 1
 390 650 390 650 385 645 c 0
 363 578 349 477 330 393 c 1
 330 387 l 1
 340 399 l 1
 340 399 349 390 354 390 c 1
 351 390 327 381 320 362 c 1
 329 352 l 1
 334 358 337 358 351 358 c 0
 365 358 387 360 400 350 c 0
 435 324 465 273 489 239 c 1
441 632 m 1
 441 665 l 1
 430 678 425 672 401 664 c 1
 412 652 430 632 441 632 c 1
434 550 m 1
 423 532 402 523 395 510 c 1
 423 510 l 1
 429 520 429 539 434 550 c 1
366 665 m 1
 352 668 l 1
 334 662 307 651 295 642 c 1
 302 637 l 2
 305 637 309 635 309 630 c 0
 285 589 276 550 265 515 c 1
 265 521 270 521 276 527 c 1
 285 517 l 1
 273 489 244 443 245 430 c 2
 245 388 l 1
 250 388 257 393 257 393 c 1
 257 376 239 359 228 342 c 1
 258 350 279 348 290 353 c 1
 290 372 283 390 289 400 c 0
 334 488 316 577 366 665 c 1
250 595 m 1
 221 580 160 510 165 486 c 1
 194 521 226 561 250 595 c 1
409 323 m 1
 409 317 408 307 405 301 c 1
 413 307 414 317 409 323 c 1
427 277 m 1
 432 283 421 294 421 294 c 2
 421 283 427 277 427 277 c 1
412 292 m 1
 407 292 397 294 391 289 c 1
 385 289 l 1
 379 282 373 265 368 254 c 1
 385 266 401 286 412 292 c 1
450 217 m 1
 430 206 404 180 390 155 c 1
 414 178 435 200 450 217 c 1
368 248 m 1
 368 242 362 230 362 225 c 1
 368 230 374 242 368 248 c 1
202 473 m 1
 179 450 144 420 129 395 c 1
 151 389 190 450 202 473 c 1
184 416 m 1
 163 395 l 1
 174 395 184 410 184 416 c 1
161 381 m 1
 150 375 135 359 129 354 c 1x5350
 146 360 161 375 161 381 c 1
360 151 m 1
 352 172 l 1
 340 154 333 126 328 103 c 1
 339 120 349 139 360 151 c 1
366 290 m 2
 366 334 l 1
 348 323 317 321 305 314 c 1
 262 190 204 6 204 0 c 2
 204 -25 l 1
 222 -25 250 -30 267 -25 c 1
 267 -9 277 18 287 33 c 0
 285 35 279 35 277 41 c 0
 309 129 367 279 366 290 c 2
411 79 m 1
 389 50 350 15 323 -7 c 1
 370 20 391 37 411 79 c 1
150 -18 m 1
 145 -7 138 -3 132 3 c 1
 121 3 115 2 106 1 c 1
 111 -15 145 -20 150 -18 c 1
EndSplineSet
EndChar

StartChar: percent
Encoding: 37 37 56
Width: 847
VWidth: 1050
Flags: W
HStem: 14 15<107.5 109 92 125> 313 89<192 263 192 271> 678 73<309 310.5>
VStem: 85 100<477 588> 85 129<479.5 490> 360 88 463 22<41 47.5>
LayerCount: 2
Back
Fore
SplineSet
783 723 m 1xee
 768 724 751 714 748 708 c 1
 729 722 l 1
 632 637 639 576 579 485 c 1
 587 470 600 466 599 452 c 1
 559 441 l 1
 302 67 l 2
 300 60 316 53 324 46 c 1
 258 31 156 -8 138 -8 c 0
 119 -8 134 14 116 14 c 0
 99 14 79 6 64 -1 c 1
 56 7 47 17 39 17 c 1
 53 24 83 29 101 29 c 0
 117 29 150 30 164 44 c 0
 279 166 375 316 485 448 c 1
 478 454 462 456 448 464 c 1
 448 464 461 467 481 467 c 0
 520 467 594 656 623 696 c 1
 599 737 563 712 536 750 c 1
 594 741 617 744 634 744 c 0
 639 744 677 734 684 759 c 1
 684 759 697 750 690 742 c 1
 705 735 710 744 729 744 c 0
 747 744 759 736 773 744 c 1
 773 744 783 730 783 723 c 1xee
812 149 m 0
 812 134 798 119 803 104 c 1
 768 69 734 16 699 -6 c 0
 670 -24 597 -51 579 -51 c 0
 561 -51 575 -51 557 -51 c 0
 521 -51 463 5 463 39 c 0
 463 56 470 71 471 84 c 0
 501 230 591 328 707 328 c 0
 723 328 786 247 803 209 c 0
 808 196 812 168 812 149 c 0
448 627 m 0
 448 609 426 522 418 471 c 1
 426 464 429 465 440 472 c 1
 432 465 425 446 415 443 c 1
 402 389 295 313 247 313 c 0
 113 313 98 451 75 451 c 0
 59 451 48 453 33 446 c 1
 33 446 41 459 41 466 c 1
 49 459 57 459 65 451 c 1
 88 473 85 464 85 490 c 0
 86 593 197 668 220 710 c 1
 240 726 298 751 320 751 c 0
 338 751 404 700 422 700 c 0
 441 700 432 706 439 706 c 1
 439 699 433 689 426 681 c 1
 440 651 448 652 448 627 c 0
585 553 m 1
 563 531 537 489 519 460 c 1
 544 489 579 515 585 553 c 1
424 649 m 1
 405 634 378 604 384 584 c 1
 410 591 425 629 424 649 c 1
755 227 m 1
 769 236 l 1
 762 244 755 227 755 227 c 1
736 262 m 1
 729 248 728 219 720 197 c 1
 734 219 744 248 736 262 c 1
418 574 m 1
 361 562 362 501 355 482 c 1
 377 510 403 546 418 574 c 1
732 169 m 1
 732 176 720 182 713 189 c 1
 713 160 l 2
 714 168 732 169 732 169 c 1
753 167 m 1
 735 148 706 118 698 94 c 1
 720 116 738 145 753 167 c 1
395 488 m 1
 389 488 371 470 364 470 c 1
 371 470 379 459 379 459 c 1
 387 467 395 480 395 488 c 1
775 130 m 1
 753 112 723 88 728 65 c 1
 750 87 768 115 775 130 c 1
491 391 m 1
 463 388 428 354 429 335 c 1
 443 357 470 376 491 391 c 1
360 667 m 0
 360 691 315 678 306 678 c 0
 288 678 306 692 288 692 c 2
 267 692 l 1
 252 655 237 614 222 577 c 1
 230 577 236 571 244 565 c 1
 229 543 214 507 214 489 c 0
 214 470 215 464 222 451 c 1
 215 451 l 1
 208 436 201 417 192 402 c 1
 263 402 l 1
 269 408 l 1
 280 397 l 1
 272 390 274 379 274 379 c 1
 282 387 293 388 293 388 c 1
 315 483 360 649 360 667 c 0
703 251 m 0
 703 263 689 282 678 291 c 1
 597 226 616 123 580 22 c 1
 635 22 l 1
 647 38 703 200 703 251 c 0
211 634 m 1
 206 618 185 596 185 580 c 0xf6
 185 561 196 565 196 558 c 1
 196 580 205 612 211 634 c 1
552 210 m 1
 534 203 521 178 507 164 c 1
 513 156 526 152 526 152 c 1
 533 168 549 195 552 210 c 1
176 604 m 1
 152 581 112 538 115 525 c 1
 137 554 162 582 176 604 c 1
170 546 m 1
 140 517 106 483 98 468 c 1
 137 472 161 532 170 546 c 1
528 129 m 1
 496 119 485 69 485 50 c 0
 485 32 487 21 495 7 c 1
 510 21 521 49 525 60 c 1
 509 64 516 117 528 129 c 1
154 372 m 1
 130 407 139 439 149 450 c 1
 141 450 119 442 112 434 c 1
 118 413 140 385 154 372 c 1
257 70 m 1
 243 64 222 53 210 46 c 1
 259 46 239 52 257 70 c 1
EndSplineSet
EndChar

StartChar: ampersand
Encoding: 38 38 57
Width: 773
VWidth: 1050
Flags: W
HStem: -75 44 8 10 24 33<385 412> 202 44 690 36
VStem: 122 34
LayerCount: 2
Back
Fore
SplineSet
653 593 m 1
 614 583 629 602 585 596 c 1
 585 602 584 615 578 621 c 1
 589 629 542 716 555 715 c 1
 599 651 625 603 653 593 c 1
717 260 m 0
 717 149 434 33 428 31 c 1
 438 20 441 20 452 9 c 1
 452 9 464 14 479 9 c 1
 470 2 467 -1 461 -7 c 1
 466 -13 476 -21 481 -31 c 1
 496 -22 510 -30 517 -6 c 1
 517 -6 519 5 514 10 c 2
 526 2 l 1
 536 7 538 7 549 12 c 1
 549 7 555 2 555 -12 c 0
 555 -26 515 -59 492 -75 c 1
 468 -75 l 1
 468 -70 467 -62 472 -56 c 1
 445 -23 404 24 391 24 c 0
 379 24 356 13 334 -3 c 1
 340 3 348 8 333 8 c 0
 321 8 310 -4 297 -4 c 0
 285 -4 281 -10 267 -10 c 0
 253 -10 172 -15 158 -15 c 0
 146 -15 134 -10 122 -10 c 0
 109 -10 61 -4 47 -4 c 0
 33 -4 30 -1 25 -7 c 2
 33 4 l 1
 20 14 17 30 17 35 c 0
 17 146 182 188 228 227 c 1
 174 300 122 403 122 473 c 0
 122 622 207 730 368 730 c 2
 391 730 l 2
 405 730 431 720 453 726 c 1
 448 720 449 713 462 713 c 0
 476 713 461 718 475 718 c 0
 489 718 491 710 497 715 c 2
 489 705 l 1
 523 692 555 666 554 641 c 2
 554 624 l 1
 554 624 553 630 548 635 c 1
 543 623 533 610 517 593 c 1
 525 588 538 595 550 595 c 1
 545 577 514 560 520 540 c 1
 537 551 558 569 571 585 c 1
 580 579 584 576 584 563 c 0
 584 484 510 373 410 311 c 0
 399 304 398 290 388 281 c 0
 356 257 322 237 289 214 c 1
 293 201 301 181 312 168 c 0
 326 150 385 113 390 67 c 0
 394 61 391 57 406 57 c 0
 418 57 470 90 484 90 c 0
 497 90 484 85 497 85 c 0
 509 85 562 134 593 150 c 1
 605 190 621 228 639 272 c 1
 639 280 l 1
 607 262 579 247 551 235 c 1
 563 280 627 307 664 307 c 0
 702 307 717 293 717 260 c 0
563 78 m 1
 557 61 538 40 524 23 c 1
 527 40 547 67 563 78 c 1
544 642 m 1
 538 652 524 669 512 673 c 1
 514 649 505 646 490 625 c 1
 507 635 528 642 544 642 c 1
499 673 m 1
 493 673 478 670 472 676 c 1
 478 682 478 689 483 694 c 1
 461 694 455 688 445 688 c 1
 475 678 471 639 474 630 c 1
 486 641 500 663 499 673 c 1
522 623 m 1
 497 615 456 589 463 557 c 1
 486 579 510 606 522 623 c 1
565 551 m 1
 554 541 538 519 528 510 c 1
 545 503 541 491 523 475 c 1
 528 475 536 473 542 469 c 1
 557 494 566 533 565 551 c 1
306 698 m 2
 328 698 l 1
 322 709 320 707 320 707 c 1
 319 701 311 699 306 698 c 2
500 550 m 1
 483 550 463 534 447 527 c 1
 440 506 422 478 422 466 c 0
 422 464 437 471 430 435 c 1
 435 441 431 446 443 446 c 1
 467 472 l 1
 454 471 446 466 433 471 c 1
 450 494 472 528 500 550 c 1
254 668 m 1
 249 663 231 640 223 630 c 1
 243 630 l 1
 249 641 254 657 254 668 c 1
408 379 m 1
 433 405 l 1
 420 409 l 1
 413 401 407 385 408 379 c 1
232 607 m 1
 221 590 205 570 200 559 c 1
 211 553 216 545 214 535 c 1
 214 557 221 585 232 607 c 1
445 676 m 0
 445 690 438 690 438 690 c 1
 419 690 l 1
 374 678 329 672 285 666 c 1
 262 607 231 546 218 489 c 0
 215 474 217 451 211 442 c 1
 217 442 225 446 225 446 c 1
 230 440 223 439 222 435 c 0
 199 425 201 377 190 343 c 1
 220 307 246 272 274 246 c 1
 314 266 361 306 373 349 c 0
 377 376 383 408 396 435 c 1
 390 435 386 446 391 451 c 1
 404 441 l 1
 415 518 445 663 445 676 c 0
200 621 m 1
 186 635 l 1
 177 622 150 590 152 569 c 1
 168 584 185 606 200 621 c 1
199 584 m 1
 176 570 133 525 142 502 c 1
 158 530 182 563 199 584 c 1
199 534 m 1
 175 514 155 500 140 477 c 1
 140 446 l 1
 158 468 183 506 199 534 c 1
166 446 m 1
 160 440 150 427 145 421 c 1
 150 415 153 408 153 408 c 1
 153 418 160 434 166 446 c 1
181 435 m 1
 175 424 155 405 156 392 c 2
 156 374 l 1
 168 390 182 420 181 435 c 1
378 42 m 1
 361 65 334 92 312 123 c 0
 306 131 270 202 245 202 c 0
 230 202 181 179 169 155 c 0
 150 121 150 67 123 37 c 1
 161 31 222 30 236 30 c 0
 250 30 333 36 378 42 c 1
254 18 m 1
 238 12 220 5 209 5 c 1
 214 5 217 8 230 8 c 0
 245 8 254 12 254 18 c 1
92 2 m 1
 98 12 91 24 91 30 c 1
 92 19 78 10 72 11 c 1
 78 6 87 8 92 2 c 1
77 51 m 1
 66 46 44 27 33 22 c 1
 39 16 46 13 46 8 c 1
 57 11 76 46 77 51 c 1
EndSplineSet
EndChar

StartChar: uni001D
Encoding: 29 29 58
Width: 170
VWidth: 1050
Flags: W
HStem: 400 318
VStem: 31 73 33 71 43 61 46 34
LayerCount: 2
Back
Fore
SplineSet
91 400 m 1xa0
 33 400 l 1
 45 522 49 610 46 727 c 1x88
 54 707 73 727 82 738 c 1
 75 606 87 530 91 400 c 1xa0
98 -37 m 1
 90 -33 86 -41 78 -45 c 1
 -4 -6 55 92 24 151 c 1
 31 143 l 1x90
 55 159 67 178 63 210 c 1
 50 218 l 1
 31 198 l 1
 38 238 38 263 43 312 c 1xc0
 94 310 l 1
 99 183 111 83 98 -37 c 1
EndSplineSet
EndChar

StartChar: uni001E
Encoding: 30 30 59
Width: 497
VWidth: 1050
Flags: W
HStem: 309 29 349 21G
LayerCount: 2
Back
Fore
SplineSet
10 278 m 1
 14 288 29 351 24 361 c 1
 60 328 159 331 228 370 c 1
 254 350 l 1
 272 321 246 334 282 339 c 1
 304 336 l 1
 282 361 l 1
 328 352 356 352 413 347 c 1
 410 282 l 1
 323 279 247 286 170 284 c 0
 164 284 134 276 129 276 c 0
 123 276 139 309 134 309 c 0
 111 309 88 290 90 290 c 1
 78 290 86 271 73 272 c 0
 52 273 31 275 10 278 c 1
EndSplineSet
EndChar

StartChar: uni001B
Encoding: 27 27 60
Width: 414
VWidth: 1050
Flags: W
HStem: 406 12<219.5 245> 412 6<219.5 227> 412 9 545 33<305.5 317> 728 10<197.5 222 197.5 214>
VStem: 268 11 272 7<651 655> 279 48 279 66<481.5 513> 296 5 316 9<651 681>
LayerCount: 2
Back
Fore
SplineSet
345 509 m 0x5a60
 345 504 335 464 330 454 c 0
 314 424 286 425 266 413 c 1
 266 410 l 1
 245 416 251 406 239 406 c 0
 233 406 231 412 223 412 c 0x9880
 190 412 161 443 149 462 c 1
 143 462 133 457 128 457 c 1
 133 463 146 470 152 482 c 1
 158 476 l 1
 163 482 173 485 182 487 c 1
 182 485 180 481 177 478 c 1
 191 464 207 418 232 418 c 0
 239 418 238 421 245 421 c 0x9c60
 253 421 246 415 254 415 c 0
 260 415 264 419 267 425 c 1
 264 428 259 425 244 425 c 1
 253 430 265 440 273 449 c 1
 276 461 279 478 279 485 c 0
 279 491 275 536 275 562 c 0
 272 564 268 569 260 569 c 0
 242 569 223 569 205 566 c 0
 202 563 205 560 199 526 c 1
 200 536 192 555 189 570 c 1
 183 571 177 572 172 569 c 1
 175 583 156 583 151 587 c 1
 151 596 155 604 158 607 c 0
 160 607 160 599 156 594 c 1
 160 591 154 586 161 586 c 0
 169 586 170 586 176 583 c 2
 189 583 l 1
 186 595 187 607 191 618 c 1
 208 593 191 581 216 581 c 0
 223 581 232 581 236 584 c 0
 249 593 262 601 269 615 c 0
 274 625 272 648 272 654 c 0
 272 661 269 689 268 710 c 0x3a60
 267 712 264 717 263 721 c 0
 256 725 245 726 236 729 c 1
 231 723 l 1
 225 729 l 1
 222 728 l 1
 214 728 l 2
 205 729 178 696 177 689 c 2
 177 681 l 1
 185 679 197 678 209 675 c 1
 196 672 169 671 161 671 c 2
 140 668 l 1
 133 675 l 1
 145 690 157 708 174 723 c 0
 178 725 172 729 172 729 c 1
 179 725 l 1
 184 728 194 738 201 738 c 0
 208 738 254 734 281 733 c 0
 283 732 287 730 281 727 c 1
 287 722 l 1
 292 722 l 1
 320 698 325 676 325 658 c 0
 325 644 313 596 290 585 c 1
 296 581 302 578 309 578 c 0
 317 578 313 580 316 580 c 2
 316 580 317 576 313 573 c 1
 319 567 332 559 335 551 c 0
 340 540 345 517 345 509 c 0x5a60
284 716 m 1
 277 723 l 1
 274 720 277 708 277 703 c 1
 280 706 281 713 284 716 c 1
316 668 m 2
 316 681 l 2
 317 689 299 706 291 711 c 1
 291 708 290 704 290 704 c 1
 307 701 302 683 294 674 c 1
 297 677 303 680 306 680 c 0
 311 674 314 668 316 668 c 2
296 696 m 1
 293 696 286 694 286 694 c 1
 279 691 l 1
 279 684 286 680 286 674 c 1
 289 680 293 690 296 696 c 1
304 673 m 1
 299 670 288 662 279 655 c 1
 279 639 l 1
 288 648 295 662 304 673 c 1
310 656 m 1
 299 650 287 631 285 625 c 1
 294 633 304 647 310 656 c 1
316 644 m 1
 308 638 297 625 292 616 c 1
 302 625 310 635 316 644 c 1
164 703 m 1
 162 699 155 691 155 689 c 1
 160 694 164 699 164 703 c 1
331 545 m 1
 328 547 327 551 327 551 c 2x99
 325 551 319 547 319 547 c 2
 322 545 323 543 323 543 c 1
 317 545 l 2
 309 545 305 528 303 523 c 1
 308 528 322 538 331 545 c 1
335 485 m 1
 338 502 335 526 332 543 c 1
 332 540 328 533 327 530 c 0
 328 524 331 518 330 516 c 0
 326 507 322 497 323 491 c 0
 326 491 324 494 331 494 c 0
 338 494 335 488 335 485 c 1
324 528 m 1
 318 521 311 512 305 503 c 1
 313 510 323 520 324 528 c 1
308 496 m 1
 299 490 290 477 288 468 c 1
 294 476 301 487 308 496 c 1
EndSplineSet
EndChar

StartChar: uni001C
Encoding: 28 28 61
Width: 350
VWidth: 1050
Flags: W
HStem: 404 9 415 18
VStem: 106 48<688.5 691 691 691> 211 11 244 30 268 6<655 656>
LayerCount: 2
Back
Fore
SplineSet
206 602 m 1xf4
 208 603 l 2
 209 603 212 600 208 600 c 2
 208 600 206 602 206 602 c 1xf4
334 423 m 0
 319 411 284 424 273 407 c 0
 270 407 270 415 263 415 c 0
 257 415 227 413 220 413 c 0
 213 413 191 410 157 413 c 0
 153 410 156 409 159 409 c 1
 157 409 152 404 144 404 c 0
 137 404 137 411 132 411 c 1
 135 414 140 417 143 419 c 2
 143 419 140 422 137 422 c 1
 146 446 149 478 164 502 c 0
 178 522 202 534 215 552 c 0
 219 557 216 568 218 577 c 2
 216 601 l 2
 214 599 214 593 211 590 c 1
 211 630 214 685 208 721 c 1
 202 718 l 1
 210 728 l 2
 207 730 205 732 203 735 c 0
 155 715 154 723 154 690 c 0
 154 687 153 672 166 667 c 1
 160 662 153 648 149 639 c 1
 148 643 149 651 142 651 c 0
 134 651 117 636 109 636 c 0
 103 636 103 634 99 634 c 1
 100 648 105 671 106 679 c 2
 106 691 l 2
 108 691 111 690 113 694 c 0
 118 704 135 721 141 728 c 0
 154 739 171 743 183 747 c 0
 196 748 226 758 238 750 c 2
 250 743 l 2
 253 741 260 730 261 725 c 0
 265 705 274 665 274 658 c 0
 274 652 268 644 267 637 c 0
 256 590 230 548 184 515 c 1
 184 450 l 1
 190 442 191 433 203 433 c 0
 211 433 220 433 227 433 c 0
 234 433 236 433 243 433 c 1
 249 449 270 445 279 455 c 0
 286 465 280 482 280 493 c 0
 282 494 284 488 289 482 c 1
 289 482 292 485 292 488 c 2
 292 488 297 488 299 487 c 0
 313 464 298 435 317 429 c 1
 315 426 306 426 300 428 c 1
 303 431 303 437 303 442 c 1
 300 442 302 445 297 445 c 1
 299 421 l 1
 324 421 l 2
 327 424 324 426 322 428 c 1
 324 426 332 426 334 423 c 0
257 715 m 0
 257 722 249 732 243 741 c 1
 240 725 243 712 243 698 c 1
 248 704 257 707 257 715 c 0
268 653 m 0
 268 659 261 685 258 700 c 1
 249 689 239 674 234 662 c 1
 241 669 248 680 255 680 c 0
 262 680 260 678 260 678 c 1
 257 671 251 659 248 651 c 1
 252 653 257 658 259 655 c 0
 253 640 245 625 240 613 c 1
 246 622 252 628 261 634 c 1
 262 640 268 646 268 653 c 0
244 662 m 1
 238 656 227 647 222 648 c 1
 222 625 l 1
 228 636 238 651 244 662 c 1
142 698 m 1
 141 694 140 691 139 685 c 1
 146 688 142 691 142 698 c 1
143 661 m 1
 140 663 143 671 143 674 c 1
 133 667 121 656 114 652 c 1
 123 654 135 658 143 661 c 1
227 572 m 1
 225 572 221 565 218 562 c 1
 225 556 226 571 227 572 c 1
180 509 m 1
 174 502 168 491 171 488 c 1
 173 491 177 502 180 509 c 1
175 437 m 2
 171 451 l 2
 168 447 166 442 162 442 c 0
 160 453 162 459 162 462 c 1
 159 453 155 442 152 434 c 1
 163 434 171 437 175 437 c 2
EndSplineSet
EndChar

StartChar: uni0014
Encoding: 20 20 62
Width: 409
VWidth: 1050
Flags: W
HStem: -20 20
VStem: 107 141
LayerCount: 2
Back
Fore
SplineSet
114 110 m 1
 130 -20 l 2
 130 -5 75 -10 74 0 c 0
 71 22 75 67 61 67 c 1
 61 77 37 186 37 194 c 0
 37 203 50 355 49 364 c 2
 49 385 l 1
 41 385 61 455 50 455 c 1
 50 465 21 520 21 528 c 0
 21 536 22 538 27 542 c 1
 68 531 110 512 155 499 c 1
 151 496 147 488 147 484 c 2
 127 487 l 2
 117 487 100 475 88 471 c 1
 98 471 113 406 121 406 c 1
 130 399 l 1
 174 390 228 375 268 364 c 0
 282 359 416 238 416 201 c 0
 416 192 363 149 353 149 c 0
 343 149 355 151 345 151 c 2
 345 151 290 110 235 110 c 0
 225 110 219 105 214 105 c 0
 188 101 140 104 114 110 c 1
86 250 m 1
 84 243 85 220 92 210 c 1
 94 217 94 238 86 250 c 1
83 392 m 1
 83 389 90 379 100 379 c 1
 108 383 l 1
 108 369 123 290 123 282 c 0
 123 273 115 270 112 270 c 0
 111 257 107 235 107 227 c 0
 107 218 111 176 115 151 c 1
 126 155 145 153 157 153 c 0
 172 153 194 156 214 156 c 0
 221 156 237 160 248 152 c 1
 244 241 245 246 249 249 c 1
 245 259 240 329 239 338 c 1
 190 359 131 378 83 392 c 1
78 106 m 0
 78 97 101 87 105 76 c 1
 105 96 l 1
 93 96 l 1
 89 103 89 111 84 117 c 1
 80 114 78 114 78 106 c 0
262 241 m 1
 270 238 286 238 302 234 c 1
 286 245 266 322 257 332 c 1
 262 241 l 1
314 318 m 1
 334 301 367 224 395 203 c 1
 391 227 338 298 314 318 c 1
278 144 m 2
 278 144 280 138 284 134 c 1
 288 138 298 144 306 147 c 1
 294 147 282 144 278 144 c 2
339 185 m 2
 343 182 344 175 344 172 c 1
 349 175 355 178 359 181 c 2
 339 185 l 2
EndSplineSet
EndChar

StartChar: uni0015
Encoding: 21 21 63
Width: 580
VWidth: 1050
Flags: W
HStem: -21 20 3 10<280.5 293 312 320> 3 28 3 87 489 21G 499 98<168.5 180> 509 10<371 404> 646 21G 794 21G
VStem: 70 29 473 33<106.5 122 122 123 123 123>
LayerCount: 2
Back
Fore
SplineSet
572 641 m 1xa360
 550 622 483 600 512 577 c 1
 210 131 l 1
 219 127 225 138 237 138 c 0
 249 138 245 149 259 149 c 0
 271 149 408 163 420 163 c 0
 432 163 427 153 431 149 c 1
 431 149 435 152 435 157 c 1
 440 157 442 153 454 153 c 0
 465 153 469 162 477 171 c 1
 479 181 480 197 486 207 c 1
 494 197 503 184 506 176 c 0
 511 160 506 133 506 111 c 0
 506 102 512 97 512 83 c 0
 512 70 505 31 493 31 c 0
 481 31 490 36 486 41 c 1
 471 22 450 3 445 3 c 1
 445 8 447 11 434 11 c 0
 422 11 418 7 414 4 c 0
 379 2 341 3 310 3 c 0
 251 3 142 -12 130 -12 c 2
 115 -8 l 2
 108 -8 39 -22 27 -21 c 2
 10 -21 l 1
 38 -3 83 43 111 79 c 0
 155 134 211 226 280 309 c 0
 332 370 382 430 420 506 c 1
 415 510 410 509 398 509 c 0
 386 509 347 490 334 490 c 0
 323 490 264 490 251 490 c 0
 240 490 254 494 242 494 c 0
 231 494 186 499 174 499 c 0xc560
 163 499 142 490 112 490 c 1
 112 485 113 482 114 477 c 0
 110 453 87 445 108 429 c 1
 93 414 76 397 69 387 c 1
 66 407 70 442 70 454 c 0
 70 464 75 481 56 490 c 1
 57 502 52 513 50 527 c 0
 49 548 51 565 45 594 c 0
 42 599 41 605 30 607 c 1
 35 611 58 621 71 621 c 0
 84 621 103 630 115 630 c 0
 128 630 245 635 256 635 c 0
 267 635 299 645 310 645 c 0
 321 645 336 645 349 645 c 0
 361 645 376 650 389 650 c 0
 400 650 425 655 437 655 c 0
 448 655 467 660 482 665 c 1
 487 654 487 650 496 640 c 0
 501 640 503 648 498 652 c 1
 507 658 504 667 516 667 c 0
 529 667 553 641 572 641 c 1xa360
425 643 m 1
 386 643 352 634 318 634 c 1
 328 618 324 612 309 598 c 1
 323 602 339 611 349 616 c 1
 360 607 l 1
 361 624 405 645 425 643 c 1
444 566 m 1
 419 551 390 536 371 519 c 1xc360
 390 519 l 1
 404 533 425 551 444 566 c 1
298 625 m 1
 279 625 l 1
 284 614 293 619 298 625 c 1
361 576 m 1
 341 566 318 549 301 539 c 1
 323 549 347 561 361 576 c 1
380 556 m 1
 361 547 330 530 317 514 c 1
 325 514 l 2
 348 511 358 535 380 556 c 1
259 624 m 1
 230 630 225 605 216 592 c 1
 230 607 254 619 259 624 c 1
297 571 m 1
 278 561 255 546 235 535 c 1
 240 535 247 529 247 529 c 1
 267 543 283 556 297 571 c 1
220 619 m 1
 210 619 201 626 189 626 c 0
 176 626 171 603 167 597 c 1xc560
 190 597 l 1
 201 607 210 614 220 619 c 1
308 531 m 1
 295 530 268 526 254 510 c 1x9960
 282 510 l 1
 291 519 308 531 308 531 c 1
473 100 m 1
 473 123 l 1
 467 129 l 1
 447 114 434 91 420 82 c 1
 440 87 458 90 473 100 c 1
397 129 m 2
 410 141 l 1
 376 141 l 2
 386 141 397 134 397 129 c 2
409 104 m 2
 395 91 l 1
 406 91 409 99 409 104 c 2
386 122 m 1
 381 127 373 129 373 129 c 1
 369 124 363 110 363 105 c 1
 368 110 381 116 386 122 c 1
448 75 m 1
 433 60 410 43 395 28 c 1
 424 28 l 1
 433 41 443 60 448 75 c 1
321 113 m 1
 311 110 299 99 300 90 c 1
 310 100 321 109 321 113 c 1
362 46 m 1
 345 31 341 21 330 21 c 1
 323 29 l 1
 337 44 351 59 361 69 c 1
 356 69 350 70 345 75 c 1
 334 66 312 53 298 39 c 1
 306 30 312 23 323 19 c 1
 317 13 312 13 312 13 c 1xc960
 328 13 345 19 354 19 c 1
 350 19 350 24 350 24 c 1
 357 29 364 42 362 46 c 1
297 113 m 1
 278 99 255 81 250 66 c 1
 265 75 288 99 297 113 c 1
322 94 m 1
 292 74 270 55 240 33 c 1
 261 23 309 61 322 94 c 1
269 13 m 1
 293 13 l 1
 283 23 274 18 269 13 c 1
250 59 m 1
 244 59 238 65 238 70 c 1
 226 58 210 37 198 28 c 1
 216 30 235 46 250 59 c 1
195 89 m 1
 178 89 l 1
 169 80 162 66 152 56 c 1
 167 67 186 78 195 89 c 1
141 26 m 1
 131 21 118 14 109 8 c 1
 136 8 l 1
 141 12 141 21 141 26 c 1
279 720 m 1
 388 815 l 1x0080
 449 760 311 722 295 678 c 1
 276 672 241 680 225 701 c 0
 202 725 206 767 170 791 c 1
 177 801 206 809 218 797 c 2
 279 720 l 1
378 759 m 1
 387 785 l 1
 359 756 l 1
 340 739 l 1
 334 725 l 1
 378 759 l 1
EndSplineSet
EndChar

StartChar: uni0016
Encoding: 22 22 64
Width: 436
VWidth: 1050
Flags: W
HStem: -14 20 -9 19<114 119 114 132 132 140 114 210> 4 12 4 127<243.5 367> 107 220<280 284.5 270.5 295.5> 242 128<100.5 147.5> 248 122<62.5 147.5> 541 21G
LayerCount: 2
Back
Fore
SplineSet
406 372 m 1x12
 342 329 275 195 217 130 c 1
 266 123 345 131 360 131 c 0
 374 131 387 161 405 167 c 1
 389 109 356 52 363 5 c 1
 336 -1 277 18 264 -14 c 1x82
 257 -9 266 4 250 4 c 0x44
 237 4 224 -9 210 -9 c 0x22
 195 -9 127 -9 111 -9 c 0
 96 -9 65 -12 41 -7 c 1
 72 17 110 44 143 82 c 0
 182 128 230 212 260 261 c 1
 211 256 123 242 108 242 c 0
 93 242 83 248 70 248 c 0x82
 55 248 42 217 17 199 c 1
 17 219 l 2
 16 226 30 244 23 264 c 1
 32 268 77 310 77 332 c 0
 77 347 65 361 56 368 c 1
 77 368 126 370 141 370 c 0
 154 370 166 388 180 388 c 0
 195 388 190 381 197 377 c 0
 236 373 316 375 330 375 c 0
 343 375 347 388 360 388 c 0
 375 388 393 379 406 372 c 1x12
316 362 m 1
 279 354 227 351 211 334 c 1
 230 340 248 347 260 340 c 1
 260 334 248 322 242 316 c 1
 254 322 263 327 278 327 c 0x28
 291 327 294 315 293 309 c 1
 293 314 302 318 304 322 c 0
 302 324 296 329 297 334 c 0
 309 346 314 355 316 362 c 1
357 117 m 1
 324 125 l 1
 311 119 303 107 288 107 c 0
 272 107 267 111 260 111 c 1
 267 99 278 93 278 87 c 1
 267 75 253 65 242 53 c 1
 260 60 274 67 305 83 c 1
 318 70 l 1
 336 89 351 105 357 117 c 1
331 46 m 1
 319 33 303 23 303 16 c 1
 326 16 l 1
 326 23 331 40 331 46 c 1
277 57 m 1
 253 39 222 24 199 17 c 1
 226 17 l 2
 241 15 265 39 277 57 c 1
144 25 m 1
 138 31 120 18 114 10 c 1x42
 132 10 l 2
 148 10 144 25 144 25 c 1
222 467 m 1
 331 562 l 1x01
 392 507 254 469 238 425 c 1
 219 419 184 427 168 448 c 0
 145 472 149 514 113 538 c 1
 120 548 149 556 161 544 c 2
 222 467 l 1
321 506 m 1
 330 532 l 1
 302 503 l 1
 283 486 l 1
 277 472 l 1
 321 506 l 1
EndSplineSet
EndChar

StartChar: uni0011
Encoding: 17 17 65
Width: 487
VWidth: 1050
Flags: W
HStem: 559 51<327 338> 570 70<370 377> 610 20G<44.5 74.5>
VStem: 251 41
LayerCount: 2
Back
Fore
SplineSet
541 648 m 1x30
 459 528 406 391 303 297 c 1
 303 264 296 225 292 190 c 1
 297 186 296 181 291 54 c 1
 310 41 349 35 367 0 c 1
 358 0 344 4 332 4 c 0
 322 4 312 1 295 -9 c 1
 292 -16 280 -34 275 -43 c 1
 276 -39 273 -22 276 -9 c 1
 273 -4 270 -6 266 -5 c 0
 233 0 208 3 160 9 c 1
 174 10 196 13 213 19 c 0
 224 22 235 33 239 45 c 0
 250 76 251 114 251 151 c 0
 251 213 249 260 249 321 c 1
 249 316 259 306 264 301 c 1
 268 305 265 326 269 334 c 1
 265 339 262 348 255 343 c 1
 260 348 261 352 256 357 c 0
 251 357 245 351 240 347 c 1
 245 350 242 366 243 375 c 1
 223 412 205 430 181 467 c 1
 189 466 179 472 189 475 c 1
 164 527 90 594 90 596 c 0
 90 609 104 594 109 599 c 1
 95 608 80 610 69 610 c 2
 33 608 l 2
 38 612 39 630 50 630 c 0
 61 630 95 630 107 629 c 2
 120 629 l 2
 131 627 173 633 197 629 c 1
 198 624 195 610 190 601 c 1
 190 606 182 615 187 620 c 1
 186 625 l 1
 146 622 l 1
 156 612 177 620 184 607 c 1
 170 608 150 608 132 603 c 1
 161 562 214 499 254 464 c 1
 245 467 235 470 221 470 c 1
 235 447 248 423 267 394 c 1
 377 570 l 1x50
 363 570 344 559 332 559 c 0x90
 322 559 317 559 307 554 c 1
 311 573 350 573 387 585 c 1
 363 594 344 604 320 610 c 1
 341 610 l 1
 346 615 335 624 335 629 c 1
 348 635 l 2
 352 640 359 630 364 635 c 1
 359 640 364 633 356 640 c 1x50
 417 640 480 638 541 648 c 1x30
512 622 m 0
 503 622 493 615 489 610 c 1x30
 493 615 504 613 509 609 c 1
 509 613 517 622 512 622 c 0
464 589 m 1
 445 574 427 553 417 539 c 1
 422 539 429 542 433 547 c 1
 437 537 439 529 440 519 c 1
 452 542 454 566 464 589 c 1
EndSplineSet
EndChar

StartChar: uni0012
Encoding: 18 18 66
Width: 466
VWidth: 1050
Flags: W
HStem: -168 102<66 118.5> 288 28<128.5 141.5> 290 17<388 416>
LayerCount: 2
Back
Fore
SplineSet
418 284 m 1xa0
 412 290 409 290 394 290 c 0
 382 290 368 286 353 274 c 1
 352 233 349 174 328 139 c 0
 320 128 297 112 286 93 c 0
 272 72 273 29 260 4 c 0
 230 -50 201 -98 160 -148 c 0
 153 -156 125 -168 112 -168 c 0
 83 -168 46 -103 37 -90 c 0
 31 -87 20 -81 9 -80 c 1
 26 -74 59 -66 73 -66 c 0
 88 -66 121 -56 150 -56 c 1
 144 -61 131 -70 121 -81 c 0
 121 -86 131 -95 137 -106 c 1
 142 -106 144 -105 158 -105 c 0
 183 -105 223 11 223 13 c 0
 223 25 161 116 123 167 c 0
 121 172 127 178 125 184 c 0
 103 215 80 288 46 297 c 0
 35 300 20 301 10 301 c 1
 23 313 107 316 141 316 c 0xa0
 155 316 141 310 147 305 c 1
 152 310 161 312 167 307 c 1xc0
 156 308 148 288 135 288 c 0xa0
 122 288 121 290 116 284 c 1
 127 231 l 1
 160 186 186 143 209 98 c 1
 230 149 252 210 251 261 c 1
 262 259 273 264 285 275 c 1
 279 281 273 281 268 287 c 1
 277 292 297 300 315 302 c 0
 343 306 394 307 409 307 c 0xc0
 423 307 418 290 418 284 c 1xa0
331 273 m 0
 330 275 320 277 320 277 c 1
 320 261 321 245 321 245 c 1
 327 255 329 270 331 273 c 0
279 230 m 1
 301 253 l 1
 271 254 272 211 262 199 c 1
 273 192 l 1
 281 193 295 210 301 214 c 1
 291 212 285 218 279 230 c 1
245 90 m 1
 234 95 235 109 230 114 c 1
 230 84 l 2
 231 90 245 90 245 90 c 1
248 67 m 1
 248 61 234 62 229 62 c 2
 244 48 l 2
 244 53 248 61 248 67 c 1
EndSplineSet
EndChar

StartChar: uni0013
Encoding: 19 19 67
Width: 508
VWidth: 1050
Flags: W
HStem: 188 313<116 122>
VStem: 44 81<314.5 370.5> 50 57<65 128.5> 62 29<482.5 527> 62 71<481 527> 69 96 123 17 289 196
LayerCount: 2
Back
Fore
SplineSet
485 355 m 0xa3
 485 305 334 216 317 210 c 0
 271 193 209 171 156 159 c 1
 147 150 l 1
 137 150 120 141 108 141 c 1
 107 118 107 92 107 65 c 1
 121 59 97 33 109 33 c 1
 100 6 l 2
 100 1 90 -26 94 -30 c 1
 42 -50 81 -10 33 -25 c 1
 29 -20 29 35 29 48 c 0
 29 58 46 85 46 98 c 0
 46 109 50 115 50 125 c 0
 50 132 63 146 63 178 c 2
 62 209 l 2x89
 63 220 44 353 44 365 c 0x93
 44 376 52 405 52 419 c 1
 70 419 57 430 60 460 c 0
 61 473 60 491 62 512 c 0x85
 62 542 79 554 85 585 c 0
 84 590 76 588 76 588 c 1
 52 588 90 617 90 617 c 1
 70 629 l 1
 90 639 l 1
 90 639 100 653 105 658 c 1
 135 638 173 641 173 609 c 0
 173 596 169 598 165 593 c 1x89
 165 554 150 569 140 517 c 1xc1
 145 512 170 503 133 507 c 1x93
 133 481 l 1
 164 490 219 494 250 490 c 0
 255 489 262 481 273 481 c 0
 337 481 402 425 402 425 c 1
 413 425 399 430 411 430 c 0
 423 430 485 368 485 355 c 0xa3
395 378 m 2
 418 384 l 1
 413 389 406 391 401 396 c 1
 401 391 399 383 395 378 c 2
394 414 m 1
 342 455 335 444 330 448 c 1
 326 444 324 435 324 435 c 1
 329 435 380 414 394 414 c 1
328 457 m 1
 295 475 291 467 268 466 c 1
 293 463 301 466 323 445 c 1
 323 446 323 454 328 457 c 1
403 305 m 1
 370 276 338 249 314 226 c 1
 356 241 398 272 403 305 c 1
109 501 m 1
 123 501 l 1x93
 123 529 l 1
 117 514 91 500 91 489 c 0
 91 476 94 476 99 471 c 1
 103 480 104 491 109 501 c 1
351 310 m 1
 332 305 314 305 306 300 c 1
 292 231 l 1
 302 246 332 295 351 310 c 1
125 450 m 2
 125 454 130 469 125 473 c 0
 120 473 116 461 112 456 c 1
 116 451 125 450 125 450 c 2
290 290 m 1
 286 294 284 301 289 424 c 1
 276 412 258 418 250 418 c 0
 227 418 201 421 184 421 c 0
 170 421 147 419 135 424 c 1
 130 390 125 332 125 320 c 0
 125 309 130 277 131 261 c 0
 134 260 143 256 143 245 c 0
 143 232 130 201 130 183 c 1
 122 188 l 1
 110 188 102 173 102 169 c 1
 158 188 229 217 284 246 c 1
 285 260 285 275 290 290 c 1
109 344 m 1
 100 330 98 298 100 287 c 1
 110 305 110 333 109 344 c 1
EndSplineSet
EndChar

StartChar: uni000F
Encoding: 15 15 68
Width: 506
VWidth: 1050
Flags: W
HStem: -23 33<225.5 238 220.5 253.5 220.5 337> -23 48<317 333.5 317 337> -23 53<225.5 317 304.5 317 304.5 337> 310 17<330.5 369> 348 328 523 127<348.5 360 333 362> 591 85 643 33 822 21G
VStem: 93 128<424 500.5> 136 85<349 349> 318 22 322 18 453 21<130.5 198>
LayerCount: 2
Back
Fore
SplineSet
474 150 m 0x912c
 474 111 439 6 383 -6 c 0
 368 -9 350 -23 337 -23 c 0
 324 -23 260 -23 247 -23 c 0
 204 -23 69 53 43 70 c 0
 35 74 25 92 20 104 c 1
 20 104 39 105 44 99 c 1
 60 105 93 110 107 110 c 0
 120 110 147 112 168 108 c 1
 151 103 130 94 114 90 c 1
 130 54 210 10 231 10 c 0
 245 10 243 19 244 23 c 0
 262 24 299 30 310 30 c 0x942c
 324 30 310 25 324 25 c 0x924c
 343 25 337 61 337 62 c 0
 337 75 339 84 331 94 c 1
 324 90 323 78 318 68 c 1
 318 136 322 203 322 282 c 1x5134
 322 282 326 277 331 271 c 1
 336 277 338 292 338 298 c 1
 343 292 340 299 348 304 c 1
 348 310 350 310 337 310 c 0
 324 310 328 308 324 303 c 1
 324 309 327 310 313 310 c 0
 302 310 231 290 218 290 c 0
 210 290 141 314 117 338 c 0
 102 353 93 418 93 430 c 0
 93 571 184 676 300 676 c 0
 313 676 342 650 355 650 c 0x312c
 369 650 361 650 367 655 c 1
 383 618 410 586 421 549 c 1
 444 554 459 552 470 548 c 1
 470 548 464 539 464 534 c 1
 431 534 373 523 360 523 c 2
 333 523 l 1
 333 523 331 531 327 536 c 1
 341 545 369 569 369 581 c 0
 369 592 337 626 307 637 c 0
 283 647 255 639 230 645 c 1
 230 645 221 652 221 639 c 2
 221 324 l 1
 230 296 260 315 281 319 c 0
 308 325 348 327 361 327 c 0
 377 327 434 278 441 268 c 0
 455 239 474 187 474 150 c 0x912c
192 591 m 1
 178 572 156 537 142 518 c 1
 156 530 190 572 192 591 c 1
363 278 m 1
 333 268 339 220 346 200 c 1
 346 227 352 252 363 278 c 1
453 191 m 0
 453 205 435 237 430 252 c 1
 425 231 402 206 386 185 c 1
 402 200 416 213 434 221 c 1
 443 213 l 1
 411 176 380 131 359 106 c 1
 386 125 453 179 453 191 c 0
457 163 m 1
 451 152 445 142 432 132 c 1
 443 132 450 125 449 119 c 2
 428 95 l 2
 432 95 447 99 452 94 c 1
 452 115 457 142 457 163 c 1
198 317 m 1
 198 328 203 343 197 348 c 1x982c
 187 343 178 341 172 347 c 1
 172 357 175 367 181 371 c 1
 170 361 152 345 141 340 c 1
 157 334 183 322 198 317 c 1
136 349 m 1
 140 406 l 1
 135 406 140 402 128 402 c 0
 114 402 122 411 116 414 c 1
 116 378 l 2
 114 366 127 352 136 349 c 1
276 748 m 1
 385 843 l 1x0080
 446 788 308 750 292 706 c 1
 273 700 238 708 222 729 c 0
 199 753 203 795 167 819 c 1
 174 829 203 837 215 825 c 2
 276 748 l 1
375 787 m 1
 384 813 l 1
 356 784 l 1
 337 767 l 1
 331 753 l 1
 375 787 l 1
EndSplineSet
EndChar

StartChar: uni0010
Encoding: 16 16 69
Width: 324
VWidth: 1050
Flags: W
HStem: -27 52 157 20G<125.5 141> 165 12<139 141 125.5 155.5> 294 56<134 189> 319 31<141 159> 502 21G
VStem: 44 74<215 230> 173 80<68.5 82.5 68.5 154 68.5 154> 192 48<280 286 264 290 264 290> 239 14<70 70>
LayerCount: 2
Back
Fore
SplineSet
253 75 m 0xaf
 253 62 234 30 230 12 c 1
 212 -5 169 -27 155 -27 c 0
 136 -27 108 -10 83 9 c 0
 67 21 45 31 32 50 c 1
 32 72 l 1
 32 72 41 72 48 66 c 1
 53 72 107 81 100 88 c 1
 107 88 76 61 83 58 c 1
 124 -30 130 35 164 23 c 1
 170 30 173 30 173 46 c 2
 173 154 l 1xcf
 168 161 165 165 146 165 c 0
 132 165 135 158 118 158 c 0
 88 158 44 207 44 223 c 0
 44 237 49 256 52 268 c 0
 57 284 116 350 152 350 c 0
 189 350 214 288 217 288 c 0
 232 288 235 292 240 286 c 1
 240 264 l 1
 229 270 204 263 191 257 c 1
 176 270 l 1
 176 270 168 267 161 267 c 1
 169 267 181 281 192 280 c 1
 192 290 l 1
 189 294 l 1xb680
 173 294 174 309 171 314 c 0
 169 320 169 319 149 319 c 0
 133 319 131 321 118 309 c 1
 118 188 l 1
 124 181 118 177 133 177 c 0
 149 177 171 183 190 190 c 1
 202 172 226 159 238 139 c 0
 250 123 253 90 253 75 c 0xaf
74 264 m 1
 102 290 l 1
 71 271 l 1
 61 237 l 1
 66 213 l 1
 78 203 l 1
 84 210 l 1
 74 216 l 1
 88 225 l 1
 74 225 l 1
 90 237 l 1
 76 245 l 1
 82 256 l 1
 74 264 l 1
222 30 m 1
 239 70 l 1xce40
 235 112 l 1
 222 136 l 1
 215 111 l 1
 227 111 l 1
 211 81 l 1
 226 75 l 1
 203 57 l 1
 215 49 l 1
 187 28 l 1
 222 30 l 1
155 428 m 1
 264 523 l 1
 325 468 187 430 171 386 c 1
 152 380 117 388 101 409 c 0
 78 433 82 475 46 499 c 1
 53 509 82 517 94 505 c 2
 155 428 l 1
254 467 m 1
 263 493 l 1
 235 464 l 1
 216 447 l 1
 210 433 l 1
 254 467 l 1
EndSplineSet
EndChar

StartChar: uni000C
Encoding: 12 12 70
Width: 484
VWidth: 1050
Flags: W
HStem: -26 20 433 147 433 235
VStem: 55 54 96 13<136 136> 130 121
LayerCount: 2
Back
Fore
SplineSet
314 605 m 2xcc
 315 601 317 598 318 595 c 1
 321 596 325 598 329 598 c 0
 338 601 348 614 358 623 c 0
 369 631 384 637 395 648 c 1
 399 645 404 640 406 637 c 0
 408 632 408 627 408 621 c 1
 419 611 428 596 420 592 c 1
 415 594 l 2
 411 592 406 581 402 580 c 0
 398 578 372 567 370 565 c 0
 366 563 362 566 358 569 c 1
 354 564 347 557 342 551 c 1
 348 544 365 532 364 528 c 0
 373 492 350 482 366 451 c 1
 350 409 392 366 402 294 c 0
 404 282 393 256 397 250 c 0
 403 241 415 230 420 215 c 1
 413 215 375 178 370 184 c 1
 363 134 403 113 374 61 c 0
 338 -8 290 -26 225 -26 c 0
 95 -26 11 127 11 236 c 0
 11 364 133 478 250 415 c 0
 263 409 323 435 333 418 c 1
 328 467 l 1
 316 511 314 475 294 510 c 0
 293 510 291 505 291 506 c 1
 289 504 289 503 287 502 c 2
 283 490 l 2
 279 489 255 471 242 457 c 1
 239 461 238 448 234 447 c 0
 233 446 224 459 218 450 c 1
 209 455 l 1
 204 463 202 479 197 489 c 1
 203 509 220 515 231 530 c 0
 237 536 247 541 256 547 c 1
 233 564 206 580 183 580 c 0
 167 580 162 607 151 593 c 1
 150 581 137 613 133 607 c 1
 113 634 90 621 90 656 c 0
 90 672 118 696 118 715 c 0
 121 724 170 695 188 695 c 0
 204 695 208 688 237 676 c 0
 248 671 265 659 265 659 c 1
 250 642 277 642 287 634 c 1
 293 641 314 605 314 605 c 2xcc
138 668 m 1xb4
 145 660 163 651 170 651 c 1
 162 668 l 1
 138 668 l 1xb4
205 646 m 1
 223 627 251 590 270 559 c 1
 270 583 228 634 205 646 c 1
54 324 m 1
 60 324 70 328 70 340 c 1
 54 324 l 1
303 129 m 1
 309 129 342 99 352 124 c 1
 347 124 309 122 303 129 c 1
87 284 m 1
 87 277 101 259 108 247 c 1
 110 260 103 275 87 284 c 1
87 195 m 1
 87 190 102 177 108 165 c 1
 108 170 114 190 114 195 c 1
 109 190 93 190 87 195 c 1
130 105 m 0
 130 85 137 58 143 32 c 1
 210 37 185 20 214 20 c 0
 228 20 260 0 278 0 c 1
 210 179 293 221 293 310 c 0
 293 329 271 378 243 378 c 0
 227 378 181 399 150 393 c 1
 143 383 130 118 130 105 c 0
344 403 m 1
 350 382 336 360 370 341 c 1
 366 360 356 390 344 403 c 1
105 47 m 1
 110 47 123 34 129 34 c 1
 123 40 119 57 113 64 c 1
 113 64 110 53 105 47 c 1
336 347 m 1
 349 321 345 261 382 252 c 1
 392 270 363 316 336 347 c 1
311 293 m 1
 325 268 340 230 352 206 c 1
 352 211 361 218 361 233 c 0
 361 247 331 271 311 293 c 1
290 95 m 1
 297 90 318 85 337 78 c 1
 371 89 l 1
 347 87 319 90 290 95 c 1
55 139 m 1
 61 146 71 142 78 149 c 1
 66 161 56 173 55 187 c 2
 55 139 l 1
78 114 m 1
 84 114 102 129 109 135 c 1
 100 148 87 160 80 173 c 1
 87 160 90 149 96 136 c 1xcc
 90 130 78 127 78 114 c 1
239 506 m 2
 222 505 l 1
 218 498 216 490 212 488 c 0
 209 486 209 483 210 479 c 1
 219 484 233 476 236 477 c 0
 240 479 224 492 228 494 c 0
 231 496 235 504 239 506 c 2
EndSplineSet
EndChar

StartChar: uni000D
Encoding: 13 13 71
Width: 590
VWidth: 1050
Flags: W
HStem: -8 20 -1 171 -1 186 6 14 6 61 633 34<238 252>
VStem: 106 68 129 45
LayerCount: 2
Back
Fore
SplineSet
264 489 m 0x45
 278 491 277 511 284 527 c 1
 293 523 313 518 326 512 c 0
 338 507 344 500 354 492 c 1
 350 491 339 491 335 490 c 0
 296 454 251 418 214 381 c 0
 200 367 184 348 166 329 c 1
 163 312 161 296 158 278 c 1
 164 284 170 294 175 294 c 1
 175 289 170 250 174 168 c 1
 174 158 l 1
 245 170 402 170 416 170 c 0
 428 170 431 170 451 168 c 1
 462 158 468 185 480 185 c 0x15
 491 185 508 199 517 215 c 1
 519 232 515 256 515 284 c 1
 521 278 530 270 531 265 c 0
 534 240 552 198 552 185 c 0
 552 170 547 181 542 175 c 1
 540 142 535 102 539 71 c 0
 541 56 538 17 544 1 c 1
 450 -6 333 10 241 6 c 0x46
 220 5 197 -4 174 0 c 1
 169 -4 163 -3 158 -8 c 1x85
 120 -3 55 -12 10 -7 c 1
 24 8 l 1
 34 8 41 13 47 14 c 0
 52 12 57 13 71 13 c 0
 103 13 103 138 106 170 c 0x16
 109 209 126 259 118 289 c 1
 89 268 53 250 10 244 c 1
 0 250 -15 270 -15 278 c 0
 -15 285 -2 295 6 297 c 0
 58 306 88 323 111 344 c 1
 111 404 129 536 129 549 c 2x25
 129 569 l 1
 113 575 103 583 91 599 c 1
 75 602 47 603 35 609 c 1
 48 622 l 1
 59 622 75 622 75 622 c 1
 81 628 69 632 69 638 c 1
 148 645 167 667 259 667 c 0
 272 667 278 664 322 659 c 1
 306 653 289 656 261 656 c 1
 261 650 256 653 250 648 c 1
 267 642 291 637 311 631 c 1
 302 626 284 619 275 625 c 0
 266 630 259 633 245 633 c 0
 231 633 228 634 222 632 c 1
 218 619 195 609 180 596 c 1
 178 560 176 490 174 436 c 1
 199 455 225 480 264 489 c 0x45
434 148 m 1
 424 148 410 154 405 154 c 1
 410 149 389 110 389 104 c 1
 433 122 430 148 434 148 c 1
484 46 m 1
 478 41 430 31 424 26 c 1
 430 20 478 24 478 24 c 1
 484 30 484 41 484 46 c 1
343 155 m 2
 287 142 l 1
 315 127 l 1
 313 136 324 147 343 155 c 2
363 51 m 1
 357 46 344 35 328 35 c 1
 314 20 l 1
 340 20 l 1
 351 30 363 46 363 51 c 1
294 130 m 1
 284 130 238 73 234 67 c 1x0d
 265 74 290 124 294 130 c 1
253 139 m 1
 231 128 182 78 170 61 c 1
 231 84 236 123 253 139 c 1
204 128 m 1
 169 137 l 1
 144 86 l 1
 160 97 188 116 204 128 c 1
168 370 m 1
 251 436 l 1
 243 454 l 1
 212 418 l 1
 191 395 l 1
 168 370 l 1
30 268 m 1
 70 285 l 1
 46 286 l 1
 22 278 l 1
 30 268 l 1
100 288 m 0
 138 299 174 354 190 374 c 1
 151 338 131 305 88 298 c 1
 87 293 86 284 100 288 c 0
EndSplineSet
EndChar

StartChar: uni000E
Encoding: 14 14 72
Width: 301
VWidth: 1050
Flags: W
HStem: -28 36
LayerCount: 2
Back
Fore
SplineSet
262 462 m 0
 276 465 272 480 279 496 c 1
 289 491 287 484 299 479 c 0
 311 473 303 467 313 459 c 1
 309 458 294 449 290 448 c 0
 251 411 274 390 237 353 c 0
 224 339 210 321 191 303 c 1
 182 214 171 134 200 10 c 1
 245 8 l 1
 194 -70 144 4 84 4 c 1
 150 105 132 157 141 261 c 1
 111 239 76 223 32 216 c 1
 23 223 8 243 8 250 c 0
 8 257 21 268 29 270 c 0
 95 280 126 307 152 334 c 1
 153 342 154 350 156 358 c 0
 147 444 183 554 99 608 c 1
 43 608 l 1
 110 647 177 626 242 613 c 1
 186 571 l 1
 196 510 195 423 194 376 c 1
 210 395 225 453 262 462 c 0
256 405 m 1
 250 430 l 1
 235 391 l 1
 214 368 l 1
 127 276 l 1
 194 311 210 338 256 405 c 1
52 240 m 1
 94 257 l 1
 69 258 l 1
 45 250 l 1
 52 240 l 1
EndSplineSet
EndChar

StartChar: a
Encoding: 97 97 73
Width: 451
VWidth: 1050
Flags: W
HStem: -9 21 -2 23 186 53<306 325 312 321> 358 20G
VStem: 7 82 197 121 250 91 321 20
LayerCount: 2
Back
Fore
SplineSet
418 -1 m 1xba
 368 -4 293 6 237 -7 c 1
 237 6 244 28 231 36 c 1
 182 -4 116 -19 50 -1 c 1
 8 21 -2 80 13 127 c 0
 30 176 72 210 119 239 c 1
 175 248 225 230 253 186 c 1
 244 248 258 286 274 345 c 1
 218 373 175 357 150 313 c 1
 166 257 104 291 67 282 c 1
 107 349 288 433 356 328 c 1
 341 237 330 102 359 14 c 1
 384 14 406 24 418 -1 c 1xba
312 239 m 1
 325 239 l 1
 325 248 l 1
 312 248 l 1
 312 239 l 1
306 186 m 1
 321 170 l 1xbd
 321 186 l 1
 306 186 l 1
290 21 m 1
 328 21 l 1x7a
 312 154 l 1
 337 120 271 73 290 21 c 1
225 105 m 1
 237 105 l 1
 237 111 241 120 231 127 c 1
 225 105 l 1
200 186 m 1
 185 210 160 213 135 217 c 1
 82 183 94 120 89 73 c 1
 94 30 135 -4 163 21 c 1
 219 58 185 133 200 186 c 1
EndSplineSet
EndChar

StartChar: b
Encoding: 98 98 74
Width: 409
VWidth: 1050
Flags: W
HStem: 0 20 13 34 161 69<344 355 344 355> 704 40
VStem: 68 19 72 77 281 63 355 13
LayerCount: 2
Back
Fore
SplineSet
350 77 m 1x7b
 316 24 248 0 186 21 c 1
 165 66 114 48 93 92 c 1
 81 74 87 50 87 30 c 1
 123 6 l 1
 90 -6 51 3 15 0 c 1xbb
 15 14 l 1
 42 209 81 441 63 673 c 1
 42 749 -14 652 -44 715 c 1
 15 736 90 760 150 730 c 1
 78 763 102 665 87 629 c 1
 87 515 81 375 93 256 c 1
 131 304 176 367 242 364 c 1
 295 372 329 313 350 280 c 1
 376 214 370 143 350 77 c 1x7b
337 265 m 1
 323 265 l 1
 329 250 l 1
 334 253 337 256 337 265 c 1
344 230 m 1
 355 230 l 1
 355 238 l 1
 344 238 l 1
 344 230 l 1
344 149 m 1
 355 149 l 1
 355 161 l 1
 344 161 l 1
 344 149 l 1
158 307 m 1
 168 307 l 1
 168 319 l 1
 158 319 l 1
 158 307 l 1
271 322 m 1
 254 313 230 316 207 316 c 1
 96 274 179 158 165 77 c 1
 194 69 233 35 257 50 c 1
 295 128 278 235 271 322 c 1
63 143 m 1
 72 143 l 1x77
 72 220 l 1
 63 220 l 1
 63 143 l 1
EndSplineSet
EndChar

StartChar: c
Encoding: 99 99 75
Width: 374
VWidth: 1050
Flags: W
HStem: -7 20 343 21G
VStem: 7 90
LayerCount: 2
Back
Fore
SplineSet
221 77 m 1
 329 90 l 1
 281 15 189 -18 93 -3 c 1
 30 24 19 95 7 154 c 1
 31 336 72 325 150 363 c 1
 186 366 218 357 242 333 c 1
 271 291 l 1
 278 294 281 307 292 304 c 0
 302 301 298 291 298 283 c 1
 212 241 l 1
 212 256 l 1
 221 256 l 1
 230 280 212 310 200 333 c 1
 173 339 155 321 135 318 c 1
 138 325 131 330 129 333 c 0
 120 333 111 336 105 328 c 1
 162 232 72 -6 221 18 c 1
 248 48 l 1
 221 77 l 1
78 277 m 1
 88 277 l 1
 88 286 l 1
 78 286 l 1
 78 277 l 1
105 226 m 1
 90 192 102 154 93 119 c 1
 117 146 102 190 105 226 c 1
EndSplineSet
EndChar

StartChar: d
Encoding: 100 100 76
Width: 440
VWidth: 1050
Flags: W
HStem: -24 20 150 26<43 55 43 55> 349 24 352 21G<203 215 203 203> 657 21G<369 369>
VStem: 111 21 114 225 250 42 291 21
LayerCount: 2
Back
Fore
SplineSet
400 4 m 1xdc80
 379 -17 323 -27 302 -23 c 1
 295 -11 281 -20 272 -17 c 1
 308 -11 308 36 313 69 c 0
 313 78 319 92 308 96 c 1
 249 51 173 -56 78 -3 c 1
 16 49 19 134 22 203 c 1
 51 266 67 330 131 364 c 0
 194 396 242 343 274 298 c 0
 274 292 277 290 284 287 c 1
 284 393 315 540 254 654 c 1
 284 693 321 657 369 678 c 1
 369 657 l 1
 238 452 381 298 339 54 c 1xda
 354 21 376 10 400 4 c 1xdc80
203 343 m 1
 215 343 l 1
 215 352 l 1
 203 352 l 1
 203 343 l 1
227 313 m 1
 253 292 l 1
 239 313 l 1
 227 313 l 1
292 227 m 1
 302 232 l 1
 299 242 308 256 292 262 c 1xed
 292 227 l 1
236 54 m 1
 249 137 280 287 176 349 c 1
 147 349 l 1
 126 248 130 113 150 4 c 1
 186 4 212 28 236 54 c 1
109 218 m 1
 70 185 109 150 64 120 c 1
 85 155 123 167 109 218 c 1
43 176 m 1
 55 176 l 1
 55 185 l 1
 43 185 l 1
 43 176 l 1
99 131 m 1
 114 84 l 1xda
 114 110 l 2
 117 123 111 134 99 131 c 1
43 140 m 1
 55 140 l 1
 55 150 l 1
 43 150 l 1
 43 140 l 1
EndSplineSet
EndChar

StartChar: e
Encoding: 101 101 77
Width: 437
VWidth: 1050
Flags: W
HStem: 210 20G 340 28
VStem: 260 114 267 107
LayerCount: 2
Back
Fore
SplineSet
372 97 m 1xd0
 382 61 343 31 316 2 c 1
 242 -5 173 -43 93 -19 c 1
 49 5 30 55 10 97 c 1
 13 198 43 302 138 352 c 1
 197 376 284 376 331 323 c 0
 358 293 382 257 372 210 c 1
 123 195 l 1
 117 132 99 43 138 -5 c 1
 189 10 227 -8 266 37 c 1
 271 58 257 70 245 82 c 1
 271 109 340 90 372 97 c 1xd0
331 281 m 1
 331 296 l 1
 319 296 313 284 316 275 c 1
 319 278 322 284 331 281 c 1
260 230 m 1xe0
 266 302 l 1
 242 368 159 335 123 302 c 1
 126 275 120 249 117 225 c 1
 260 230 l 1xe0
316 61 m 1
 331 73 l 1
 316 61 l 1
30 153 m 1
 46 180 l 1
 22 153 l 1
 30 153 l 1
67 47 m 1
 75 47 l 1
 75 55 l 1
 67 55 l 1
 67 47 l 1
51 88 m 1
 37 79 37 64 46 52 c 1
 46 64 40 82 51 88 c 1
EndSplineSet
EndChar

StartChar: f
Encoding: 102 102 78
Width: 350
VWidth: 1050
Flags: W
HStem: 307 15 516 139 664 21G
VStem: 108 31 108 188 108 191 153 25
LayerCount: 2
Back
Fore
SplineSet
310 519 m 1xf0
 274 501 262 572 229 543 c 1
 217 575 229 629 193 655 c 1
 80 602 178 438 184 337 c 1
 210 343 252 319 267 358 c 0
 270 367 261 382 276 385 c 1
 264 337 300 322 276 277 c 1
 270 295 258 316 240 322 c 1
 169 308 l 1
 210 194 123 43 257 10 c 1
 200 -34 147 7 88 -2 c 1
 194 61 139 179 139 301 c 1
 104 313 52 308 32 277 c 1
 -1 298 38 322 26 349 c 1
 47 351 32 328 47 322 c 1
 280 357 -55 651 229 685 c 1
 231 661 250 637 273 629 c 1
 289 644 l 1
 282 647 276 650 279 655 c 1
 321 637 277 546 310 519 c 1xf0
EndSplineSet
EndChar

StartChar: g
Encoding: 103 103 79
Width: 430
VWidth: 1050
Flags: W
HStem: -235 20 -38 79 8 205 51 304 318 37
VStem: 50 107 82 70 278 77 284 18 335 20<362 362>
LayerCount: 2
Back
Fore
SplineSet
377 384 m 1xcd
 355 362 l 1
 352 199 339 -12 302 -179 c 1xccc0
 240 -230 146 -252 63 -220 c 0
 17 -202 0 -170 21 -120 c 0
 45 -61 107 -12 163 9 c 1
 111 -2 80 47 52 78 c 1
 42 161 58 250 123 311 c 0
 165 351 227 365 283 349 c 1
 323 311 l 1
 326 328 339 341 334 362 c 1
 318 381 291 378 270 389 c 1
 323 384 332 434 377 384 c 1xcd
302 260 m 1
 310 233 l 1
 310 260 l 1
 302 260 l 1
315 131 m 1
 323 137 l 1
 323 164 l 1
 315 131 l 1
302 143 m 1
 310 143 l 1
 310 174 l 1
 302 174 l 1
 302 143 l 1
278 303 m 1
 267 330 235 309 219 325 c 1
 111 271 170 146 154 41 c 1
 187 41 l 2
 355 41 246 217 278 303 c 1
85 215 m 1
 110 213 l 1xacc0
 104 239 l 1
 85 215 l 1
296 60 m 1
 219 9 l 1
 240 1 259 -8 283 -5 c 1
 296 14 312 44 296 60 c 1
232 41 m 1
 243 41 l 1xd4c0
 243 51 l 1xccc0
 232 51 l 1
 232 41 l 1
71 189 m 1
 82 189 l 1xcac0
 82 199 l 1
 71 199 l 1
 71 189 l 1
66 118 m 1
 74 118 l 1
 74 127 l 1
 66 127 l 1
 66 118 l 1
98 54 m 1
 107 54 l 1
 107 62 l 1
 98 62 l 1
 98 54 l 1
117 -29 m 1
 125 -29 l 1
 125 -21 l 1
 117 -21 l 1
 117 -29 l 1
250 -37 m 1
 227 -45 179 -18 141 -37 c 1
 109 -45 111 -82 104 -107 c 1
 123 -157 110 -233 194 -210 c 0
 278 -189 230 -101 250 -37 c 1
85 -82 m 1
 93 -82 l 1
 93 -71 l 1
 85 -71 l 1
 85 -82 l 1
52 -190 m 1
 61 -190 l 1
 61 -181 l 1
 52 -181 l 1
 52 -190 l 1
EndSplineSet
EndChar

StartChar: h
Encoding: 104 104 80
Width: 416
VWidth: 1050
Flags: W
HStem: -14 156 -14 266 150 30<292 303 292 303> 260 10<279 285 274 290 279 279>
VStem: 56 12 56 31 76 212<102 226 226 236 102 239 102 239> 212 91 215 73 215 77 215 89
LayerCount: 2
Back
Fore
SplineSet
365 8 m 1xb820
 338 -28 245 -11 212 -6 c 1x5420
 212 101 229 306 183 322 c 1
 91 250 91 134 94 32 c 1
 108 16 143 38 146 13 c 1
 127 -5 81 25 76 -13 c 1xba
 60 25 35 -10 11 0 c 1
 20 22 105 6 62 46 c 1
 44 254 80 431 43 622 c 1
 30 622 13 616 5 628 c 1
 50 635 120 643 157 622 c 1
 136 600 88 592 74 565 c 1
 87 239 l 1xb9
 130 290 172 370 247 340 c 1
 368 270 237 15 365 8 c 1xb820
274 270 m 1
 285 270 l 1
 285 279 l 1
 274 279 l 1
 274 270 l 1
269 295 m 0
 260 303 252 313 242 309 c 1
 271 316 250 284 260 284 c 0
 263 287 269 290 269 295 c 0
279 252 m 1
 290 252 l 1
 290 260 l 1
 279 260 l 1
 279 252 l 1
288 226 m 1
 295 226 l 1
 295 236 l 1
 288 236 l 1xb880
 288 226 l 1
292 180 m 1
 303 180 l 1xb840
 303 190 l 1
 292 190 l 1xb9
 292 180 l 1
303 142 m 1
 292 142 l 1
 292 150 l 1xb9
 303 150 l 1
 303 142 l 1
260 142 m 1xb840
 269 161 l 1
 260 142 l 1xb840
301 84 m 1
 301 124 l 1
 288 102 l 1xb9
 314 102 279 86 301 84 c 1
68 207 m 1
 76 207 l 1
 76 239 l 1
 68 239 l 1
 68 207 l 1
EndSplineSet
EndChar

StartChar: i
Encoding: 105 105 81
Width: 324
VWidth: 1050
Flags: W
HStem: -12 117 319 214 523 10
VStem: 115 74 177 12 218 14
LayerCount: 2
Back
Fore
SplineSet
231 497 m 1xb4
 237 455 216 420 180 402 c 1
 150 381 100 387 68 396 c 1
 38 413 38 444 38 473 c 1
 73 542 190 553 231 497 c 1xb4
204 24 m 1
 282 3 l 1
 234 -21 121 -11 47 -3 c 1
 180 -6 89 185 124 274 c 1
 109 319 l 1xd4
 70 322 47 277 10 310 c 1
 76 349 160 351 240 360 c 1
 142 301 216 137 204 24 c 1
216 497 m 1
 204 509 184 532 169 518 c 1
 156 512 156 473 169 468 c 1
 169 461 163 455 160 452 c 1
 190 426 l 1
 213 441 222 468 216 497 c 1
62 437 m 1
 68 447 l 1
 65 450 58 455 52 452 c 1
 62 437 l 1
68 417 m 2
 89 402 l 1
 89 426 l 1
 79 429 76 410 68 417 c 2
169 274 m 1
 177 274 l 1xac
 177 286 l 1
 169 286 l 1
 169 274 l 1
153 188 m 1
 160 211 l 1
 139 176 l 1
 153 188 l 1
145 105 m 1
 156 105 l 1
 156 113 l 1
 145 113 l 1
 145 105 l 1
153 18 m 1
 163 18 l 1
 163 27 l 1
 153 27 l 1
 153 18 l 1
EndSplineSet
EndChar

StartChar: j
Encoding: 106 106 82
Width: 292
VWidth: 1050
Flags: W
HStem: -117 99 349 155<186 198 186 186> 534 22
VStem: 50 20<-191 -191 -191 -183 -165 -165 -165 -152> 169 39 195 13
LayerCount: 2
Back
Fore
SplineSet
272 504 m 1xf8
 284 459 257 420 222 402 c 1
 183 390 132 390 109 432 c 1
 93 489 135 530 180 554 c 1
 222 566 254 533 272 504 c 1xf8
287 361 m 1
 249 364 233 316 195 304 c 1xf4
 207 113 237 -91 124 -234 c 1
 94 -237 64 -230 49 -200 c 1
 58 -155 29 -135 34 -99 c 1
 19 -99 l 1
 29 -88 26 -72 26 -57 c 1
 13 -43 l 1
 31 -4 82 -22 111 -28 c 1
 109 -90 109 -142 130 -187 c 1
 169 -20 186 57 145 224 c 1
 150 224 l 1
 177 260 130 280 135 316 c 1
 109 316 106 351 73 340 c 1
 132 358 219 364 287 361 c 1
257 504 m 1
 230 545 198 545 171 504 c 1
 201 504 l 1
 204 494 198 491 195 489 c 1
 212 494 230 524 251 504 c 1
 236 483 230 462 207 447 c 1
 230 447 l 1
 263 441 257 480 257 504 c 1
186 340 m 1
 198 340 l 1
 198 349 l 1
 186 349 l 1
 186 340 l 1
180 168 m 1
 186 117 l 1
 200 136 197 149 180 168 c 1
96 -49 m 1
 85 -49 l 1
 90 -78 l 2
 85 -67 100 -60 96 -49 c 1
90 -105 m 1
 103 -105 l 1
 103 -96 l 1
 90 -96 l 1
 90 -105 l 1
61 -129 m 1
 72 -129 l 1
 72 -117 l 1
 61 -117 l 1
 61 -129 l 1
70 -165 m 1
 79 -165 l 1
 79 -152 l 1
 70 -152 l 1
 70 -165 l 1
70 -191 m 1
 79 -191 l 1
 79 -183 l 1
 70 -183 l 1
 70 -191 l 1
EndSplineSet
EndChar

StartChar: k
Encoding: 107 107 83
Width: 398
VWidth: 1050
Flags: W
HStem: -11 25 -5 20 4 270 256 100 318 38 650 21G
VStem: 69 16
LayerCount: 2
Back
Fore
SplineSet
351 352 m 1x4e
 288 350 248 323 210 257 c 1
 225 171 248 88 281 10 c 1
 306 -1 331 30 349 4 c 1x2e
 290 -13 239 -21 185 10 c 1
 250 14 l 1x8e
 248 85 215 161 185 227 c 1
 124 171 61 113 89 22 c 1
 150 4 l 1x2e
 93 10 73 -10 20 -4 c 1
 30 7 43 25 58 10 c 1
 78 62 66 138 69 191 c 1
 58 179 l 1
 53 214 68 245 69 277 c 0
 70 391 69 535 69 641 c 1
 48 641 33 662 8 659 c 2
 159 671 l 1
 35 616 104 403 99 274 c 1
 172 385 237 350 351 352 c 1x4e
236 328 m 1
 244 328 l 1
 244 335 l 1
 236 335 l 1
 236 328 l 1
218 316 m 1
 200 309 160 336 152 293 c 1
 174 299 197 301 218 316 c 1
189 246 m 1
 198 246 l 1
 198 256 l 1x56
 189 256 l 1
 189 246 l 1
EndSplineSet
EndChar

StartChar: l
Encoding: 108 108 84
Width: 254
VWidth: 1050
Flags: W
HStem: -30 35
VStem: 117 44
LayerCount: 2
Back
Fore
SplineSet
164 7 m 1
 208 5 l 1
 157 -72 107 1 48 1 c 1
 130 129 80 179 119 355 c 1
 110 441 146 551 63 605 c 1
 6 605 l 1
 73 645 140 623 206 610 c 1
 149 569 l 1
 190 319 110 236 164 7 c 1
EndSplineSet
EndChar

StartChar: m
Encoding: 109 109 85
Width: 663
VWidth: 1050
Flags: W
HStem: -28 20 273 63 326 21G
VStem: 99 276<273 286 67 289> 100 44 330 37 384 183 506 46
LayerCount: 2
Back
Fore
SplineSet
618 30 m 1xad
 588 10 552 -18 516 -28 c 1
 480 69 555 216 495 304 c 1
 441 318 390 279 381 231 c 1
 378 174 354 120 375 67 c 1xae
 402 51 l 1
 390 21 350 28 324 15 c 1
 309 30 l 1
 303 21 l 1
 288 51 l 1
 297 49 303 60 309 67 c 1
 315 60 321 49 330 51 c 1xb1
 339 195 l 1
 345 195 l 1
 357 222 357 273 315 273 c 0xcd
 312 270 309 265 303 268 c 0
 273 289 237 244 195 252 c 1
 66 166 252 -84 21 7 c 1
 63 12 78 51 99 88 c 1xad
 105 156 81 213 99 289 c 1
 78 304 51 286 27 282 c 1
 78 304 126 357 195 346 c 1
 186 325 114 330 150 289 c 1
 165 258 l 1
 222 286 276 357 339 330 c 1
 378 229 576 456 567 247 c 1xb1
 606 166 483 25 618 30 c 1xad
504 325 m 1
 525 318 l 1
 519 325 l 1
 504 325 l 1
555 210 m 1
 564 210 l 1
 564 219 l 1
 555 219 l 1
 555 210 l 1
375 273 m 1xce
 384 273 l 1xd1
 384 286 l 1
 375 286 l 1xb1
 375 273 l 1xce
555 78 m 1
 546 78 l 1
 546 93 l 1xce
 555 93 l 1
 555 78 l 1
EndSplineSet
EndChar

StartChar: n
Encoding: 110 110 86
Width: 444
VWidth: 1050
Flags: W
HStem: -8 28<90 98.5> 241 109<272 286> 341 21G
VStem: 117 17<217 242 262 280> 253 87 253 98
LayerCount: 2
Back
Fore
SplineSet
395 30 m 1xd8
 395 30 390 21 390 15 c 1
 355 16 323 14 286 12 c 0
 280 10 270 -2 270 -7 c 1
 249 -7 l 1
 250 5 248 24 244 33 c 1
 244 33 253 32 253 47 c 2
 253 239 l 2
 253 253 260 295 266 324 c 1
 254 330 250 328 237 328 c 0
 225 328 162 270 134 242 c 1
 134 30 l 1
 148 16 153 24 157 10 c 1
 140 5 106 -8 91 -8 c 0
 80 -8 67 -2 50 -2 c 1
 50 4 44 13 38 19 c 1
 55 19 83 20 97 20 c 0
 111 20 100 24 104 30 c 0
 112 92 117 205 117 217 c 2
 117 307 l 1
 111 312 102 305 96 299 c 1
 97 305 89 316 74 316 c 0
 60 316 46 310 33 306 c 1
 33 311 27 321 27 327 c 1
 55 332 117 350 131 350 c 0
 146 350 151 347 163 335 c 1
 163 335 155 328 150 330 c 1
 143 316 134 294 134 280 c 2
 134 262 l 1
 159 305 237 331 246 362 c 1xd8
 246 356 247 350 252 345 c 1
 258 345 258 356 264 362 c 1
 264 350 265 350 279 350 c 0xb4
 293 350 284 356 284 362 c 1xd8
 292 351 320 350 332 338 c 0
 350 320 350 291 351 268 c 0
 356 200 345 127 340 53 c 1xb8
 351 30 386 28 395 30 c 1xd8
293 241 m 1
 271 241 l 1
 271 236 273 225 279 219 c 1
 285 225 288 234 293 241 c 1
305 218 m 1
 299 218 283 213 277 213 c 1
 277 208 273 191 279 186 c 1
 290 197 299 212 305 218 c 1
297 140 m 1
 276 142 272 117 272 106 c 1
 284 117 298 133 297 140 c 1
310 116 m 1
 300 112 270 73 267 61 c 1
 278 77 308 88 310 116 c 1
EndSplineSet
EndChar

StartChar: o
Encoding: 111 111 87
Width: 405
VWidth: 1050
Flags: W
HStem: -31 20 348 18
VStem: 225 110
LayerCount: 2
Back
Fore
SplineSet
316 76 m 0
 301 4 222 -4 170 -31 c 1
 143 -34 145 -1 123 10 c 1
 118 2 l 1
 63 30 45 150 19 142 c 1
 35 227 57 315 145 365 c 1
 203 368 296 375 310 293 c 1
 354 230 329 136 316 76 c 0
264 232 m 1
 302 251 l 1
 308 266 293 276 289 279 c 1
 264 232 l 1
241 234 m 1
 288 304 l 1
 252 291 l 1
 241 234 l 1
283 194 m 1
 316 213 l 1
 310 232 l 1
 283 194 l 1
264 340 m 1
 228 343 148 365 123 318 c 1
 150 307 l 1
 132 261 146 102 111 148 c 1
 110 134 128 75 118 43 c 1
 137 34 190 30 170 2 c 1
 255 34 l 1
 230 34 l 1
 223 66 242 110 241 145 c 1
 215 209 225 267 236 326 c 1
 242 321 244 318 250 318 c 1
 255 326 267 329 264 340 c 1
91 280 m 1
 70 258 44 222 51 200 c 1
 85 219 91 246 91 280 c 1
EndSplineSet
EndChar

StartChar: p
Encoding: 112 112 88
Width: 381
VWidth: 1050
Flags: W
HStem: -189 20 26 29 314 22 348 21G
VStem: 57 46 80 14 225 85
LayerCount: 2
Back
Fore
SplineSet
307 220 m 0xfa
 292 153 293 85 240 36 c 1
 188 16 144 28 96 48 c 1
 85 -11 73 -92 87 -161 c 1
 108 -170 121 -166 142 -172 c 1
 105 -186 64 -190 20 -189 c 1
 19 -150 l 1
 76 -71 41 39 52 165 c 1
 69 225 38 288 48 348 c 1
 94 369 l 2xf6
 90 367 69 318 69 311 c 1
 105 341 l 1
 91 295 l 1
 155 352 339 369 307 220 c 0xfa
268 161 m 1
 289 200 l 1
 270 289 l 1
 253 225 l 1
 268 225 l 1
 260 200 l 1
 274 196 l 1
 268 161 l 1
108 256 m 1
 135 290 l 1
 124 290 l 1
 119 279 91 270 108 256 c 1
225 311 m 1
 163 332 146 249 97 237 c 1
 118 171 67 98 119 48 c 1
 98 119 171 28 206 64 c 1
 236 144 220 231 225 311 c 1
64 98 m 1
 80 128 l 1
 75 201 l 1
 64 98 l 1
EndSplineSet
EndChar

StartChar: q
Encoding: 113 113 89
Width: 365
VWidth: 1050
Flags: W
HStem: -187 20 26 35 311 40 359 21G
VStem: 12 65 12 202 222 25 234 43 248 29
LayerCount: 2
Back
Fore
SplineSet
307 -150 m 1xfa80
 296 -149 255 -152 299 -187 c 1
 255 -189 251 -186 214 -172 c 1xf680
 235 -165 149 -150 242 -143 c 1
 256 -74 242 -11 230 48 c 1
 182 28 138 16 86 36 c 1
 33 85 -5 30 19 220 c 0
 38 371 155 374 220 317 c 1
 236 341 l 1
 210 352 l 1
 210 363 207 393 246 373 c 1
 290 380 l 1
 299 321 257 225 273 165 c 1
 285 39 260 -51 307 -150 c 1xfa80
191 290 m 1
 234 246 l 1xf9
 250 259 193 299 189 310 c 2
 191 290 l 1
247 128 m 1xfa80
 262 98 l 1
 250 201 l 1
 247 128 l 1xfa80
236 234 m 1
 150 237 163 330 101 309 c 1
 106 228 48 19 96 70 c 1
 130 33 235 125 214 53 c 1xf680
 268 104 193 145 236 234 c 1
EndSplineSet
EndChar

StartChar: r
Encoding: 114 114 90
Width: 378
VWidth: 1050
Flags: W
HStem: -22 20 217 131 217 141<270.5 273.5> 302 46
VStem: 57 21<222 222 222 230 222 230> 75 55 77 42 85 34
LayerCount: 2
Back
Fore
SplineSet
324 243 m 1xc9
 320 232 288 217 259 217 c 0
 245 217 246 211 240 211 c 1
 237 218 256 302 196 302 c 0xa9
 183 302 180 297 170 295 c 1
 158 280 136 264 119 248 c 1
 124 104 130 59 130 34 c 1x99
 152 29 176 12 190 12 c 0
 205 12 205 13 205 8 c 1
 182 -7 155 1 145 1 c 0
 130 1 142 -10 128 -10 c 0
 113 -10 133 1 119 1 c 2x92
 107 1 l 1
 107 -10 108 -8 113 -8 c 1
 99 -16 95 -10 82 -22 c 1
 70 -5 51 10 40 23 c 1
 70 23 l 1
 75 30 74 38 75 44 c 0x94
 74 101 88 167 77 203 c 1x92
 80 209 85 206 85 220 c 0x94
 85 232 80 281 80 310 c 1
 65 315 40 314 24 309 c 1
 29 320 42 336 42 348 c 1
 48 342 49 330 54 325 c 1
 65 330 61 333 70 348 c 1
 76 342 71 336 85 336 c 0
 97 336 99 348 113 348 c 0
 128 348 125 339 137 339 c 0
 151 339 142 335 148 343 c 1
 150 335 l 1
 146 330 124 326 113 318 c 1
 108 309 108 299 102 288 c 1
 106 251 l 1
 115 271 139 302 160 317 c 0
 176 328 198 320 203 342 c 1
 203 333 l 1
 219 336 235 347 254 348 c 1
 265 336 l 1
 270 342 265 358 276 358 c 2x99
 298 350 l 1
 292 345 285 341 290 335 c 2
 313 318 l 1
 299 304 l 1
 320 290 305 272 324 243 c 1xc9
75 254 m 1x94
 78 222 l 1
 70 201 l 1
 70 187 l 1
 57 204 l 1
 57 230 l 1
 70 278 l 1
 75 254 l 1x94
279 243 m 1
 294 260 l 1
 286 287 l 1
 265 316 l 1
 255 296 l 1
 273 290 l 1
 262 267 l 1
 276 275 l 1
 279 243 l 1
EndSplineSet
EndChar

StartChar: s
Encoding: 115 115 91
Width: 314
VWidth: 1050
Flags: W
HStem: -27 52 157 20G<125.5 141> 165 12<139 141 125.5 155.5> 294 56<134 189> 319 31<141 159>
VStem: 44 74<215 230> 173 80<68.5 82.5 68.5 154 68.5 154> 192 48<280 286 264 290 264 290> 239 14<70 70>
LayerCount: 2
Back
Fore
SplineSet
253 75 m 0xae
 253 62 234 30 230 12 c 1
 212 -5 169 -27 155 -27 c 0
 136 -27 108 -10 83 9 c 0
 67 21 45 31 32 50 c 1
 32 72 l 1
 32 72 41 72 48 66 c 1
 53 72 107 81 100 88 c 1
 107 88 76 61 83 58 c 1
 124 -30 130 35 164 23 c 1
 170 30 173 30 173 46 c 2
 173 154 l 1xce
 168 161 165 165 146 165 c 0
 132 165 135 158 118 158 c 0
 88 158 44 207 44 223 c 0
 44 237 49 256 52 268 c 0
 57 284 116 350 152 350 c 0
 189 350 214 288 217 288 c 0
 232 288 235 292 240 286 c 1
 240 264 l 1
 229 270 204 263 191 257 c 1
 176 270 l 1
 176 270 168 267 161 267 c 1
 169 267 181 281 192 280 c 1
 192 290 l 1
 189 294 l 1xb5
 173 294 174 309 171 314 c 0
 169 320 169 319 149 319 c 0
 133 319 131 321 118 309 c 1
 118 188 l 1
 124 181 118 177 133 177 c 0
 149 177 171 183 190 190 c 1
 202 172 226 159 238 139 c 0
 250 123 253 90 253 75 c 0xae
74 264 m 1
 102 290 l 1
 71 271 l 1
 61 237 l 1
 66 213 l 1
 78 203 l 1
 84 210 l 1
 74 216 l 1
 88 225 l 1
 74 225 l 1
 90 237 l 1
 76 245 l 1
 82 256 l 1
 74 264 l 1
222 30 m 1
 239 70 l 1xcc80
 235 112 l 1
 222 136 l 1
 215 111 l 1
 227 111 l 1
 211 81 l 1
 226 75 l 1
 203 57 l 1
 215 49 l 1
 187 28 l 1
 222 30 l 1
EndSplineSet
EndChar

StartChar: t
Encoding: 116 116 92
Width: 348
VWidth: 1050
Flags: W
HStem: -22 20 44 253<166 178 166 166> 269 53<189 221 189 239> 269 59<233.5 239>
VStem: 136 43 136 139<40 40> 138 31 138 43
LayerCount: 2
Back
Fore
SplineSet
288 312 m 1xa1
 282 306 270 305 263 303 c 0
 252 293 250 281 239 269 c 1
 221 269 l 2
 206 269 193 276 175 270 c 1
 178 234 l 1
 185 239 196 237 199 249 c 1
 213 221 193 202 189 171 c 0
 188 170 181 160 181 145 c 0
 181 132 188 101 191 71 c 0
 193 65 199 54 200 49 c 1
 216 42 244 31 256 31 c 0
 270 31 273 35 275 41 c 2x92
 275 15 l 1
 258 3 233 -3 222 -10 c 2
 209 -22 l 1
 194 -15 165 -20 147 -14 c 1
 148 4 137 23 136 40 c 0
 132 82 135 124 138 166 c 0xa2
 140 202 147 241 152 276 c 1
 136 282 115 274 102 274 c 0
 87 274 55 277 20 289 c 1
 31 289 29 294 34 301 c 1
 29 307 25 325 19 319 c 1
 25 325 36 316 43 310 c 1
 49 316 58 321 52 327 c 1
 62 321 76 308 94 313 c 1
 94 313 99 325 92 325 c 1
 105 318 110 316 126 316 c 0
 140 316 116 328 131 328 c 0
 166 328 150 380 160 405 c 1
 167 399 174 398 181 398 c 1
 186 380 179 322 199 322 c 0x91
 212 322 226 328 241 328 c 0xa4
 256 328 235 316 250 316 c 0
 265 316 241 328 256 328 c 0
 270 328 273 338 288 338 c 0
 303 338 273 319 268 325 c 1
 273 319 288 318 288 312 c 1xa1
208 295 m 1
 225 316 l 1
 184 316 l 1
 178 305 l 1
 158 297 l 1xc2
 195 297 l 1
 205 306 l 1
 208 295 l 1
179 16 m 1
 192 36 l 1
 185 56 l 1
 174 87 l 1
 174 113 l 1
 174 143 l 1
 174 170 l 1
 182 199 l 1
 158 177 l 1
 169 169 l 1
 166 150 l 1
 163 127 l 1
 168 137 l 1
 169 105 l 1
 163 87 l 1
 173 75 l 1
 178 44 l 1
 166 44 l 1
 179 30 l 1xa8
 179 16 l 1
EndSplineSet
EndChar

StartChar: u
Encoding: 117 117 93
Width: 388
VWidth: 1050
Flags: W
HStem: -21 20 -15 34 174 167 317 24<88 99.5 84.5 115 88 88>
VStem: 18 269<7 215.5> 45 76 97 190<7 133 7 133> 146 141<7 59 7 59> 236 51 251 36
LayerCount: 2
Back
Fore
SplineSet
326 321 m 1x9480
 308 326 l 1
 305 318 299 319 289 313 c 1
 288 285 288 251 282 217 c 1
 287 7 l 1
 298 7 305 17 316 17 c 1
 310 11 310 3 308 -2 c 0
 290 -13 248 -21 233 -21 c 0
 220 -21 204 2 210 8 c 1
 227 8 237 1 254 1 c 1
 267 30 250 19 236 21 c 1
 252 37 255 89 245 111 c 1
 222 65 207 -15 132 -15 c 0x55
 119 -15 115 -15 101 -15 c 0
 34 -15 18 188 18 209 c 0
 18 222 28 293 24 322 c 1
 42 332 77 341 92 341 c 0
 107 341 107 335 112 330 c 1
 127 340 l 2
 121 334 126 329 129 329 c 0
 131 283 121 186 121 171 c 0x58
 121 161 132 76 137 25 c 1
 142 25 l 1
 147 30 144 39 146 50 c 2
 146 59 l 1
 152 53 155 41 155 24 c 1
 161 24 165 19 179 19 c 0
 198 19 237 130 244 166 c 0
 248 190 253 246 253 260 c 0
 253 320 247 309 185 332 c 1
 225 332 272 334 315 340 c 1
 315 334 320 327 326 321 c 1x9480
94 278 m 1
 115 296 l 1
 115 317 l 1
 88 317 l 1
 94 278 l 1
109 250 m 1
 109 271 l 1
 102 260 88 250 88 244 c 1
 93 244 103 250 109 250 c 1
110 206 m 1
 104 211 107 220 101 226 c 1
 90 209 70 186 65 169 c 1
 76 180 98 200 110 206 c 1
96 174 m 1
 85 163 77 146 68 135 c 1
 82 147 96 163 96 174 c 1
70 202 m 1
 57 196 42 190 36 190 c 1
 36 168 43 140 43 126 c 1
 49 134 47 149 45 154 c 0
 48 173 59 193 70 202 c 1
97 112 m 1
 97 133 l 1
 85 122 70 100 65 83 c 1
 76 94 87 101 97 112 c 1
106 93 m 1
 106 88 99 78 99 78 c 1
 105 78 111 88 106 93 c 1
132 4 m 1
 121 27 118 53 112 76 c 1
 112 65 99 48 99 43 c 1
 105 43 116 34 116 29 c 0
 110 23 91 21 87 16 c 1
 101 2 l 1
 112 13 l 1
 118 3 126 2 132 4 c 1
80 76 m 1
 74 70 64 69 58 63 c 1
 64 51 67 36 66 30 c 1
 71 42 74 65 80 76 c 1
EndSplineSet
EndChar

StartChar: v
Encoding: 118 118 94
Width: 432
VWidth: 1050
Flags: W
HStem: -13 20 319 21G
LayerCount: 2
Back
Fore
SplineSet
380 332 m 1
 365 313 370 318 352 307 c 1
 335 251 288 169 273 97 c 0
 266 62 241 27 230 -13 c 1
 225 -7 208 -3 200 11 c 0
 150 106 102 210 49 312 c 0
 46 317 33 320 22 318 c 1
 28 324 45 340 59 340 c 0
 73 340 112 332 141 332 c 1
 124 316 101 316 84 308 c 1
 94 279 118 245 133 219 c 0
 138 210 138 189 145 173 c 0
 154 149 161 130 183 101 c 1
 200 163 221 229 244 290 c 1
 239 295 228 289 216 283 c 1
 216 289 221 302 227 313 c 1
 221 319 210 318 204 318 c 1
 217 333 l 1
 231 333 252 329 267 329 c 0
 281 329 275 331 270 337 c 1
 275 331 275 329 289 329 c 0
 303 329 284 340 297 340 c 0
 311 340 323 340 337 340 c 0
 351 340 331 329 346 329 c 0
 360 329 356 329 350 334 c 1
 355 329 374 332 380 332 c 1
275 189 m 1
 305 258 l 1
 270 211 l 1
 240 153 l 1
 275 189 l 1
272 153 m 1
 267 153 234 91 229 97 c 1
 229 91 193 73 193 73 c 1
 204 73 213 61 219 50 c 1
 219 55 272 130 272 153 c 1
EndSplineSet
EndChar

StartChar: w
Encoding: 119 119 95
Width: 601
VWidth: 1050
Flags: W
HStem: 7 309 11 76 11 92<364.5 368.5> 11 289 193 123
LayerCount: 2
Back
Fore
SplineSet
541 316 m 1x80
 548 291 l 1
 538 287 516 290 506 288 c 1
 499 276 385 11 352 11 c 0
 339 11 332 23 329 25 c 0
 317 45 305 72 292 84 c 1
 292 106 270 134 249 161 c 1
 210 102 209 65 152 7 c 1x28
 128 63 134 103 106 114 c 1
 97 138 100 175 90 206 c 0
 78 239 50 259 59 286 c 1
 44 291 24 290 10 300 c 0x10
 9 300 23 310 28 306 c 1
 43 310 l 1
 37 304 41 304 54 304 c 0
 68 304 68 305 72 310 c 1
 84 300 l 1
 100 305 110 300 110 310 c 1
 125 277 142 239 169 204 c 1
 185 230 203 254 214 281 c 1
 209 286 204 285 193 285 c 1
 193 290 188 298 182 304 c 1
 192 304 203 316 213 316 c 0x28
 227 316 222 316 235 316 c 0
 249 316 246 316 259 316 c 0
 272 316 256 321 270 321 c 0
 283 321 273 317 287 317 c 0
 300 317 289 316 302 316 c 0
 315 316 323 300 336 300 c 0x10
 349 300 357 305 368 310 c 1
 358 290 324 291 314 288 c 1
 298 269 267 220 267 207 c 0
 267 194 290 157 308 118 c 1
 339 167 366 225 403 278 c 1
 409 273 416 260 427 265 c 1
 420 270 421 282 412 288 c 0
 404 293 387 303 382 308 c 2
 392 306 l 1
 398 310 403 305 403 310 c 2
 403 310 410 310 406 305 c 1
 406 305 409 305 410 305 c 0
 415 305 411 304 415 306 c 0
 424 304 429 306 440 307 c 0
 472 308 471 300 478 300 c 0
 491 300 470 310 483 310 c 0
 496 310 486 300 499 300 c 0
 512 300 515 308 510 313 c 2
 520 305 l 1
 520 305 530 306 530 310 c 2
 528 300 l 1
 538 302 l 1
 541 316 l 1x80
480 272 m 1
 464 262 445 250 439 233 c 1
 439 204 l 1
 450 220 469 251 480 272 c 1
421 235 m 1
 409 227 387 215 380 199 c 1
 398 215 411 223 421 235 c 1
384 175 m 1
 379 175 370 183 370 183 c 1
 366 177 358 162 355 157 c 1
 364 157 379 170 384 175 c 1
393 161 m 1
 389 155 374 147 369 141 c 1
 374 141 383 135 383 135 c 1
 383 140 393 155 393 161 c 1
405 123 m 1
 390 117 369 110 358 99 c 1
 364 99 358 103 371 103 c 0
 385 103 375 92 375 87 c 1x48
 386 92 400 112 405 123 c 1
342 101 m 1
 336 101 320 94 320 81 c 0
 320 70 333 59 333 54 c 1
 338 66 331 73 336 81 c 0
 336 83 337 97 342 101 c 1
239 193 m 1
 229 182 214 168 209 157 c 1
 214 157 222 156 228 150 c 1
 233 161 239 182 239 193 c 1
160 196 m 1
 141 218 124 271 97 278 c 1
 108 235 114 188 125 145 c 1
 134 154 150 181 160 196 c 1
141 97 m 1
 141 76 l 1
 151 87 146 91 141 97 c 1
164 75 m 2
 152 65 l 1
 146 70 l 1
 146 50 l 1
 151 54 164 70 164 75 c 2
EndSplineSet
EndChar

StartChar: x
Encoding: 120 120 96
Width: 458
VWidth: 1050
Flags: W
HStem: 0 31<82 118> 16 302<289 403> 24 13 304 14
LayerCount: 2
Back
Fore
SplineSet
403 24 m 2x30
 320 16 l 1x30
 258 16 249 16 215 75 c 1
 215 90 l 1
 221 101 208 101 203 107 c 1
 183 92 169 67 147 45 c 1
 152 40 163 41 168 41 c 1
 163 35 156 22 154 18 c 0
 147 16 124 0 112 0 c 0x90
 99 0 56 12 30 18 c 1
 40 28 75 31 89 31 c 0
 102 31 179 123 179 136 c 0
 179 144 109 210 85 251 c 0
 83 255 73 267 68 275 c 1
 57 278 40 285 25 290 c 1
 30 295 42 309 47 320 c 1
 73 314 110 318 152 312 c 1
 152 312 148 306 136 296 c 1
 147 286 157 266 176 244 c 0
 178 239 179 232 177 227 c 1
 184 217 204 196 213 181 c 1
 251 218 280 252 312 295 c 1
 292 307 270 288 265 304 c 1
 265 304 264 304 253 304 c 1
 244 291 l 1
 239 297 228 319 228 319 c 1
 240 310 l 1
 250 320 l 1
 304 320 360 318 403 318 c 1
 312 271 275 197 237 151 c 1
 242 141 247 125 254 116 c 0
 280 86 326 37 339 37 c 0x40
 350 37 370 37 373 37 c 0
 379 27 392 22 403 24 c 2x30
144 197 m 1
 167 197 l 1
 138 223 l 1
 104 249 l 1
 144 197 l 1
259 64 m 1
 293 52 l 1
 250 99 l 1
 259 64 l 1
EndSplineSet
EndChar

StartChar: y
Encoding: 121 121 97
Width: 470
VWidth: 1050
Flags: W
HStem: -168 102<66 118.5> 288 28<128.5 141.5> 290 17<388 416>
LayerCount: 2
Back
Fore
SplineSet
418 284 m 1xa0
 412 290 409 290 394 290 c 0
 382 290 368 286 353 274 c 1
 352 233 349 174 328 139 c 0
 320 128 297 112 286 93 c 0
 272 72 273 29 260 4 c 0
 230 -50 201 -98 160 -148 c 0
 153 -156 125 -168 112 -168 c 0
 83 -168 46 -103 37 -90 c 0
 31 -87 20 -81 9 -80 c 1
 26 -74 59 -66 73 -66 c 0
 88 -66 121 -56 150 -56 c 1
 144 -61 131 -70 121 -81 c 0
 121 -86 131 -95 137 -106 c 1
 142 -106 144 -105 158 -105 c 0
 183 -105 223 11 223 13 c 0
 223 25 161 116 123 167 c 0
 121 172 127 178 125 184 c 0
 103 215 80 288 46 297 c 0
 35 300 20 301 10 301 c 1
 23 313 107 316 141 316 c 0xa0
 155 316 141 310 147 305 c 1
 152 310 161 312 167 307 c 1xc0
 156 308 148 288 135 288 c 0xa0
 122 288 121 290 116 284 c 1
 127 231 l 1
 160 186 186 143 209 98 c 1
 230 149 252 210 251 261 c 1
 262 259 273 264 285 275 c 1
 279 281 273 281 268 287 c 1
 277 292 297 300 315 302 c 0
 343 306 394 307 409 307 c 0xc0
 423 307 418 290 418 284 c 1xa0
331 273 m 0
 330 275 320 277 320 277 c 1
 320 261 321 245 321 245 c 1
 327 255 329 270 331 273 c 0
279 230 m 1
 301 253 l 1
 271 254 272 211 262 199 c 1
 273 192 l 1
 281 193 295 210 301 214 c 1
 291 212 285 218 279 230 c 1
245 90 m 1
 234 95 235 109 230 114 c 1
 230 84 l 2
 231 90 245 90 245 90 c 1
248 67 m 1
 248 61 234 62 229 62 c 2
 244 48 l 2
 244 53 248 61 248 67 c 1
EndSplineSet
EndChar

StartChar: z
Encoding: 122 122 98
Width: 443
VWidth: 1050
Flags: W
HStem: -14 20 -9 19<114 119 114 132 132 140 114 210> 4 12 4 127<243.5 367> 107 220<280 284.5 270.5 295.5> 242 128<100.5 147.5> 248 122<62.5 147.5>
LayerCount: 2
Back
Fore
SplineSet
406 372 m 1x12
 342 329 275 195 217 130 c 1
 266 123 345 131 360 131 c 0
 374 131 387 161 405 167 c 1
 389 109 356 52 363 5 c 1
 336 -1 277 18 264 -14 c 1x82
 257 -9 266 4 250 4 c 0x44
 237 4 224 -9 210 -9 c 0x22
 195 -9 127 -9 111 -9 c 0
 96 -9 65 -12 41 -7 c 1
 72 17 110 44 143 82 c 0
 182 128 230 212 260 261 c 1
 211 256 123 242 108 242 c 0
 93 242 83 248 70 248 c 0x82
 55 248 42 217 17 199 c 1
 17 219 l 2
 16 226 30 244 23 264 c 1
 32 268 77 310 77 332 c 0
 77 347 65 361 56 368 c 1
 77 368 126 370 141 370 c 0
 154 370 166 388 180 388 c 0
 195 388 190 381 197 377 c 0
 236 373 316 375 330 375 c 0
 343 375 347 388 360 388 c 0
 375 388 393 379 406 372 c 1x12
316 362 m 1
 279 354 227 351 211 334 c 1
 230 340 248 347 260 340 c 1
 260 334 248 322 242 316 c 1
 254 322 263 327 278 327 c 0x28
 291 327 294 315 293 309 c 1
 293 314 302 318 304 322 c 0
 302 324 296 329 297 334 c 0
 309 346 314 355 316 362 c 1
357 117 m 1
 324 125 l 1
 311 119 303 107 288 107 c 0
 272 107 267 111 260 111 c 1
 267 99 278 93 278 87 c 1
 267 75 253 65 242 53 c 1
 260 60 274 67 305 83 c 1
 318 70 l 1
 336 89 351 105 357 117 c 1
331 46 m 1
 319 33 303 23 303 16 c 1
 326 16 l 1
 326 23 331 40 331 46 c 1
277 57 m 1
 253 39 222 24 199 17 c 1
 226 17 l 2
 241 15 265 39 277 57 c 1
144 25 m 1
 138 31 120 18 114 10 c 1x42
 132 10 l 2
 148 10 144 25 144 25 c 1
EndSplineSet
EndChar

StartChar: braceleft
Encoding: 123 123 99
Width: 333
VWidth: 1050
Flags: W
HStem: 3 20 5 50 724 44<180.5 184>
VStem: 64 91<168.5 191.5> 68 98<304.5 317 304.5 334> 70 65
LayerCount: 2
Back
Fore
SplineSet
326 752 m 1xa8
 313 746 296 737 283 737 c 0
 269 737 236 731 214 731 c 1
 213 629 230 444 68 396 c 1
 90 385 113 392 138 384 c 1
 147 362 166 324 166 310 c 0
 166 299 155 218 155 170 c 0xa8
 155 144 148 108 135 77 c 1xb0
 135 55 l 1
 166 54 196 55 227 55 c 1
 227 49 215 41 209 35 c 1
 233 30 265 22 289 15 c 1
 269 15 230 9 183 5 c 0
 162 3 125 1 101 3 c 1xa4
 101 3 105 13 90 13 c 0
 74 13 65 10 65 4 c 1
 65 31 67 74 70 102 c 0
 72 127 64 155 64 182 c 0x64
 64 201 87 222 87 238 c 2
 87 260 l 1
 80 267 84 270 77 277 c 1
 71 270 69 266 63 266 c 1
 64 278 68 292 68 308 c 0xb0
 68 360 54 385 1 383 c 1
 68 423 89 510 115 570 c 0
 119 579 107 600 109 611 c 0
 119 683 124 768 218 768 c 0
 233 768 301 759 326 752 c 1xa8
184 724 m 1
 177 724 167 723 154 723 c 1
 160 715 163 694 162 682 c 1
 169 694 184 711 184 724 c 1
190 654 m 1
 186 660 l 2
 184 662 163 663 155 682 c 1xb0
 155 636 l 2
 154 621 143 596 137 584 c 1
 156 608 179 629 190 654 c 1
189 620 m 1
 176 608 166 591 165 584 c 1
 180 596 189 614 189 620 c 1
166 564 m 1
 144 565 142 542 137 529 c 1
 144 541 160 557 166 564 c 1
90 356 m 1
 105 373 l 1
 98 373 89 374 82 381 c 1
 82 374 83 363 90 356 c 1
116 282 m 1
 110 282 95 286 95 292 c 1
 95 280 103 265 109 252 c 1
 109 258 116 276 116 282 c 1
140 246 m 1
 125 231 93 200 102 172 c 1
 113 197 134 228 140 246 c 1
EndSplineSet
EndChar

StartChar: bar
Encoding: 124 124 100
Width: 224
VWidth: 1050
Flags: W
VStem: 60 74<526 611 577 611> 66 43 69 40<358 358> 74 35<425 445 445 473 473 473> 97 23<-37 -37 -37 -13> 123 17<410 476 476 476> 126 24
LayerCount: 2
Back
Fore
SplineSet
175 145 m 1x0a
 150 75 l 1
 117 -5 l 1
 120 -37 l 1
 97 -43 l 1
 97 -13 l 1
 77 1 l 1
 97 30 l 1
 83 67 l 1
 86 102 l 1
 66 148 l 1x12
 71 229 l 1
 88 261 80 278 66 295 c 1
 69 358 l 1x14
 74 425 l 1x80
 74 473 l 1
 60 526 l 1x12
 60 577 l 1
 63 644 l 1
 77 695 l 1
 89 725 l 1
 114 678 l 1
 136 670 134 686 129 701 c 1
 109 725 l 1x80
 126 736 l 1
 150 715 l 1
 158 675 l 1
 137 655 l 1
 134 611 l 1x14
 147 551 l 1
 140 502 l 1x24
 140 367 l 1
 150 206 l 1x44
 145 180 142 142 175 145 c 1x0a
123 476 m 1
 129 543 l 1
 109 600 l 1
 103 583 l 1
 91 543 l 1
 109 514 l 1
 109 445 l 1
 109 405 l 1
 109 350 l 1
 126 310 l 1
 126 358 l 1
 123 410 l 1x14
 123 476 l 1
EndSplineSet
EndChar

StartChar: braceright
Encoding: 125 125 101
Width: 307
VWidth: 1050
Flags: W
HStem: -5 20
VStem: 115 103 185 31
LayerCount: 2
Back
Fore
SplineSet
284 442 m 1xa0
 265 405 241 362 216 312 c 1
 216 312 204 303 219 303 c 0
 234 303 228 308 234 308 c 1
 215 264 214 211 218 171 c 0xa0
 222 123 210 66 216 16 c 1xc0
 176 -3 97 -8 64 -3 c 1
 64 4 69 11 75 18 c 1
 69 24 63 25 57 30 c 1
 68 37 90 39 104 50 c 1
 107 62 131 53 135 73 c 1
 135 73 123 112 118 114 c 1
 110 181 127 222 144 281 c 0
 153 315 207 372 237 410 c 1
 221 420 156 408 140 459 c 0
 126 506 130 591 130 607 c 0
 130 621 145 627 147 638 c 0
 150 663 155 696 155 711 c 2
 155 745 l 1
 137 747 101 745 85 745 c 0
 70 745 65 737 64 727 c 1
 60 732 51 743 51 750 c 1
 62 755 77 758 90 757 c 1
 95 763 88 766 81 766 c 1
 118 778 183 788 198 788 c 0
 210 788 234 773 247 768 c 1
 229 700 216 567 216 551 c 0
 216 515 223 479 284 442 c 1xa0
177 659 m 1
 163 645 159 608 164 586 c 1
 170 610 177 640 177 659 c 1
185 559 m 1
 179 559 168 560 162 553 c 0
 156 548 156 525 150 512 c 1
 162 525 179 547 185 559 c 1
190 511 m 1
 178 505 155 490 149 483 c 1
 155 483 165 475 165 475 c 1
 170 481 186 497 190 511 c 1
194 450 m 0
 189 450 187 439 187 433 c 1
 192 433 201 450 194 450 c 0
221 295 m 1
 211 284 190 268 197 247 c 1
 203 259 217 284 221 295 c 1
196 192 m 1
 190 187 181 169 181 163 c 1
 193 169 196 187 196 192 c 1
134 174 m 1
 128 162 127 137 127 131 c 1
 141 136 134 162 134 174 c 1
194 73 m 1
 194 62 183 45 189 39 c 1
 203 51 194 71 194 73 c 1
EndSplineSet
EndChar

StartChar: asciitilde
Encoding: 126 126 102
Width: 565
VWidth: 1050
Flags: W
HStem: 265 80 330 21G
LayerCount: 2
Back
Fore
SplineSet
490 351 m 1x40
 522 292 483 242 443 203 c 1
 428 171 369 179 341 190 c 1
 318 320 196 242 126 238 c 1
 59 144 l 1
 39 140 28 183 12 155 c 1
 20 218 90 289 153 332 c 1
 294 403 283 159 424 285 c 1
 455 297 451 355 490 351 c 1x40
EndSplineSet
EndChar

StartChar: bracketleft
Encoding: 91 91 103
Width: 293
VWidth: 1050
Flags: W
HStem: 4 51<116 135> 15 15 15 40 730 35<170 196 170 173>
VStem: 64 91<168.5 191.5> 68 98<304.5 317 304.5 334> 81 27 81 72 81 78 83 60 110 35
LayerCount: 2
Back
Fore
SplineSet
283 737 m 0x5040
 269 737 236 731 214 731 c 1
 213 629 162 479 153 436 c 1x5220
 175 425 125 372 150 364 c 1
 159 342 166 324 166 310 c 0x54
 166 299 155 218 155 170 c 0x58
 155 144 148 108 135 77 c 1
 135 55 l 1
 166 54 157 30 188 30 c 1x9040
 188 24 215 41 209 35 c 1
 233 30 240 55 254 7 c 1
 234 7 207 19 159 15 c 0x5080
 137 13 140 2 116 4 c 1x5040
 116 4 108 27 92 27 c 0
 77 27 58 24 58 18 c 1
 58 46 92 86 95 113 c 0
 98 138 64 155 64 182 c 0x38
 64 201 87 222 87 238 c 2
 87 260 l 1
 80 267 84 270 77 277 c 1
 71 270 69 266 63 266 c 1
 64 278 68 292 68 308 c 0x54
 68 360 90 361 81 428 c 1x51
 92 529 89 510 115 570 c 0
 119 579 107 600 109 611 c 0
 119 683 76 765 170 765 c 0
 186 765 252 770 277 765 c 1
 265 758 296 737 283 737 c 0x5040
196 730 m 1
 190 730 179 730 167 730 c 1
 173 722 176 700 175 689 c 1
 181 700 196 718 196 730 c 1
179 624 m 1
 186 660 l 2
 184 662 163 663 155 682 c 1x5220
 145 655 l 1x58
 144 640 143 596 137 584 c 1
 156 608 168 598 179 624 c 1
166 546 m 1x54
 144 547 95 442 110 425 c 1x5220
 139 448 160 540 166 546 c 1x54
146 427 m 1
 133 414 91 360 90 352 c 1
 119 355 146 421 146 427 c 1
146 241 m 1
 130 227 116 179 133 153 c 1
 146 178 140 223 146 241 c 1
116 194 m 1
 125 226 l 1
 118 226 102 199 95 206 c 1
 95 199 110 200 116 194 c 1
115 169 m 1
 109 169 92 185 92 191 c 1
 92 179 101 151 108 139 c 1x5220
 108 145 115 163 115 169 c 1
EndSplineSet
EndChar

StartChar: backslash
Encoding: 92 92 104
Width: 488
VWidth: 1050
Flags: W
HStem: -88 50
VStem: 37 60 174 27<470 470>
LayerCount: 2
Back
Fore
SplineSet
450 -47 m 0
 468 -135 403 -52 356 -64 c 1
 347 -38 l 1
 361 -39 378 -41 387 -33 c 1
 380 -27 367 -29 362 -22 c 0
 322 62 278 155 257 229 c 0
 249 259 239 311 211 346 c 0
 147 426 138 489 121 534 c 0
 112 556 89 598 82 624 c 1
 82 624 89 625 87 630 c 0
 77 652 56 678 47 703 c 0
 36 734 34 774 42 810 c 1
 72 800 58 763 97 761 c 1
 303 295 l 1
 303 295 317 294 322 287 c 0
 367 176 450 -30 450 -47 c 0
83 684 m 1
 174 470 l 2
 153 518 144 556 128 598 c 1
 130 605 137 613 134 620 c 0
 122 643 99 676 83 684 c 1
281 271 m 1
 260 338 230 414 201 476 c 1
 201 453 l 2
 200 437 264 314 281 271 c 1
EndSplineSet
EndChar

StartChar: bracketright
Encoding: 93 93 105
Width: 350
VWidth: 1050
Flags: W
HStem: -189 285 50 157<152 157 144 170> 169 203<233 237 225 246 233 233> 368 34<173 187 173 187> 385 263<225 237 161 225> 660 98<161 229 161 229 225 229 211 237 225 225> 774 21G<211 229 211 211>
VStem: 110 42<707 750> 110 51<648 660 707 750> 110 63<350 368 402 419> 178 47<648 660> 187 67<350 368 368 368 402 419 419 419> 237 17<372 385 385 385 648 660 660 660>
LayerCount: 2
Back
Fore
SplineSet
254 -200 m 1x4f28
 190 -166 97 -221 21 -188 c 1
 21 -158 l 1
 157 -107 97 156 110 321 c 1
 106 431 114 618 110 750 c 1
 0 788 l 1
 76 838 166 779 254 800 c 1
 301 473 254 110 254 -200 c 1x4f28
211 758 m 1
 229 758 l 1
 229 774 l 1
 211 774 l 1
 211 758 l 1
225 648 m 1
 237 648 l 1
 237 660 l 1
 225 660 l 1
 225 648 l 1
152 707 m 1
 161 707 l 1x5728
 161 750 l 1
 152 750 l 1x56a8
 152 707 l 1
161 648 m 1
 178 648 l 1
 178 660 l 1
 161 660 l 1
 161 648 l 1
173 495 m 1x4ea8
 182 525 l 1
 161 495 l 1
 173 495 l 1x4ea8
225 372 m 1
 237 372 l 1
 237 385 l 1
 225 385 l 1
 225 372 l 1
173 402 m 1
 187 402 l 1xae68
 187 419 l 1
 173 419 l 1
 173 402 l 1
173 350 m 1
 187 350 l 1
 187 368 l 1
 173 368 l 1
 173 350 l 1
246 270 m 2
 233 330 l 1
 208 309 242 279 246 270 c 2
161 279 m 1x5650
 173 291 l 1
 161 279 l 1x5650
233 139 m 1
 246 139 l 1
 246 169 l 1
 233 169 l 1
 233 139 l 1
152 207 m 1
 170 207 l 1x56a8
 170 224 l 1
 152 224 l 1
 152 207 l 1
211 96 m 1
 233 96 l 1xae68
 233 118 l 1
 211 96 l 1
152 148 m 1x5728
 173 177 l 1
 131 127 l 1
 152 148 l 1x5728
225 46 m 1
 233 46 l 1
 233 54 l 1
 225 54 l 1
 225 46 l 1
144 89 m 1x9668
 161 118 l 1x5728
 144 89 l 1x9668
144 37 m 1
 157 37 l 1
 157 50 l 1
 144 50 l 1x5668
 144 37 l 1
225 -56 m 1
 233 -56 l 1
 233 -27 l 1
 225 -27 l 1
 225 -56 l 1
144 -13 m 1
 157 -13 l 1
 157 -1 l 1x56a8
 144 -1 l 1
 144 -13 l 1
EndSplineSet
EndChar

StartChar: asciicircum
Encoding: 94 94 106
Width: 550
VWidth: 1050
Flags: W
HStem: 504 36
LayerCount: 2
Back
Fore
SplineSet
191 396 m 0
 162 336 123 229 39 195 c 1
 30 202 17 226 16 235 c 0
 14 244 25 259 30 262 c 0
 116 299 120 376 161 430 c 1
 161 430 163 431 158 438 c 1
 154 436 142 442 138 440 c 1
 163 469 181 519 221 540 c 0
 232 546 230 570 233 591 c 1
 241 587 258 584 269 578 c 0
 280 573 285 565 293 557 c 1
 292 556 290 555 289 555 c 1
 351 510 384 424 410 372 c 0
 436 320 471 271 503 222 c 0
 506 220 508 213 511 211 c 1
 502 203 497 195 487 190 c 0
 484 189 481 188 477 187 c 0
 475 186 480 192 477 191 c 0
 475 190 476 197 474 196 c 2
 474 196 465 197 464 195 c 0
 462 191 473 187 473 187 c 2
 472 187 464 189 462 188 c 0
 459 187 458 180 457 180 c 0
 452 178 448 176 446 175 c 1
 445 181 445 197 444 203 c 1
 455 190 447 214 446 217 c 0
 446 222 441 210 441 214 c 0
 440 223 439 229 439 230 c 0
 403 243 378 314 353 343 c 1
 364 350 374 329 378 327 c 1
 383 333 379 337 379 337 c 1
 339 391 332 467 251 504 c 1
 230 469 210 432 191 396 c 0
155 375 m 1
 216 471 l 1
 208 492 l 1
 187 444 l 1
 171 411 l 1
 155 375 l 1
53 229 m 1
 85 255 l 1
 65 253 l 1
 46 240 l 1
 53 229 l 1
439 298 m 1
 416 313 372 394 373 393 c 2
 382 355 l 1
 395 352 396 342 404 324 c 2
 425 275 l 2
 425 274 424 300 439 298 c 1
303 513 m 1
 270 540 l 1
 256 539 250 531 241 527 c 1
 263 528 270 525 283 515 c 1
 303 513 l 1
EndSplineSet
EndChar

StartChar: underscore
Encoding: 95 95 107
Width: 450
VWidth: 1050
Flags: W
HStem: -50 59
LayerCount: 2
Back
Fore
SplineSet
373 -9 m 1
 370 -17 336 -33 361 -50 c 1
 36 -35 l 1
 8 -51 52 -14 16 -2 c 1
 127 23 246 -5 373 -9 c 1
EndSplineSet
EndChar

StartChar: grave
Encoding: 96 96 108
Width: 137
VWidth: 1050
Flags: W
HStem: 653 20<70 70> 671 20G<25 25> 689 36
VStem: 25 127
LayerCount: 2
Back
Fore
SplineSet
60 724 m 1xb0
 88 689 l 1
 52 689 l 1xb0
 25 691 l 1x50
 35 727 l 1
 60 724 l 1xb0
152 559 m 1
 145 524 l 1
 82 536 54 599 38 653 c 1
 50 657 54 650 58 646 c 1
 70 673 l 1x90
 125 681 113 595 152 559 c 1
88 601 m 1
 110 601 l 1
 93 639 l 1
 88 601 l 1
EndSplineSet
EndChar

StartChar: Agrave
Encoding: 192 192 109
Width: 830
VWidth: 1050
Flags: W
HStem: -26 20 -21 16 -5 47 3 100 265 37 639 22<645 660> 646 21G
VStem: 463 121 597 16
LayerCount: 2
Back
Fore
SplineSet
782 1 m 1x5b80
 770 -5 750 -10 737 -10 c 0
 725 -10 707 -5 692 -5 c 0
 679 -5 592 3 578 3 c 0
 540 3 490 122 489 134 c 0
 483 174 483 231 471 282 c 1
 405 284 335 276 268 274 c 1
 250 249 234 212 220 183 c 0
 219 177 225 166 222 160 c 0
 202 121 170 80 149 41 c 1
 149 50 159 70 159 91 c 1
 141 70 130 45 112 17 c 1
 146 11 184 8 217 13 c 1
 230 -2 l 1
 196 -8 134 -21 120 -21 c 0
 108 -21 94 -21 82 -21 c 2
 18 -26 l 1x9d80
 18 -5 l 1
 34 -5 52 7 70 9 c 1
 112 85 198 200 213 266 c 1
 209 268 196 265 183 265 c 0
 169 265 163 278 157 284 c 1
 181 315 198 297 231 303 c 1
 410 667 l 1
 416 667 426 656 440 656 c 0
 453 656 592 661 670 661 c 1xab80
 671 654 668 639 652 639 c 0
 638 639 627 647 599 647 c 1
 605 641 610 631 613 626 c 0
 617 521 650 366 670 251 c 0
 686 157 723 30 719 40 c 1
 731 37 767 24 782 1 c 1x5b80
599 642 m 1
 572 660 556 610 544 595 c 1
 561 612 583 630 599 642 c 1
597 567 m 1
 597 584 596 606 597 623 c 1
 591 611 589 596 584 584 c 1
 588 580 591 572 597 567 c 1
578 389 m 2
 610 419 l 1
 588 425 586 400 578 389 c 2
503 521 m 1
 497 514 464 493 473 471 c 1
 485 489 497 510 503 521 c 1
592 488 m 1
 553 460 507 380 494 349 c 1
 523 391 586 443 592 488 c 1
623 343 m 1
 623 337 612 321 612 315 c 1
 619 326 633 337 623 343 c 1
537 449 m 1
 514 431 493 409 470 397 c 1
 475 385 479 366 478 354 c 1
 500 388 520 426 537 449 c 1
570 421 m 1
 541 382 510 345 488 310 c 1
 493 310 502 304 502 304 c 1
 525 343 553 388 570 421 c 1
463 315 m 1
 440 639 l 1
 281 322 l 1
 309 298 328 321 350 321 c 0
 365 321 410 319 429 322 c 0
 440 324 454 332 463 315 c 1
644 239 m 1
 638 245 630 248 630 248 c 1
 612 231 600 210 595 198 c 1
 617 220 644 239 644 239 c 1
587 314 m 1
 563 290 543 268 532 250 c 1
 538 245 540 237 540 237 c 1
 557 265 575 292 587 314 c 1
687 46 m 1
 681 79 670 161 670 190 c 1
 670 184 655 180 655 166 c 2
 655 126 l 1
 662 126 669 130 674 136 c 1
 680 119 674 103 673 91 c 1
 679 97 687 46 687 46 c 1
620 203 m 1
 590 165 567 130 556 103 c 1
 579 130 604 169 620 203 c 1
654 90 m 1
 644 85 622 60 605 42 c 1xab80
 631 42 l 1
 637 58 644 79 654 90 c 1
592 74 m 1
 578 62 l 1
 578 41 l 1
 584 47 587 63 592 74 c 1
466 897 m 1
 494 862 l 1
 458 862 l 1
 431 864 l 1
 441 900 l 1
 466 897 l 1
558 732 m 1
 551 697 l 1
 488 709 460 772 444 826 c 1
 456 830 460 823 464 819 c 1
 476 846 l 1
 531 854 519 768 558 732 c 1
494 774 m 1
 516 774 l 1
 499 812 l 1
 494 774 l 1
EndSplineSet
EndChar

